<?xml version="1.0" encoding="UTF-8" standalone="no"?>
<!DOCTYPE svg PUBLIC "-//W3C//DTD SVG 1.1//EN" "http://www.w3.org/Graphics/SVG/1.1/DTD/svg11.dtd">
<!-- Created with Vectornator (http://vectornator.io/) -->
<svg height="100%" stroke-miterlimit="10" style="fill-rule:nonzero;clip-rule:evenodd;stroke-linecap:round;stroke-linejoin:round;" version="1.1" viewBox="0 0 1024 1024" width="100%" xml:space="preserve" xmlns="http://www.w3.org/2000/svg" xmlns:vectornator="http://vectornator.io" xmlns:xlink="http://www.w3.org/1999/xlink">
<defs/>
<g id="Layer-1" vectornator:layerName="Layer 1">
<path d="M959.17 459.453C952.048 459.453 945.265 460.804 938.821 463.508L785.864 199.588C805.535 185.733 818.762 162.754 818.762 136.734C818.762 94.4932 784.168 60.0248 741.775 60.0248C701.755 60.0248 668.518 90.776 665.127 129.975L359.213 129.975C355.821 104.293 333.776 84.0175 306.983 84.0175C277.816 84.0175 254.076 107.672 254.076 136.734C254.076 165.795 277.816 189.45 306.983 189.45C333.776 189.45 355.821 169.513 359.213 143.492L665.127 143.492C667.161 167.147 680.388 188.099 699.042 200.602L582.035 414.509C568.129 408.088 552.868 404.371 536.588 404.371C479.272 404.371 432.469 448.977 428.739 505.073L165.897 505.073C163.862 482.094 151.313 461.818 133.338 448.977L285.956 185.733L274.086 178.975L121.468 442.218C111.633 437.487 100.441 435.122 88.9096 435.122C46.5158 435.122 11.9224 469.59 11.9224 511.831C11.9224 554.072 46.5158 588.54 88.9096 588.54C100.441 588.54 111.633 585.837 121.468 581.444L274.764 845.701C262.216 855.163 254.076 870.37 254.076 887.266C254.076 916.328 277.816 939.982 306.983 939.982C333.776 939.982 355.821 920.045 359.213 894.025L665.127 894.025C668.518 933.224 701.755 963.975 741.775 963.975C784.168 963.975 818.762 929.507 818.762 887.266C818.762 861.246 805.874 838.267 785.864 824.412L938.821 560.492C944.926 563.196 952.048 564.547 959.17 564.547C988.337 564.547 1012.08 540.893 1012.08 511.831C1012.08 482.769 988.337 459.453 959.17 459.453ZM306.644 175.933C284.939 175.933 267.303 158.361 267.303 136.734C267.303 115.107 284.939 97.5346 306.644 97.5346C328.35 97.5346 345.986 115.107 345.986 136.734C345.986 158.361 328.35 175.933 306.644 175.933ZM678.353 136.734C678.353 101.928 706.842 73.5419 741.775 73.5419C776.707 73.5419 805.196 101.928 805.196 136.734C805.196 171.54 776.707 199.926 741.775 199.926C706.842 199.926 678.353 171.54 678.353 136.734ZM536.588 418.226C588.478 418.226 630.872 460.466 630.872 512.169C630.872 563.872 588.478 606.112 536.588 606.112C484.698 606.112 442.305 563.872 442.305 512.169C441.965 460.466 484.359 418.226 536.588 418.226ZM25.8276 512.169C25.8276 477.363 54.3162 448.977 89.2487 448.977C124.181 448.977 152.67 477.363 152.67 512.169C152.67 546.975 124.181 575.361 89.2487 575.361C54.3162 575.361 25.8276 546.975 25.8276 512.169ZM133.677 575.023C151.652 562.182 164.201 542.244 166.236 518.927L308.1 518.927L429.078 518.927C432.469 575.023 479.611 619.629 536.928 619.629C552.868 619.629 568.129 616.25 581.695 609.829L697.007 825.426C679.371 838.267 667.501 857.867 665.466 880.846L359.552 880.846C356.16 855.163 334.115 834.888 307.323 834.888C300.2 834.888 293.417 836.239 286.974 838.943L133.677 575.023ZM306.644 926.465C284.939 926.465 267.303 908.893 267.303 887.266C267.303 865.639 284.939 848.067 306.644 848.067C328.35 848.067 345.986 865.639 345.986 887.266C345.986 908.893 328.35 926.465 306.644 926.465ZM805.196 887.604C805.196 922.41 776.707 950.796 741.775 950.796C706.842 950.796 678.353 922.41 678.353 887.604C678.353 852.798 706.842 824.412 741.775 824.412C776.707 824.412 805.196 852.798 805.196 887.604ZM774.333 817.991C764.498 813.26 753.306 810.895 741.775 810.895C729.565 810.895 718.373 813.598 708.199 818.667L593.227 603.747C624.089 584.823 644.438 551.03 644.438 512.169C644.438 473.983 624.428 440.191 593.905 421.267L710.912 207.36C720.408 211.415 730.583 213.781 741.775 213.781C753.306 213.781 764.498 211.077 774.333 206.684L927.29 470.942C914.741 480.404 906.602 495.611 906.602 512.507C906.602 529.403 914.741 544.61 927.29 554.072L774.333 817.991ZM959.17 551.368C937.464 551.368 919.829 533.796 919.829 512.169C919.829 490.542 937.464 472.97 959.17 472.97C980.876 472.97 998.512 490.542 998.512 512.169C998.512 533.796 980.876 551.368 959.17 551.368Z" fill="#ffffff" fill-rule="nonzero" opacity="1" stroke="none" vectornator:layerName="path"/>
</g>
</svg>
