<svg xmlns="http://www.w3.org/2000/svg" viewBox="0 0 4680 3120"><defs><style>.cls-1{isolation:isolate;}.cls-2,.cls-23,.cls-33{fill:#fff;}.cls-2{opacity:0;}.cls-3{fill:#ffead1;}.cls-4{fill:#00b1a8;}.cls-5{fill:#00988e;}.cls-6{fill:#006d80;}.cls-7{fill:#a9482f;}.cls-8{fill:#dd890e;}.cls-9{fill:#eda024;}.cls-10{fill:#16569a;}.cls-11{fill:#163f82;}.cls-12{fill:#fd5140;}.cls-13{fill:#d0111d;}.cls-14{fill:#5b1e13;}.cls-15{fill:#fbc5a9;}.cls-16{fill:#f7a18a;}.cls-17{fill:#7c2c19;}.cls-18{opacity:0.5;}.cls-19{fill:#383939;}.cls-20{fill:#f08372;}.cls-21{fill:#a03e4b;}.cls-22{fill:#47284f;}.cls-24{fill:#ffc9ac;}.cls-25{fill:#ffa68d;}.cls-26{fill:#ffa70d;}.cls-27{fill:#ffe03c;}.cls-28{fill:#faba3c;}.cls-29{fill:#ededed;}.cls-30{fill:#c9c9c9;}.cls-31{fill:#8c847a;}.cls-32{fill:#787878;}.cls-33{opacity:0.21;}.cls-34{fill:#ffd3a6;}.cls-35{fill:#4a4a4a;}.cls-36{fill:#707070;}.cls-37{fill:#5370a5;}.cls-38{fill:#9d569a;}.cls-39{fill:#f27a25;}.cls-40{fill:#ffae43;}.cls-41{fill:#3b3b3b;}.cls-42{fill:#594639;}.cls-43{fill:#7d4f8b;}.cls-44{fill:#73acff;}.cls-45{fill:#fbefd9;}.cls-46{fill:#e8e3ba;}.cls-47{fill:#8bb117;}.cls-48{mix-blend-mode:multiply;}.cls-49{fill:#db6db1;}</style></defs><title>07</title><g class="cls-1"><g id="_07" data-name="07"><rect id="_07-2" data-name="07" class="cls-2" width="4680" height="3120"/><path class="cls-3" d="M3996,1488.69c-25.62-191.77-182.2-363.56-395.24-433.62-43.77-14.39-92.8-24.74-138.68-12.58,42.81-124.4,86.06-253.77,61.83-379.59C3488,476.32,3303.24,330.51,3090.25,270.19s-449.67-46.49-673.49-5.42c-239.4,43.93-493,132.87-610.75,314.4-210.89-59-461.27-18.76-638.39,102.58C1088.39,736,1020.6,811.89,1018.29,896c-104.48,3.67-198.78,69.46-243.72,149.63s-47.12,171.85-30.28,257.47c20.11,102.21,89,215.17,212.87,223.35-194,170.3-271.41,426.72-194.95,646.18,54.09,155.23,183.68,287.7,349.86,367.56,82,39.41,158.59,49.48,248.41,66.23C1470.77,2627,1564.27,2681,1668.63,2714c107.78,34.07,224.77,44.68,340.57,53.27,477.9,35.49,976.62,39.13,1428.14-114.84,164.18-56,328.07-139.71,408.61-272.09s40.85-320-118.39-376C3915.26,1884.74,4021.61,1680.46,3996,1488.69Z"/><path class="cls-4" d="M1237.74,2304.89c-32.35-78.5-63.28-158-91-238.28-9.76-28.29-19.41-92.73-47.66-109.62-4.55-2.74-11.56-1.72-13.34,4.08-34.39,112.7,1.58,260.82,33.65,369.76,18.86,64.06,46.54,122.63,75.69,182.51,14.85,30.53,28,62.36,45.43,91.5,6.67,11.09,13.92,21.88,21.07,32.67,2,3,4.39,5.93,6.1,9.06,2.24,4.13.88,4.45,1.63,8,.07.39.3.72.41,1.11l29.4-13.33a1.82,1.82,0,0,1,.15-.23c23.76-35.08,25.69-87.56,18-128.12C1303.11,2440.08,1266.18,2373.92,1237.74,2304.89Z"/><path class="cls-5" d="M1204.09,2389.38c-57.9-120.55-72.31-256.33-99-386.09a2.63,2.63,0,0,0-5.2.83c13.76,105.62,28.63,225.59,66.34,325.54,20.77,55.07,48.93,106.5,72.1,160.48,18.64,43.41,48.94,107.93,43.29,160.18l14.26-6.46c2.23-30.18-12.69-67.47-19.5-91.44C1260.13,2495.17,1229.68,2442.7,1204.09,2389.38Z"/><path class="cls-5" d="M1106.18,2250c-41.31-73.3-78.65-147.43-117.34-222-13.93-26.89-41.51-100.41-80.18-97.67-4.15.31-6.59,4.12-7.34,7.76-14.17,68,3.3,152.23,19.8,218.19,18.74,75,40.21,145.82,80,212.65,40.87,68.58,98.54,125.62,153.64,182.61,26.53,27.44,54.39,54.43,79.54,83.11,7.51,8.53,14.65,18.39,22.88,26.78l28.61-13c-2.59-60.65-23.07-112.3-54.9-167.58C1187.31,2405.11,1149.12,2326.17,1106.18,2250Z"/><path class="cls-4" d="M1226.78,2501.24c-29.12-54.73-66.77-103.87-103.34-153.77-76.09-103.78-170.07-212.81-186.42-344.8-.62-5.13-8.14-4.66-8.78.22-6.49,49.7,17.74,98.84,40.37,141.61,31.26,59.11,71.56,113.87,110.86,167.8,45.74,62.74,99.67,125,133.78,195.07,17.79,36.45,31.18,73.55,42.27,112.56,3.92,13.78,6.65,25.53,11.33,37.08l12-5.43c-7.17-22.06-10.41-46-18-67.73C1250.93,2555.77,1240.79,2527.56,1226.78,2501.24Z"/><path class="cls-6" d="M1018.42,2340.46c-63.09-29.64-129.9-41.43-199.4-41.85-32.52-.2-65,.74-97.51.59-14.28,0-36.56,0-48.64,9.62-68.12,54.28,155.27,167,188.41,182.25,69.75,32.21,141.73,58.61,212.37,88.55a1226,1226,0,0,1,116.42,57.12c16.86,9.4,34,21.81,51.71,31.63l34.07-15.44c-26.58-69-66.74-129.29-113.7-187.2C1121.2,2415.19,1078.32,2368.6,1018.42,2340.46Z"/><path class="cls-5" d="M1030.34,2402.63c-48.18-23.4-101.37-23.18-153.72-27.83-72-6.39-134.49-19.73-202.63-42.76-5.49-1.84-8.24,5.88-3.13,8.32,50.35,23.95,99.68,36.48,155.24,42.88,54.6,6.29,121.19,2,172.36,23.79,115,49,175.15,168.58,258.29,254.56l11.92-5.4c-37.44-47.11-71.07-96.25-112.2-141C1120.81,2476.43,1078.56,2426.06,1030.34,2402.63Z"/><path class="cls-6" d="M1365.87,2120.54c-7.3-30.14-26.77-73.59-60.94-79.61-80.2-14.16-56.69,529.48,0,588.2a3.28,3.28,0,0,0,.45.31c1,3.17,4.67,5.43,7.87,2.53.16-.14.31-.3.46-.44a9.28,9.28,0,0,0,6.57-6.17c35.27-33.13,61.72-68.76,73.44-117.15,14-57.66,1.42-125.08-2.94-183.22C1385.7,2257.36,1381.88,2186.57,1365.87,2120.54Z"/><path class="cls-5" d="M1326.75,2125.91c-.55-5.17-8.81-4.94-9.08.25-4.58,85.24,3.84,170.32,11,255.11,3.53,41.93,3.13,83.12-3.68,124.67-6.21,38-19.42,74.6-23.12,112.95-.64,6.89,9.61,9.53,11.91,2.8,24.34-71.31,36.48-151.56,30.2-226.8C1336.48,2305.56,1336.39,2214.89,1326.75,2125.91Z"/><ellipse class="cls-7" cx="2342.76" cy="2684.35" rx="1577.92" ry="125.63"/><ellipse class="cls-7" cx="2588.5" cy="2794.25" rx="1128.57" ry="96.35"/><path class="cls-8" d="M1976.35,2632.71c-37.06-10.09-171.37-69.57-180.3-93.14a5.7,5.7,0,0,1-.45-1.52c-3.48-22.42-12.06-168.7-12.06-175.66l-136-3.4,24.12,184.24c-17.24,65.37-15.54,130.83-15.54,130.83S2005.64,2693,2009,2686.12c2.5-4.92,4.1-24.74-9-39.48C1994.75,2640.75,1987.16,2635.66,1976.35,2632.71Z"/><path class="cls-9" d="M1976.35,2632.71c-37.06-10.09-171.37-69.57-180.3-93.14l-1,1.16s-23.75,18.66,14.2,47.69,122,60.28,160,59.47c14.2-.26,24.11-.71,30.81-1.25C1994.75,2640.75,1987.16,2635.66,1976.35,2632.71Z"/><path class="cls-8" d="M1370,2325.51c-8.61,49.93-17.22,266.87-17.22,266.87s-49.93,115.36-49.93,125.69,22.38,43,62,48.21,103.31-6.88,108.47-43-15.49-129.13-15.49-129.13l53.37-241.05S1378.6,2275.58,1370,2325.51Z"/><path class="cls-9" d="M1361.13,2604.13c-8.19,13.39-29.77,56.56-20.1,79.63s93.77,40.18,96,12.65,3.73-98.24,3.73-98.24C1376,2605.62,1369.31,2590.73,1361.13,2604.13Z"/><path class="cls-10" d="M1327.25,1461.4s-31.46,53.39-28.89,125.25c4.74,132.56,44.11,333.46,37.64,416.55-7.75,99.51-48.54,519.86-48.54,519.86s73.93,36.46,153.71,35.66c51.13-.51,76.16-37.48,76.16-37.48s65.13-356.49,69.14-488,41.59-465.79-3.4-534.4S1327.25,1461.4,1327.25,1461.4Z"/><path class="cls-10" d="M1762.43,1457.43c-32.42-32.15-219.62,35-219.62,35S1564.11,1659,1601.1,1816c18.54,78.72,41,155,66.73,206.84.09.16.16.35.24.53a2.88,2.88,0,0,1,.13.31l.24.66a1.59,1.59,0,0,1,.07.2l.18.6c.07.23.13.48.19.73,10.77,43.19-40.93,336.48-44.21,476.79,0,0,72.71,29.39,144,35.34,16.82,1.4,63.92-13.14,63.92-13.14,20.45-118.16,63.15-446.35,57.29-521.64C1882.39,1906.8,1794.85,1489.56,1762.43,1457.43Z"/><path class="cls-11" d="M1662.33,1712.61l-61.31,102,.08,1.43c18.54,78.72,41,155,66.73,206.84.09.16.16.35.24.53a2.88,2.88,0,0,1,.13.31l.24.66a1.59,1.59,0,0,1,.07.2c.06.2.12.39.18.6s.13.48.19.73c10.77,43.19-40.93,336.48-44.21,476.79l51.55,17.28c-15.65-162.51,55.32-503.16,55.32-503.16Z"/><path class="cls-11" d="M1316.72,1475.62c-5.45,14.42-10.08,29-14.13,43.74l79.4,53.32c47.11,31.64,96.23,64.08,152.1,72.45,51.87,7.76,105.23-6.36,151.57-31.28,40.1-21.56,75.56-50.85,109-82.14-3.59-11.93-7.41-23.79-11.6-35.52C1632,1485.63,1467.81,1486.18,1316.72,1475.62Z"/><path class="cls-12" d="M1829.73,824.8h0A46.36,46.36,0,0,0,1777,803.13l-127.79,36.2L1442.94,815l-100.74-30.9a51.66,51.66,0,0,0-59.58,23.28h0a341.24,341.24,0,0,0-43.81,121.63l-89.92,255.32,189.88,28.93-2.94,25.41a565.09,565.09,0,0,1-16.82,85.92l-23.78,113.78c-6.49,23.39-5.67,54.09,15.33,65.72l38.39,21.28a436.36,436.36,0,0,0,421.9,1l11.2-6.14c22.45-12.3,32.58-39.48,23.79-63.8a564.34,564.34,0,0,1-28.71-265.36h0l88.45-22.26-12.49-264.42A175.71,175.71,0,0,0,1829.73,824.8Z"/><path class="cls-13" d="M1364.17,1092.5l47.52-4.43v-80.84A291.41,291.41,0,0,0,1391,899.6Z"/><path class="cls-13" d="M1728.56,886.36c-16.92,26.86-24,62.85-18.68,93.09C1730.65,925,1765,874.51,1810,832.4,1775.73,840,1745.47,859.51,1728.56,886.36Z"/><path class="cls-13" d="M1341.34,1045.27c-26.77-1.3-53,6.72-72.94,22.27l-40.15,31.35,142.58-23-1.26-22.25A61.2,61.2,0,0,0,1341.34,1045.27Z"/><path class="cls-14" d="M1712,560.63s23.32-37,0-65.84-66.53-5.49-66.53-5.49-8.23-37-41.84-34.29-26.75,31.55-50.76,36.35-26.74-17.15-60.35-.69-6.86,51.3-32.92,63.71-37.73,8.31-46.64,35.06,15.77,41.83,0,72,29,91.95,97.63,100.86l116.76-66.87L1712,653.91s30.17-23.32,22.63-60.36C1734.67,593.55,1729.18,564.74,1712,560.63Z"/><path class="cls-15" d="M1545.48,586.92s11.45,20.19,12.22,42.37c.63,18.25-10,35.14-26.3,43.34l-.23.11c-4-15.37-16.77-26.63-31.92-26.63-18.36,0-33.25,16.53-33.25,36.91,0,19.43,13.55,35.33,30.73,36.76L1485.06,816s51,71.87,142.54,41.19l2.23-27.81s43,21.89,58.38-12.17-4.86-171.93-7.29-193C1680.92,624.22,1616,634.76,1545.48,586.92Z"/><path class="cls-16" d="M1545.48,586.91s10.43,18.44,12,39.41c35.34,8.52,85.12,16.27,124.4,5.77-.44-3.36-.78-6.07-1-7.87C1680.92,624.22,1616,634.76,1545.48,586.91Z"/><path class="cls-16" d="M1563.32,782.37s15.9,53.71,64.72,74.7l1.78-27.67S1578.73,803.45,1563.32,782.37Z"/><path class="cls-17" d="M1523.38,564.61a2.44,2.44,0,0,1-2.15-1.29c-4.54-8.52-17.61-18.14-17.74-18.24a2.44,2.44,0,0,1,2.88-3.93c.57.42,14.09,10.38,19.16,19.88a2.43,2.43,0,0,1-2.15,3.58Z"/><path class="cls-17" d="M1680.92,626.65a2.43,2.43,0,0,1-.36-4.84c.24,0,24.21-3.75,38-20.43a2.43,2.43,0,0,1,3.75,3.1c-15,18.15-40,22-41.06,22.15Z"/><path class="cls-16" d="M1485.06,692.34a2.43,2.43,0,0,1-.33-4.84l17.56-2.41L1493,662.45a2.43,2.43,0,0,1,4.5-1.85L1508,686.15a2.42,2.42,0,0,1-1.92,3.33l-20.68,2.84A1.83,1.83,0,0,1,1485.06,692.34Z"/><path class="cls-16" d="M1642.29,731.68h0a2.44,2.44,0,0,1,0-4.87h0c.1,0,8.16,0,23.26-4.63,2.15-.66,3.44-1.69,3.94-3.15,2-5.86-6.61-18-12.3-26.07a85.82,85.82,0,0,1-5.57-8.43c-4.93-9.52-2.63-22.76-2.53-23.32a2.43,2.43,0,0,1,4.79.85c0,.13-2.1,12.2,2.06,20.23a82.2,82.2,0,0,0,5.22,7.86c7,9.91,15.75,22.24,12.94,30.45-1,3-3.43,5.11-7.13,6.23C1651.35,731.58,1643,731.68,1642.29,731.68Z"/><g class="cls-18"><path class="cls-16" d="M1570.73,682.46c-15.41-2.55-28.87,1.19-30.06,8.35s10.34,15.05,25.76,17.61,28.87-1.19,30.06-8.36S1586.14,685,1570.73,682.46Z"/></g><path class="cls-19" d="M1665.55,751.1a33.84,33.84,0,0,0-11.73-.41,93.36,93.36,0,0,1-35.7-3.72,42.37,42.37,0,0,0-6.47-1.58,11.35,11.35,0,0,0-3.54.3c-4.94,1.48-6.41,7-6,11.52.76,7.91,5.35,15.47,12.06,21a38.67,38.67,0,0,0,14.76,7.42c12.48,3.2,26.61,0,35.88-7.59a30.67,30.67,0,0,0,3.87-3.77c4.2-5.07,6.71-11.78,4.09-17.76C1671.55,753.61,1669,752,1665.55,751.1Z"/><path class="cls-20" d="M1634.69,770.08c-7.51.45-15.45,2.92-20.48,8.17a38.67,38.67,0,0,0,14.76,7.42c12.48,3.2,26.61,0,35.88-7.59C1656.32,771.94,1645.3,769.36,1634.69,770.08Z"/><path class="cls-21" d="M1666.23,660.14a31.63,31.63,0,0,0,24.7,1l-38.67-18.7C1653.44,649.67,1658.33,656.33,1666.23,660.14Z"/><path class="cls-21" d="M1606.42,658.85c8.84-3.5,14.74-10.27,16.73-17.89l-43.31,17.13A34,34,0,0,0,1606.42,658.85Z"/><path class="cls-22" d="M1687.15,674.6c-3.6-2.06-9.39-3.08-14.94-2.23s-10.66,3.37-13.28,6.34a46.6,46.6,0,0,0,8.71,1.23,57.18,57.18,0,0,0,8.8,0,20.16,20.16,0,0,0-8.6-2.34,25.88,25.88,0,0,0-2.64,0c2.51-.47,5.12-.94,7.76-1.32C1677.89,675.51,1682.87,675.11,1687.15,674.6Z"/><path class="cls-22" d="M1613.69,670.15c-5.44-1.29-11.31-.75-15.12,1,4.21.87,9.12,1.67,14,2.8,2.59.59,5.13,1.27,7.59,1.94-.87-.1-1.75-.17-2.63-.19a20.48,20.48,0,0,0-8.82,1.62,56.29,56.29,0,0,0,8.76.74,46.86,46.86,0,0,0,8.8-.51C1623.93,674.38,1619.15,671.38,1613.69,670.15Z"/><path class="cls-23" d="M1728.07,741.71a333.15,333.15,0,0,1,88.44-38.11c-12.39-.55-23.72-.94-36.12-1.49C1764.42,714,1744,729.85,1728.07,741.71Z"/><path class="cls-23" d="M1353.12,691.45q64.55,27.82,129.1,55.59l-93.52-57.13C1379.1,690.36,1362.72,691,1353.12,691.45Z"/><path class="cls-23" d="M1735.88,769.36c31.16,10.66,63.28,24.43,94.44,35.09-3.5-8.15-7.77-17-11.27-25.17Z"/><path class="cls-23" d="M1733.59,810.19c22,22,44.88,49.72,66.84,71.71a71.81,71.81,0,0,0-.86-28.83Z"/><path class="cls-23" d="M1404.48,793c23.29-8.34,48.47-16.63,71.76-25l-110.08,13.07C1378,784.27,1392.63,789.75,1404.48,793Z"/><path class="cls-23" d="M1504.05,848.08c13.8-14.47,28.57-29.65,42.36-44.12l-81.86,49.6C1476.6,852.76,1492,848.88,1504.05,848.08Z"/><path class="cls-13" d="M1784.65,957.66a129.2,129.2,0,0,0-33.71-18.91l-18.53-7.14-111.58-8.16-70.29,41.27-8.34,4-27.32,53-56.52,18.79-81.6,16.59L1286,1145l52.73,4.55-2.94,21.65c-3.38,24.75,7.82,43.54,0,67.53l-13.18,72.12,103.48-81.28c17.66-11.6,28-29.69,28-48.88v-9.31l14.15-12.14,44.63-30.64c3.32-13.88,0-21.37,0-21.37l9.75-8.32,43.42-1.12,39.6.71a147.59,147.59,0,0,0,43.45-5.68l1-.3,34.45,111.36c10.06,32.51,36,59.62,71,74.23l17.21,11.43c.34-52.27-3.92-105.7,4.29-158.86l88.45-19-25.51-76.76C1830.21,1005.25,1811,978.5,1784.65,957.66Z"/><path class="cls-24" d="M1608.77,970.17l7.62-11.26a10.47,10.47,0,0,0-.67-12.77l-6.94-8.4c-3.72-4.51-10.57-6.16-16.45-4l-35.79,13.46a37,37,0,0,0-19.8,16.66l-31.26,57.82-53.07,20.61,29.94,60.71,58.34-31c19.23,3,38.9-2.79,51.94-15.39l14.78-14.28h16.66c5.7,0,11-2.73,13.63-7.09l6.44-10.48c4.56-7.41,3.33-16.5-3.08-22.81Z"/><path class="cls-25" d="M1606.14,955.26l-1.21-4.87-10.5,4.87,14.34,14.91-2.54-4.91A10.9,10.9,0,0,1,1606.14,955.26Z"/><polygon class="cls-25" points="1625.14 1032.81 1627.44 1019.22 1607.41 1042.34 1625.14 1032.81"/><path class="cls-25" d="M1470,1035.51l-17.57,6.83,29.94,60.71,32.53-17.31a69.41,69.41,0,0,0-13.81-27.25A83.62,83.62,0,0,0,1470,1035.51Z"/><path class="cls-12" d="M1448.74,1034.74,1364.17,1062,1416,1163l83.87-51.42C1499.09,1080.79,1479.16,1050.79,1448.74,1034.74Z"/><path class="cls-13" d="M1464.71,1101.59c-11,6-25.68,2.34-31.13-7.91-11.12-20.94-21.92-31.64-36.6-42.29L1364.17,1062,1416,1163l83.87-51.42a79.16,79.16,0,0,0-5.35-26.37Z"/><path class="cls-12" d="M1376.76,1057.11a27.7,27.7,0,0,0-19.06-4.65,258.26,258.26,0,0,0-74.31,20.36L1242.51,1091c-29,12.9-93.62,93.33-93.62,93.33-3.24,35.19,20,68.18,57.7,81.72l5.17,1.86c28.48,10.25,103.83-19.63,129.79-34l31.78-17.65a228.35,228.35,0,0,0,41.84-29.75l9.74-8.76a20,20,0,0,0,6.88-13.51C1434.35,1123.76,1413.15,1082.59,1376.76,1057.11Z"/><path class="cls-26" d="M1758.23,908.17l-11-7.63-20-3.75s11.26,27.24,28.91,39.42C1756.16,936.21,1772.54,919.15,1758.23,908.17Z"/><path class="cls-27" d="M1719.88,842.3c-7.42-24.06-10.82-47.68-24.38-69.64-24-6.28-46.83-26.14-72.35-34-23.31-7.16-49.68-2.86-63.91,2.22-31.39,10.68-49.73,32.6-74.3,49.63s-57,29.14-87.32,21.8c-2,7.92,3.38,16.62,11,21.32s17,6.63,26.14,8.33,18.55,3.37,26.47,7.68c24,13.06,26.9,45.67,52.24,56.63,11.76,5.09,25.73,4.14,38.67,2.11s26-5,39-3.68c19.06,2,35,12.87,51.34,21.55s36.77,15.53,54.35,8.86c10.72-4.07,18.27-12.44,27.08-19.11s23.44-11.72,34.27-7.86C1737.56,890.86,1727.3,866.36,1719.88,842.3Z"/><path class="cls-28" d="M1518.11,797.32c-15.66,12.8-33.73,23.13-48.52,30.46a117,117,0,0,0,27.11-8.68,127.61,127.61,0,0,0,27-16.66,113.89,113.89,0,0,0,21-22.2,86.25,86.25,0,0,0,11.78-22.85C1547,769.68,1533.9,784.62,1518.11,797.32Z"/><path class="cls-28" d="M1555.52,810.45A231.4,231.4,0,0,1,1574.39,783a111.7,111.7,0,0,0-43.86,58.13c-2,6.23-3.36,13-2.47,19.94a27,27,0,0,0,10.45,18.23,25.12,25.12,0,0,0,10.3,4.64,21.62,21.62,0,0,0,11-.75,18.56,18.56,0,0,0,8-5.1,10.56,10.56,0,0,0,2.84-7.26c-1.58,4.7-6.69,7.82-12.13,8.5a16.53,16.53,0,0,1-7.89-.73,18,18,0,0,1-6.61-4.21,21.15,21.15,0,0,1-6.12-14.06c-.31-5.35,1-11,2.79-16.78A168.49,168.49,0,0,1,1555.52,810.45Z"/><path class="cls-28" d="M1579.9,827.88a55.5,55.5,0,0,0-1.17,19.09,67.23,67.23,0,0,0,6.06,21.3,73.85,73.85,0,0,0,12.91,18.87A70.73,70.73,0,0,0,1614,900.05c-8.16-8.76-17.34-20.65-23.47-33.81A122.82,122.82,0,0,1,1579.9,827.88Z"/><path class="cls-28" d="M1510.94,882.37c2.89-9.69,6.25-22.15,10.41-34.42s9-24.36,12.56-33.87c-6.83,8-13.64,19.93-17.84,32.54S1510.17,872.39,1510.94,882.37Z"/><path class="cls-25" d="M1691.87,727c-19.39,2.17-33.21,17.37-31.1,34.2l2,15.88L1549,739.47l-18.54,4.44-.38.47a15.89,15.89,0,0,0,1.16,21.53l12.31,12.66,5.87,46.84,152-39.16L1691.87,727Z"/><path class="cls-24" d="M1700.48,809.41a59.06,59.06,0,0,0,.88-23.16V736.63a9.6,9.6,0,0,0-9.49-9.6c-15.72,2.73-26.79,15-26.1,28.83l1.53,30.57-118.32-47c-8.37-3.32-18.19.65-20.63,8.34a11.68,11.68,0,0,0,3.22,12l17.83,17.45v48.17c0,15.18,10.59,28.87,26.81,34.65l36.15,12.87,23.46,74.43,83.78-30.29-27.73-71.67Z"/><path class="cls-12" d="M1620.83,923.45l28.85,74.47,100.43-35.61-36.86-63.93C1664.64,890.62,1628.31,913.28,1620.83,923.45Z"/><path class="cls-13" d="M1689.05,945c-13.17,3.34-27.14-2.22-32.22-13.25l-11.5-25c-12.65,5.59-21.27,12.31-24.5,16.7l28.85,74.47,100.43-35.61L1737,939.64A178.45,178.45,0,0,0,1689.05,945Z"/><path class="cls-12" d="M1865.58,1111.69l-62.8-107a106.47,106.47,0,0,0-22.8-27l-18.06-15.41a21.57,21.57,0,0,0-13.7-5c-27.7-.26-75.9,9.27-100.79,34.36a16.13,16.13,0,0,0-4.85,12.95l1.81,18.73a92.05,92.05,0,0,0,6.37,25.79l47.36,116.84c7.59,18.72,60.92,75.47,60.92,75.47,50.91,34.88,99.84,21.23,99.84,21.23,63.29-22.88,38.35-93.68,38.35-93.68C1899.37,1155.21,1872.83,1124,1865.58,1111.69Z"/><path class="cls-29" d="M3423,1453.18c-10.71-77.71-13.21-156.75-10.21-235.33,1.49-38.87,4.21-77.73,8.22-116.35,2.92-28.2,18.17-58.52-8.94-77.31-12.38-8.58-27.36-9.79-41.72-10.36a717.67,717.67,0,0,0-126.32,6.21,718.58,718.58,0,0,0-124.5-6.62c-14.36.49-29.35,1.63-41.76,10.15-27.18,18.64-12.05,49-9.23,77.25,3.86,38.65,6.43,77.52,7.77,116.39,2.71,78.6-.1,157.62-11.1,235.28-18.17,128.18-59.47,253.39-128.84,354.43-1.9,2.78-3.94,6-3.55,9.52.32,2.79,2.09,5,3.85,6.93,18.2,20,42.68,29.7,66.61,37.7a782.4,782.4,0,0,0,243.46,40.64v-.31a782.42,782.42,0,0,0,236.63-39.31c24-7.89,48.48-17.48,66.76-37.36,1.76-1.91,3.54-4.12,3.87-6.91.41-3.53-1.62-6.75-3.51-9.53C3481.54,1706.88,3440.71,1581.46,3423,1453.18Z"/><path class="cls-30" d="M3157.16,1050.18c-4.1-13.46-8.43-25.54-12.44-37.42q-12.58,0-25.16.4c-14.36.49-29.35,1.63-41.76,10.15-27.18,18.64-12.05,49-9.23,77.25,3.86,38.65,6.43,77.52,7.77,116.39,2.71,78.6-.1,157.62-11.1,235.28-18.17,128.18-59.47,253.39-128.84,354.43-1.9,2.78-3.94,6-3.55,9.52.32,2.79,2.09,5,3.85,6.93,18.2,20,42.68,29.7,66.61,37.7a789.05,789.05,0,0,0,85.23,23.32c50.67-151,83.18-314.3,95.44-480.72,5.7-77.36,7-155.92-2.09-232.61C3177,1129.43,3168.91,1088.69,3157.16,1050.18Z"/><path class="cls-30" d="M3202.17,1154.29c-24.29-2.83-50.26-6.76-71.21-25.7-7.42-6.72-13-12.56-22.38-8.47-11.49,5-13.83,19.67-7.51,33.62a52.64,52.64,0,0,0,29.91,28.15c11.85,4.34,24.24,4.36,36.48,4.18,75.65-1.12,151.63-8.93,225.3-33.48C3329.26,1157.13,3265.54,1161.68,3202.17,1154.29Z"/><path class="cls-30" d="M3188,1410.86c-24.29-2.83-50.26-6.76-71.21-25.71-7.42-6.71-13-12.55-22.38-8.46-11.49,5-13.83,19.67-7.51,33.62a52.67,52.67,0,0,0,29.91,28.15c11.85,4.34,24.24,4.36,36.48,4.17,75.65-1.11,151.63-8.92,225.3-33.48C3315.11,1413.7,3251.39,1418.24,3188,1410.86Z"/><path class="cls-31" d="M3196.13,1739c-27.71-3-57.35-7-81.29-26.07-8.49-6.75-14.83-12.62-25.56-8.58-13.09,5-15.73,19.6-8.48,33.59,7.6,14.67,20.66,23.9,34.19,28.3s27.67,4.48,41.62,4.36c86.31-.73,173-8.16,256.94-32.34C3341.12,1742.48,3268.44,1746.7,3196.13,1739Z"/><ellipse class="cls-32" cx="3245.2" cy="1042.51" rx="191.5" ry="47.02"/><path class="cls-33" d="M3398.75,1544.69c-10.46-53.15-11.61-122-28.73-170.66-36.08,14,11.07,284.66,18.65,328.35,4.33,25,10.14,51.57,24.65,66.84s40.11,10.34,44.89-14.45c3.39-17.61-4.7-35-11.69-50.37C3424.23,1655.5,3409.75,1600.59,3398.75,1544.69Z"/><path class="cls-34" d="M3385.69,816c-3.46-8.51-2.8-19-2.54-28.83,2.06-79.61-33.58-158.48-85.32-188.78s-116-10-153.91,48.65c-8.56,13.25-18.77,29.79-31.11,25.94-5-1.56-9.18-6.4-13.21-10.94-53.88-60.62-123.23-92.75-191.85-88.88-38.85,2.2-84.46,25.2-92.72,79.31-1.56,10.22-1.8,21.54-6.46,29.63-10,17.27-29.32,6.2-42.76-5.31-60.35-51.68-127.24-90.06-197.23-101.14s-143.28,6.47-203.18,59.21A273.44,273.44,0,0,0,2288.24,750c-16.8,48.12-21.25,106.09-7.68,156.24,2.65,9.8,6,19.61,6,30.11,0,10.3-3.24,19.93-5.92,29.49-24.3,86.44-2.33,194.52,50.64,249.12,9.39,9.67,19.9,17.93,31.4,20,31.81,5.88,58.93-35.23,90.83-40.09,29.17-4.44,55.69,21.7,80.56,43.88s55.83,41.94,82.55,24.67c9.22-6,16.85-15.8,24.67-24.94,40.29-47.08,97.85,93.74,149.95,95.8s148.34,16.44,190.14-97.61c34.27-93.51,6.28-159.36,0-189.84S2954.6,995.2,2967.19,969c6.87-14.3,18.27-22.64,29.47-29.42,70.2-42.45,151.91-44.82,223.27-6.46,19.62,10.55,42,35.08,35,63.23-7,27.89-38.6,33.69-41.47,63,.85-10.19,104.34-.86,118-1.47,35.09-1.57,71.17-31.49,88.9-75,19.63-48.2,13.06-118.31-19.55-149.11C3395.32,828.55,3389,824.14,3385.69,816Z"/><path class="cls-23" d="M2808.59,1082.38a77.92,77.92,0,0,0-13-4h0a78.67,78.67,0,0,0-13.5-1.62c-34.31-1.19-65.87,20.22-72.12,52.78-.09.4-.2.8-.29,1.21a60.35,60.35,0,0,0-1.13,8.88c-1,10.63.09,18.18,2.31,24,5.42,14.16,17.62,17.91,23.12,30.84a1.07,1.07,0,0,1,.07.19,2.41,2.41,0,0,1,2-.51,2.49,2.49,0,0,1,1.92,2.95l-3.61,17.11c.07-.28.66.44,1.8,1,1.58.77,3.21,1.6,4.87,2.45l3.21,1.63a1.38,1.38,0,0,0,1,.21l4.25-20.18a2.49,2.49,0,1,1,4.87,1l-4.26,20.24a2.71,2.71,0,0,0,1.74,2.23,70.94,70.94,0,0,0,8.56,3,1.79,1.79,0,0,0,1.32-.13,1,1,0,0,0,.49-.65l4.49-21.3a2.49,2.49,0,1,1,4.87,1l-4.49,21.3a1,1,0,0,0,.19.78,1.71,1.71,0,0,0,1.15.67,71.58,71.58,0,0,0,9.08.69,2.72,2.72,0,0,0,2.48-1.33l4.26-20.25a2.5,2.5,0,0,1,3-1.91h0a2.49,2.49,0,0,1,1.91,3l-4.27,20.23a1,1,0,0,0,.32.1,2.8,2.8,0,0,0,.63,0l3.62-.2c1.86-.1,3.69-.21,5.49-.27a4.21,4.21,0,0,0,2.21-.64l3.4-16.67a2.49,2.49,0,0,1,3-1.92,2.37,2.37,0,0,1,1.61,1.26,1.92,1.92,0,0,1,.14-.15c10.25-9.6,22.93-8.11,33.6-18.87,4.37-4.41,8.4-10.88,11.79-21A59.77,59.77,0,0,0,2853,1161c.08-.41.14-.82.22-1.23C2860.68,1127.47,2840.45,1095.14,2808.59,1082.38Zm-60.66,69.93c-8.19-1.73-13.37-10-11.58-18.57s9.9-14,18.09-12.31,13.37,10,11.57,18.57S2756.12,1154,2747.93,1152.31Zm32.36,30.71-13-2.74a3.65,3.65,0,0,1-2.11-5.84l9.25-11.64a3.64,3.64,0,0,1,6.38,1.35l3.76,14.38A3.65,3.65,0,0,1,2780.29,1183Zm47.09-30.09c-1.8,8.53-9.9,14-18.09,12.32s-13.37-10-11.57-18.57,9.89-14,18.08-12.31S2829.17,1144.41,2827.38,1152.93Z"/><path class="cls-23" d="M3327.89,859.88c15.32-21.88,17.82-57.21,11.24-86.64-9.94-44.49-39.5-78.71-72.12-83.49s-66.44,20.15-82.54,60.83c29.47-25.44,71.13-17.25,94.65,18.62s26.41,95.62,6.56,135.74c18-9.78,39.34-10.68,55.52,4.11s24.43,47.77,14.61,71.31c-7,16.78-20.31,24.5-32.33,31.77,33.2-1.76,71.83-52.27,63.49-102.49C3381.09,874.24,3352.51,850.17,3327.89,859.88Z"/><path class="cls-23" d="M2804,978.57q-1.62,2.16-3.1,4.55A31.13,31.13,0,0,0,2804,978.57Z"/><path class="cls-23" d="M2837.33,914.87C2835.81,886,2822,860.11,2804,846.63s-39.47-15.49-59.37-9.67a78.92,78.92,0,0,0-42.49,30.19c-11.44,16-18.62,39-17.06,61.69-14.76-11.62-34.91-4.28-45.45,14.48s-11.65,46.38-4.45,68.1,21.8,37.51,37.92,44.58c-8-9.67-15-21.71-17.47-36.19s.88-31.63,9.84-39.32c6.25-5.38,14.08-5.44,21.28-3.69,11.69,2.83,22.83,10.09,32,20.81-7.66-17.38-6.43-41,1.29-58.33s21.1-28.59,35.17-33c15.79-5,33.86-1.08,45.21,15.32,10.29,14.88,12.45,41.12,3.57,57,15.1-20.3,38.82-26.37,58.35-15.82,20.92,11.29,36.26,40,39.95,71.4s-3.76,64.61-18.32,88.79c6.82-11.32,23.58-11.87,31.42-24.21,6.1-9.6,10.49-27.62,13.35-39.6,7.82-32.82,7.46-70.4-4.6-101.11C2907.62,916,2867.64,893.54,2837.33,914.87Z"/><path class="cls-23" d="M2531.18,829.32a34.74,34.74,0,0,0,5.75,4.13A40.48,40.48,0,0,0,2531.18,829.32Z"/><path class="cls-23" d="M2597.51,658.59c-34.62-13.05-72.72-1.31-102.54,26.93-12.23,11.59-23.59,26.59-28.83,46.13s-2.91,44.27,8.49,57.48c-23,.76-47.73,8-62.92,32.54-13.54,21.89-16.68,54.34-11.13,82.43S2419.39,956.17,2435,975c16.54,19.92,36.32,35,57.68,40.27s44.29.09,62.3-17.07c-26.8,9.09-57.13-.05-76.74-27.59s-26.1-73.87-12.53-108c12.5-31.44,42.39-47,65.43-33.31-15.38-13.48-23.56-42-20.32-67.69,7.27-57.66,51-74.72,86.42-70.11,30.25,3.94,53.62,37.33,73.28,67.78C2663.24,710.11,2630.58,671.05,2597.51,658.59Z"/><path class="cls-23" d="M3003,675.18c-2.5-19.46-14.89-34-28.25-39.42-17.5-7.15-37.43-.8-51.12,16.3s-20.72,44.39-18,70c6.61-21.77,23.46-37.44,39.91-33.73s29.53,29.25,24.81,52c8.8-17.16,24.71-24.05,39.63-24.38,21.56-.48,44.53,12.54,55,39.36s3.06,67.14-17.43,76.7c19.6-9.15,34.09-15.78,42.25-45,7.52-26.89,3.13-60.27-10.26-81.9C3061.15,675.51,3030.07,666.39,3003,675.18Z"/><path class="cls-29" d="M2967.71,1768.33c-10.71-77.71-13.22-156.75-10.21-235.33,1.49-38.87,4.21-77.73,8.21-116.35,2.93-28.2,18.18-58.52-8.93-77.31-12.39-8.58-27.36-9.79-41.72-10.36a717.67,717.67,0,0,0-126.32,6.21,718.58,718.58,0,0,0-124.5-6.62c-14.37.49-29.35,1.63-41.77,10.15-27.17,18.64-12,49-9.22,77.25,3.86,38.65,6.43,77.52,7.77,116.39,2.71,78.6-.1,157.62-11.1,235.28-18.17,128.18-59.47,253.39-128.84,354.43-1.91,2.78-3.95,6-3.55,9.52.31,2.79,2.09,5,3.84,6.93,18.21,20,42.69,29.7,66.62,37.71a782.68,782.68,0,0,0,243.46,40.63v-.31a782.43,782.43,0,0,0,236.64-39.31c24-7.89,48.47-17.48,66.76-37.36,1.75-1.91,3.54-4.12,3.86-6.91.41-3.53-1.61-6.75-3.51-9.53C3026.22,2022,2985.39,1896.61,2967.71,1768.33Z"/><path class="cls-30" d="M2701.84,1365.33c-4.11-13.46-8.43-25.54-12.45-37.42q-12.57,0-25.15.4c-14.37.49-29.35,1.63-41.77,10.15-27.17,18.64-12,49-9.22,77.25,3.86,38.65,6.43,77.52,7.77,116.39,2.71,78.6-.1,157.62-11.1,235.28-18.17,128.18-59.47,253.39-128.84,354.43-1.91,2.78-3.95,6-3.55,9.52.31,2.79,2.09,5,3.84,6.93,18.21,20,42.69,29.7,66.62,37.71a790.67,790.67,0,0,0,85.23,23.31c50.67-151,83.17-314.3,95.43-480.72,5.7-77.36,7-155.92-2.09-232.61C2721.63,1444.58,2713.59,1403.84,2701.84,1365.33Z"/><path class="cls-30" d="M2746.85,1469.44c-24.3-2.83-50.26-6.76-71.21-25.7-7.42-6.72-13-12.56-22.38-8.47-11.49,5-13.83,19.67-7.51,33.62a52.67,52.67,0,0,0,29.91,28.15c11.85,4.34,24.24,4.36,36.47,4.18,75.66-1.12,151.63-8.93,225.31-33.48C2873.94,1472.28,2810.21,1476.83,2746.85,1469.44Z"/><path class="cls-31" d="M2732.7,1726c-24.3-2.83-50.27-6.76-71.21-25.71-7.42-6.71-13-12.55-22.38-8.46-11.49,5-13.83,19.67-7.51,33.62a52.67,52.67,0,0,0,29.91,28.15c11.85,4.34,24.24,4.36,36.47,4.18,75.66-1.12,151.63-8.93,225.31-33.49C2859.79,1728.85,2796.06,1733.39,2732.7,1726Z"/><path class="cls-31" d="M2740.81,2054.15c-27.72-3-57.35-7-81.29-26.07-8.49-6.75-14.84-12.62-25.56-8.58-13.09,5-15.73,19.6-8.48,33.59,7.6,14.67,20.66,23.9,34.19,28.3s27.66,4.48,41.62,4.36c86.31-.73,172.95-8.16,256.94-32.34C2885.8,2057.63,2813.12,2061.85,2740.81,2054.15Z"/><ellipse class="cls-32" cx="2789.87" cy="1357.66" rx="191.5" ry="47.01"/><path class="cls-33" d="M2943.43,1859.84c-10.46-53.15-11.62-122-28.73-170.66-36.09,14,11.07,284.66,18.65,328.35,4.33,25,10.13,51.57,24.65,66.84s40.11,10.34,44.88-14.45c3.4-17.61-4.7-35.05-11.68-50.37C2968.9,1970.65,2954.42,1915.74,2943.43,1859.84Z"/><path class="cls-35" d="M3049.65,1237.88c-.28-2.38-1.82-4.38-4.4-4.41-2.16,0-4.68,2-4.4,4.41a1317.46,1317.46,0,0,1,9,176.94q-.42,25-1.8,49.91c-.31,5.66,8.5,5.64,8.81,0a1317.56,1317.56,0,0,0-2.23-177.16Q3052.6,1262.69,3049.65,1237.88Z"/><path class="cls-35" d="M3073.45,1527.31c-2.07-.93-4.31-1.66-6-3.19-4.48-4.09-2.94-11.44-.45-17s5.62-11.75,3.25-17.33c-2.13-5-8-7.36-13.4-8.16-3.79-.56-8-.53-11.06,1.76-6.07,4.54-.67,10.64.1,15.88,1.19,8-.94,18-1.38,26.07-.23,4.14-.11,9,3.29,11.4,3,2.07,7,1.15,10.59,1.33a16.51,16.51,0,0,1,3.2,32.51,22.93,22.93,0,0,1-9.19.16c-6.14-1-12.18-3.66-16.25-8.37s-5.82-11.62-3.5-17.39c-7.19,5.28-9.85,15.47-7.32,24s9.6,15.32,17.83,18.75c16.22,6.76,37.2-.25,45.28-15.85S3089.49,1534.47,3073.45,1527.31Z"/><path class="cls-35" d="M3090.32,1433.48a9.91,9.91,0,0,0-5-1.74c-12.14-1.79-57.54-6.45-64,6.31-3.25,6.42,4.13,21.51,5.83,27.49q5.49,19.32,10.91,38.65a3.38,3.38,0,0,0,3.82,3.12l29.21,2.17c2,.14,4.17.21,5.63-1.12a7.14,7.14,0,0,0,1.68-3.08,285.59,285.59,0,0,0,14.05-62.36C3092.85,1439.56,3092.93,1435.62,3090.32,1433.48Z"/><polygon class="cls-36" points="3720.39 1257.66 3637.98 1174.32 3720.36 1091.72 3705.22 1076.62 3615.35 1166.73 3615.32 1181.8 3698.32 1265.74 3614.76 1364.48 3615.78 1379.35 3697.09 1452.29 3615.5 1530.88 3615.84 1546.59 3696.67 1618.06 3621.62 1684.7 3622.18 1701.15 3696.68 1758.67 3615.33 1840.63 3616.24 1856.51 3696.79 1920.95 3615.36 2002.42 3630.47 2017.53 3720.35 1927.62 3719.47 1911.72 3638.88 1847.25 3720.38 1765.14 3719.32 1749.15 3645.46 1692.12 3719.89 1626.04 3719.87 1610.04 3638.67 1538.24 3720.21 1459.71 3719.93 1444.05 3637.78 1370.37 3720.95 1272.08 3720.39 1257.66"/><path class="cls-36" d="M3614.33,2038.28h107.05V1057.6H3614.33Zm17.17-963.51h72.71v946.34H3631.5Z"/><polygon class="cls-36" points="3803.05 1194.42 3740.54 1236.88 3661.09 1194.03 3653.47 1194.49 3597.64 1233.79 3533.02 1194.23 3525.44 1194.24 3455.96 1236.94 3380.03 1194.1 3372.71 1194.21 3301.82 1237.16 3207.59 1193.83 3201.13 1194.03 3120.94 1237.11 3041.47 1194.04 3034.56 1206.79 3117.47 1251.73 3124.36 1251.74 3204.81 1208.51 3299.26 1251.94 3306.04 1251.55 3376.59 1208.81 3452.56 1251.67 3459.91 1251.53 3529.24 1208.92 3594.13 1248.64 3602.09 1248.38 3658.15 1208.92 3737.53 1251.73 3745.04 1251.35 3807.54 1208.89 3886.39 1251.72 3893.31 1238.98 3810.58 1194.05 3803.05 1194.42"/><path class="cls-36" d="M3015.65,1251.18h898.17v-56.59H3015.65Zm11.64-44.94h874.88v33.29H3027.29Z"/><polygon class="cls-35" points="2955.43 1245.35 2955.43 1273.17 3157.78 1273.17 3157.78 1183.48 3013.24 1183.48 2955.43 1245.35"/><polygon class="cls-35" points="3607.08 953.71 3607.08 1070.82 3728.63 1070.82 3728.63 881.07 3693.52 881.82 3607.08 953.71"/><rect class="cls-35" x="3566.75" y="2015.28" width="206.82" height="632.63"/><path class="cls-37" d="M2246.6,2306.35h467l19.59-528.45c-19.59.9-447.38,11-447.38,11Z"/><path class="cls-38" d="M2042.16,2616h467l19.6-528.46c-19.6.91-447.39,11.06-447.39,11.06Z"/><path class="cls-39" d="M3243.89,2616l265.54,16,42.43-867.59s-297.05-70.73-308-72.73Z"/><rect class="cls-40" x="2509.13" y="1691.67" width="734.76" height="924.32"/><polygon class="cls-7" points="2436.73 1660.67 2455.59 1736.11 3261.88 1721.96 3591.94 1795.05 3617.88 1750.25 3287.82 1634.73 2436.73 1660.67"/><path class="cls-35" d="M2717.28,2316.07c2.36,4.72,30.65,299.92,30.65,299.92h313.56l23.57-299.92S2714.93,2311.36,2717.28,2316.07Z"/><polygon class="cls-41" points="2747.93 2615.99 2783.27 2615.99 2748.3 2341.39 3082.94 2343.13 3085.06 2316.07 2717.28 2316.07 2747.93 2615.99"/><path class="cls-41" d="M2889.94,2331.53,2901.17,2616h20.15s-16.14-281.77-20.15-284.46Z"/><path class="cls-42" d="M3066.28,2083.1h117.11s19.52-294.55,19.52-306l-136.63,17.91Z"/><path class="cls-34" d="M3085.06,2067.27l84.33-5.58s12.27-256.5,12.27-259.85l-96.6,8.93Z"/><path class="cls-42" d="M2797.05,2087.53h117.11s19.52-294.55,19.52-306l-136.63,17.91Z"/><path class="cls-34" d="M2815.83,2071.71l84.33-5.58s12.27-256.5,12.27-259.85l-96.6,8.92Z"/><path class="cls-42" d="M2560.88,2098.59H2678s19.52-294.55,19.52-306l-136.63,17.91Z"/><path class="cls-34" d="M2579.67,2082.76l84.32-5.57s12.27-256.51,12.27-259.85l-96.59,8.92Z"/><polygon class="cls-42" points="3463.26 1880.71 3522.12 1891.5 3527.02 1827.74 3463.26 1806.28 3463.26 1880.71"/><polygon class="cls-42" points="3354.37 1855.2 3422.06 1867.96 3422.06 1795.05 3354.37 1770.84 3354.37 1855.2"/><polygon class="cls-42" points="3261.18 1834.61 3316.11 1844.41 3316.11 1763.97 3261.18 1744.35 3261.18 1834.61"/><polygon class="cls-40" points="3476.99 1875.81 3511.32 1875.81 3516.23 1835.59 3476.99 1823.81 3476.99 1875.81"/><polygon class="cls-40" points="3368.1 1844.41 3410.28 1849.81 3410.28 1801.85 3368.1 1792.63 3368.1 1844.41"/><polygon class="cls-40" points="3271.97 1821.22 3304.34 1828.72 3304.34 1770.84 3271.97 1759.07 3271.97 1821.22"/><path class="cls-43" d="M2357.11,2616h152V2087.53c0,.6-166.37,4.78-166.37,4.78Z"/><rect class="cls-42" x="2289.66" y="2127.51" width="24.8" height="154.78"/><rect class="cls-42" x="2224.55" y="2127.51" width="24.8" height="154.78"/><rect class="cls-42" x="2158.22" y="2127.51" width="24.8" height="154.78"/><rect class="cls-42" x="2104.17" y="2127.51" width="24.8" height="154.78"/><path class="cls-23" d="M3188.78,1827.36h0l-.11,0Z"/><path class="cls-23" d="M3224.19,1826.82a31.84,31.84,0,0,1-7.61,2.31l.12,0-.16,0h0a67,67,0,0,1-15.87.69h0l-.29,0,.25,0a51,51,0,0,1-6.26-.9,44.64,44.64,0,0,1-5.68-1.57h0l-.12,0,.11,0a53.57,53.57,0,0,1-6.06-2.55,50.44,50.44,0,0,1-5.76-3.38l.06,0-.09-.06,0,0-.11-.08.11.08a55.67,55.67,0,0,1-4.91-3.87,48.82,48.82,0,0,1-4.32-4.43l0,0-.08-.1-.06-.07a.08.08,0,0,0,0,0,39,39,0,0,1-5.43-8.41v0l0-.09,0-.07v0c-.28-.64-.56-1.29-.81-2a.71.71,0,0,0-.64-.46l-.19,0a.68.68,0,0,0-.44.84,44.23,44.23,0,0,0,2.61,5.63,41.28,41.28,0,0,0,3.48,5.26,46.23,46.23,0,0,0,9.08,8.88,49.86,49.86,0,0,0,11.09,6.25,45.55,45.55,0,0,0,6,1.93,43,43,0,0,0,6.16,1,53.53,53.53,0,0,0,6.7.24,47.14,47.14,0,0,0,6.81-.65c1.06-.19,2.11-.4,3.15-.64s2.24-.58,3.35-.92a47.77,47.77,0,0,0,6-2.31.44.44,0,0,0,.27-.53A.41.41,0,0,0,3224.19,1826.82Z"/><path class="cls-23" d="M3177,1821.42l0,0h0Z"/><path class="cls-23" d="M3200.75,1829.82h0l-.25,0Z"/><path class="cls-23" d="M3216.7,1829.11l-.12,0h0Z"/><path class="cls-23" d="M3162.16,1804.58a.36.36,0,0,1,0-.09l0,0Z"/><path class="cls-23" d="M3176.92,1821.4h0Z"/><path class="cls-23" d="M3167.66,1813.08l-.07-.09,0,0Z"/><path class="cls-23" d="M3176.91,1821.39h0Z"/><path class="cls-23" d="M3176.89,1821.38h0l-.11-.08Z"/><path class="cls-23" d="M3133.78,1831l-.05,0h0Z"/><path class="cls-23" d="M3133.73,1831.08l-.05,0,0,0Z"/><path class="cls-23" d="M3154,1811.35a.86.86,0,0,0-.07.1.35.35,0,0,0,0-.08A0,0,0,0,0,3154,1811.35Z"/><path class="cls-23" d="M3114.2,1842h0l-.21.09Z"/><path class="cls-23" d="M3160.26,1801.73l-.15,0a.59.59,0,0,0-.52.4l-.18.42v0a42,42,0,0,1-5.45,8.85l.05,0-.07.07a.71.71,0,0,1-.1.14l.05-.06c-1.52,1.9-3.13,3.72-4.79,5.5s-3.32,3.49-5,5.18a104,104,0,0,1-10.29,8.91l.06,0-.11.07,0,0-.13.1.1-.07a86.49,86.49,0,0,1-19.51,10.91h0l-.24.1.21-.09a84.2,84.2,0,0,1-21.11,5.27H3093c-2.27.23-4.55.38-6.85.42a.53.53,0,0,0,0,1,96.88,96.88,0,0,0,13.19-1c2.16-.32,4.3-.73,6.42-1.21s4.19-1.07,6.24-1.74a83.43,83.43,0,0,0,23.06-11.7,84.38,84.38,0,0,0,14.62-13.17,78.64,78.64,0,0,0,6.47-8.1,33,33,0,0,0,4.51-9.45A.54.54,0,0,0,3160.26,1801.73Z"/><path class="cls-23" d="M3098.38,1870.19v0a.69.69,0,0,1,0,.13A.88.88,0,0,1,3098.38,1870.19Z"/><path class="cls-23" d="M3097.43,1863.11a52.15,52.15,0,0,0-4.61-8,33.79,33.79,0,0,0-3.12-3.74,22.43,22.43,0,0,0-3.42-3,.48.48,0,0,0-.23-.07.44.44,0,0,0-.36.19.44.44,0,0,0,.13.59,16.32,16.32,0,0,1,1.34,1,20.93,20.93,0,0,1,3.31,3.78,62.28,62.28,0,0,1,4.43,7.95,82.15,82.15,0,0,1,3.48,8.35v0l0-.08,0,.08a.88.88,0,0,0,0,.15.69.69,0,0,0,0-.13A86.75,86.75,0,0,1,3103,1892a75.52,75.52,0,0,1-1.11,19.91v0a59.86,59.86,0,0,1-4.64,14l0,0q-1.12,2.29-2.46,4.49a.85.85,0,0,0,.24,1.17.86.86,0,0,0,1.17-.25c9.17-15,10.58-33.59,7.09-50.49A79.28,79.28,0,0,0,3097.43,1863.11Zm-7-9.3.07.1Z"/><path class="cls-23" d="M3095.38,1933.14l.12,0h0Z"/><path class="cls-23" d="M3121,1934.71l.21,0h0Z"/><path class="cls-23" d="M3153.72,1950.23h0l.12.11Z"/><path class="cls-23" d="M3160.1,1955.08a53.75,53.75,0,0,0-4.1-4.56,58.29,58.29,0,0,0-9.48-7.6,68.36,68.36,0,0,0-10.91-5.66,81.32,81.32,0,0,0-11.81-3.82,89.39,89.39,0,0,0-14.36-2.25c-1.22-.09-2.45-.15-3.68-.18-.9,0-1.81-.06-2.71-.06l-1.41,0a18.55,18.55,0,0,0-7.81,1.66.54.54,0,0,0-.25.7.53.53,0,0,0,.69.25c.41-.18.81-.33,1.23-.47l-.12,0,.14,0h0a16.24,16.24,0,0,1,3.67-.58,55.86,55.86,0,0,1,5.93.19c1.8.13,3.6.24,5.41.41a99.41,99.41,0,0,1,10.7,1.63l-.21,0,.24,0h0a81.16,81.16,0,0,1,19.34,6.63,62,62,0,0,1,13.19,8.85h0l.14.12-.12-.11a50.26,50.26,0,0,1,8.43,9.8s0,0,0-.08c.13.21.26.42.4.63a.6.6,0,0,0,.8.3.6.6,0,0,0,.29-.8A53,53,0,0,0,3160.1,1955.08ZM3099,1932.53h0Z"/><path class="cls-23" d="M3199.35,1922a.91.91,0,0,0,.16-.11l-.13.1Z"/><path class="cls-23" d="M3165.93,1960.6l0,0a.61.61,0,0,0,.05-.12Z"/><path class="cls-23" d="M3240,1906.33c-.92,0-1.84-.08-2.76-.08a53.13,53.13,0,0,0-10.07,1,68.14,68.14,0,0,0-12.88,3.92c-2.14.88-4.22,1.87-6.28,2.92s-4.1,2.2-6.08,3.42a103.54,103.54,0,0,0-11.31,8.11,92.48,92.48,0,0,0-8.23,7.61q-1.83,1.93-3.54,4c-1.3,1.56-2.56,3.17-3.82,4.77a88.21,88.21,0,0,0-7.05,10.21,40,40,0,0,0-2.61,5.39,27.89,27.89,0,0,0-1,3c-.12.46-.22.93-.32,1.4s-.2,1.13-.34,1.69a.47.47,0,0,0,.89.27,13,13,0,0,1,.58-1.62c.23-.58.48-1.15.74-1.72l0,0,.08-.17a.61.61,0,0,1-.05.12,63.9,63.9,0,0,1,4.63-8.48,96,96,0,0,1,5.84-7.91l-.2.24c1.72-2.11,3.46-4.2,5.27-6.24s3.49-3.79,5.33-5.6,3.92-3.7,6-5.45,4.3-3.47,6.54-5.09l0,0,.06,0,.2-.15-.07.05a99.3,99.3,0,0,1,9.74-6.11,79.6,79.6,0,0,1,10.52-4.77l-.22.08.22-.08h0a56.51,56.51,0,0,1,14.22-3.28l-.19,0a42.39,42.39,0,0,1,6.17-.09.69.69,0,0,0,.7-.65A.67.67,0,0,0,3240,1906.33Z"/><path class="cls-23" d="M3219.55,1911.11l.22-.08h0Z"/><path class="cls-23" d="M3240.2,1906.31a23,23,0,0,1-3.53-2.22l.06.06-.1-.08,0,0a34.17,34.17,0,0,1-3.17-2.84c-.54-.54-1.07-1.1-1.57-1.67s-.93-1.1-1.37-1.66l0,0a50.16,50.16,0,0,1-3.83-5.84,59.47,59.47,0,0,1-3.1-6.31l0,0,0-.06v0a68.51,68.51,0,0,1-4.48-16.64v0l0-.26a2,2,0,0,0,0,.24,74.62,74.62,0,0,1-.05-20h0a68.36,68.36,0,0,1,4.45-16.82s0,0,0,.06c.67-1.6,1.4-3.15,2.21-4.67a.55.55,0,0,0-.2-.76.53.53,0,0,0-.28-.07.51.51,0,0,0-.47.27,68.53,68.53,0,0,0-5,11.94c-.66,2.12-1.21,4.28-1.66,6.46s-.77,4.4-1,6.61-.41,4.51-.46,6.77,0,4.51.17,6.77.43,4.47.77,6.69a60.65,60.65,0,0,0,1.39,6.53,62.77,62.77,0,0,0,2.94,8.43,48,48,0,0,0,4.38,8,36.38,36.38,0,0,0,5.91,6.72,28.25,28.25,0,0,0,3.4,2.56c1.32.85,2.68,1.66,4.08,2.38a.42.42,0,0,0,.58-.15A.43.43,0,0,0,3240.2,1906.31Zm-21-57.37s0,.06,0,.09S3219.17,1849,3219.17,1848.94Zm4.52,36.92.08.18Z"/><path class="cls-23" d="M3236.73,1904.15l-.06-.06,0,0Z"/><path class="cls-23" d="M3223.69,1885.85l0,0v0Z"/><path class="cls-23" d="M3219.14,1849.15h0Z"/><path class="cls-23" d="M3219.19,1869.19v0a2,2,0,0,1,0-.24Z"/><path class="cls-23" d="M3201.61,1842.32h-.16Z"/><path class="cls-23" d="M3182.18,1839.68h0l-.08,0Z"/><path class="cls-23" d="M3165.69,1828.36l0,0-.07-.08Z"/><path class="cls-23" d="M3206.62,1840.77l-.51.24.06,0a17.6,17.6,0,0,1-2.2.81c-.37.11-.74.19-1.11.27s-.91.19-1.36.27h.11l-.16,0h.05a31.51,31.51,0,0,1-7.58.08,48.09,48.09,0,0,1-11.77-2.74h0l-.11,0,.08,0a43.7,43.7,0,0,1-10.08-5.35,35.38,35.38,0,0,1-6.41-6l0,0-.1-.12.07.08a29.42,29.42,0,0,1-2-2.82,26.16,26.16,0,0,1-1.72-3.22l0,0-.06-.12,0,.09c-.06-.14-.11-.27-.17-.4a.55.55,0,0,0-.26-.32.57.57,0,0,0-.25-.06.41.41,0,0,0-.16,0,.54.54,0,0,0-.36.67c.35.83.74,1.65,1.17,2.45a26.45,26.45,0,0,0,1.56,2.61,32.13,32.13,0,0,0,3.64,4.5,34.7,34.7,0,0,0,4.48,3.9,40.59,40.59,0,0,0,5,3.2,45.24,45.24,0,0,0,11.22,4.21,42.8,42.8,0,0,0,5.77.92,25.12,25.12,0,0,0,6.54-.15,20.85,20.85,0,0,0,3.58-.9,34,34,0,0,0,3.35-1.43.42.42,0,0,0,.14-.58A.43.43,0,0,0,3206.62,1840.77Z"/><path class="cls-23" d="M3162,1822.31l0,0,0-.09Z"/><path class="cls-23" d="M3168.42,1850.23l-.06,0,0,0A.27.27,0,0,1,3168.42,1850.23Z"/><path class="cls-23" d="M3190.5,1854.88a.59.59,0,0,0-.45.07l-.09,0a14.74,14.74,0,0,1-3,.83,18.25,18.25,0,0,1-4.37.08,28.11,28.11,0,0,1-6.77-1.63,34.16,34.16,0,0,1-3.84-1.77,34.63,34.63,0,0,1-3.65-2.32l.06,0a.27.27,0,0,0-.08-.07l0,0a25.65,25.65,0,0,1-4.6-4.29h0a15.35,15.35,0,0,1-1.81-2.84.42.42,0,0,0-.37-.2.43.43,0,0,0-.22.06.43.43,0,0,0-.14.58,21.86,21.86,0,0,0,4.89,6.33,27.9,27.9,0,0,0,3.51,2.72,32.51,32.51,0,0,0,4.23,2.38,30.81,30.81,0,0,0,4.26,1.61,23.11,23.11,0,0,0,4.52.85,17.54,17.54,0,0,0,4.16-.16,14,14,0,0,0,1.92-.44,16.77,16.77,0,0,0,2-.8.62.62,0,0,0,.21-.84A.61.61,0,0,0,3190.5,1854.88Zm-7.79,1h0Z"/><path class="cls-23" d="M3176.63,1864.68c-.27.1-.53.19-.81.27a6.64,6.64,0,0,1-1,.23h0l-.08,0h0a10,10,0,0,1-1.23.1,9,9,0,0,1-1.16,0,13.92,13.92,0,0,1-1.57-.27,13,13,0,0,1-1.5-.47,17,17,0,0,1-1.88-.89,22.09,22.09,0,0,1-2.11-1.34l.11.07a24.49,24.49,0,0,1-3.09-2.66.39.39,0,0,0-.28-.12.42.42,0,0,0-.32.13.44.44,0,0,0,0,.6c.49.51,1,1,1.52,1.51s1.1,1,1.68,1.44a17.9,17.9,0,0,0,3.64,2.24,11.19,11.19,0,0,0,3.92,1.09,8.22,8.22,0,0,0,2.14-.06,9.27,9.27,0,0,0,2.31-.67.65.65,0,0,0,.37-.3.59.59,0,0,0,.05-.47A.63.63,0,0,0,3176.63,1864.68Zm-4.4.57h0Z"/><path class="cls-23" d="M3174.84,1865.18h0Z"/><path class="cls-23" d="M3157.33,1827l0,.06h0S3157.31,1827.06,3157.33,1827Z"/><path class="cls-23" d="M3157.29,1827.1a.08.08,0,0,1,0,0,.08.08,0,0,0,0,0Z"/><path class="cls-23" d="M3137.68,1848.11l-.12.07,0,0Z"/><path class="cls-23" d="M3149.2,1838.46s0,0,0,0h0A.12.12,0,0,0,3149.2,1838.46Z"/><path class="cls-23" d="M3113,1856.4h0Z"/><path class="cls-23" d="M3160.24,1820.3h0a.56.56,0,0,0-.54.49,3.59,3.59,0,0,1-.11.57h0c-.1.44-.22.87-.35,1.3s-.32,1-.5,1.43a26.4,26.4,0,0,1-1.36,3s0,0,0,0a.93.93,0,0,0,0,.1h0l0,.06v0a56.87,56.87,0,0,1-8.11,11.36s0,0,0,0a.12.12,0,0,1,0,0h0a60.81,60.81,0,0,1-11.6,9.68l.12-.07-.14.09,0,0c-1,.63-2,1.24-3,1.82s-2.16,1.15-3.26,1.68a54,54,0,0,1-7,2.72l.09,0-.13,0,0,0a47.61,47.61,0,0,1-5.63,1.37,41.39,41.39,0,0,1-5.65.63h0c-1.25,0-2.49,0-3.74,0a.42.42,0,0,0-.46.38.43.43,0,0,0,.38.47,43.12,43.12,0,0,0,6.12-.08,45.78,45.78,0,0,0,6.26-1,55,55,0,0,0,12.05-4.36,60.86,60.86,0,0,0,10.94-7,57.49,57.49,0,0,0,9-9,42.43,42.43,0,0,0,4.32-6.53,30.23,30.23,0,0,0,1.83-4.12,18.42,18.42,0,0,0,.59-2.05c.09-.35.16-.69.22-1s.1-.78.15-1.17A.54.54,0,0,0,3160.24,1820.3Z"/><path class="cls-23" d="M3124.39,1854.38l-.09,0,0,0Z"/><path class="cls-23" d="M3152.25,1854.91l0,0h0Z"/><path class="cls-23" d="M3144,1860.58l0,0-.09.05Z"/><path class="cls-23" d="M3160.47,1843.3h-.07a.44.44,0,0,0-.42.35,1.31,1.31,0,0,0-.05.15,22.78,22.78,0,0,1-2.33,4.88l0,0,0,0a.35.35,0,0,0,0,.08l0-.06a32.68,32.68,0,0,1-5.37,6.25l0,0,0,0-.08.07.08-.07h0a39.49,39.49,0,0,1-8.26,5.65l0,0-.13.07.09-.05a34.81,34.81,0,0,1-8.28,3h0a25,25,0,0,1-6,.52h-.06l-.33,0a.45.45,0,0,0-.52.35.44.44,0,0,0,.36.52,25.07,25.07,0,0,0,4.5-.1,31.36,31.36,0,0,0,4.89-1,35.37,35.37,0,0,0,5-1.85,40.31,40.31,0,0,0,4.71-2.54,34.1,34.1,0,0,0,8.05-7,24.76,24.76,0,0,0,2.8-4.2c.37-.7.7-1.42,1-2.15a21.5,21.5,0,0,0,.76-2.31A.43.43,0,0,0,3160.47,1843.3Z"/><polygon class="cls-23" points="3135.68 1863.56 3135.67 1863.56 3135.67 1863.56 3135.68 1863.56"/><path class="cls-23" d="M3129.64,1864.08h0Z"/><path class="cls-23" d="M3152.08,1868.71l-.08,0h0Z"/><path class="cls-23" d="M3147.52,1870.31l-.09,0h0Z"/><path class="cls-23" d="M3161.25,1859.86a.42.42,0,0,0-.22,0,.53.53,0,0,0-.46.28,17.58,17.58,0,0,1-1,1.86,20.45,20.45,0,0,1-3.35,4c-.59.51-1.2,1-1.84,1.45a20,20,0,0,1-2.36,1.39l.08,0-.09,0h0c-.72.34-1.44.65-2.18.92a19.65,19.65,0,0,1-2.39.66l.09,0-.11,0h0l-.65.11a.42.42,0,1,0,.06.84q1-.15,2.07-.39a20,20,0,0,0,2.39-.74,19.68,19.68,0,0,0,4.28-2.32,19.13,19.13,0,0,0,3.41-3.13,16.27,16.27,0,0,0,1.38-1.94,14.53,14.53,0,0,0,1.12-2.23A.51.51,0,0,0,3161.25,1859.86Zm-5,6,0,0Z"/><path class="cls-23" d="M3114.1,1869.71v0h0Z"/><path class="cls-23" d="M3114.11,1869.73l0,.07,0-.07Z"/><path class="cls-23" d="M3120.3,1886.21a62.08,62.08,0,0,0-1.44-7.13,59.87,59.87,0,0,0-2.31-7,56.19,56.19,0,0,0-3.11-6.56,45.26,45.26,0,0,0-3.75-5.74,13.54,13.54,0,0,0-4.72-4,.57.57,0,0,0-.22,0,.44.44,0,0,0-.4.23.45.45,0,0,0,.19.61c.36.2.71.41,1.06.65a13.87,13.87,0,0,1,1.1.93,15,15,0,0,1,1.21,1.31,40.74,40.74,0,0,1,3.23,4.77,59.64,59.64,0,0,1,3,5.59v0a.37.37,0,0,0,0,.11v0a64.61,64.61,0,0,1,4.86,16h0a72,72,0,0,1,.79,7.6,57.82,57.82,0,0,1-.15,8.73l0-.14c-.13,1.19-.29,2.36-.5,3.52-.12.64-.26,1.27-.41,1.89a14.49,14.49,0,0,1-.5,1.58c-.82,2.11-2.05,4-3,6a.43.43,0,0,0,.16.58.44.44,0,0,0,.58-.17c.51-1,1.07-2,1.62-3a27.56,27.56,0,0,0,1.59-3.28,20.81,20.81,0,0,0,.94-3.37c.28-1.38.48-2.77.62-4.16a56.31,56.31,0,0,0,.21-7.9A65.24,65.24,0,0,0,3120.3,1886.21Z"/><path class="cls-23" d="M3114.14,1869.8s0,0,0,0h0Z"/><path class="cls-23" d="M3127.44,1865.05h0l.08.08Z"/><path class="cls-23" d="M3134.26,1881.27s0,.09,0,.14v0Z"/><path class="cls-23" d="M3133,1872.05a28.09,28.09,0,0,0-2.22-4.2c-.4-.62-.84-1.22-1.28-1.8s-1-1.17-1.5-1.73a.35.35,0,0,0-.29-.12.5.5,0,0,0-.35.14.47.47,0,0,0,0,.64l.07.07h0l.08.08-.08-.08a24.62,24.62,0,0,1,1.9,2.65,27.88,27.88,0,0,1,1.72,3.18h0a42.12,42.12,0,0,1,1.88,4.91,41.39,41.39,0,0,1,1.34,5.62c0-.05,0-.09,0-.14l0,.17v0a43.23,43.23,0,0,1,.41,11.13.77.77,0,0,1,0-.15.89.89,0,0,0,0,.15h0a31.35,31.35,0,0,1-1.62,7.41.51.51,0,0,0,.06.4.54.54,0,0,0,.7.16.57.57,0,0,0,.23-.32,34.33,34.33,0,0,0,1.88-8.85,42.36,42.36,0,0,0-.35-9.87A37.54,37.54,0,0,0,3133,1872.05Zm-2-1.31,0,.07Z"/><path class="cls-23" d="M3134.71,1892.39a.77.77,0,0,0,0,.15h0A.89.89,0,0,1,3134.71,1892.39Z"/><path class="cls-23" d="M3149.43,1879.43v0Z"/><path class="cls-23" d="M3146.8,1873v0l.05,0Z"/><path class="cls-23" d="M3150.05,1876.67a13.19,13.19,0,0,0-.73-1.87,10,10,0,0,0-1.07-1.71,8.25,8.25,0,0,0-1.47-1.54.46.46,0,0,0-.33-.13.44.44,0,0,0-.35.15.49.49,0,0,0,0,.68,9.47,9.47,0,0,1,.69.73v0l.06.07-.05,0a11.35,11.35,0,0,1,.76,1.06,11.63,11.63,0,0,1,.59,1.1s0,0,0-.05l0,.07,0,.08s0,0,0,0a19,19,0,0,1,1.24,4.23v0a.11.11,0,0,1,0,0v0a21.79,21.79,0,0,1,.28,2.79,24.34,24.34,0,0,1-.11,3h0c0,.46-.11.92-.2,1.37a.44.44,0,0,0,.31.51.44.44,0,0,0,.52-.31c.12-.64.22-1.27.3-1.91s.13-1.29.17-1.95a21.5,21.5,0,0,0-.21-4.24A16.81,16.81,0,0,0,3150.05,1876.67Zm-.44,8.47v0Z"/><path class="cls-23" d="M3148.16,1875.14l0,.06,0,0Z"/><path class="cls-23" d="M3132.23,1917.36l.14,0h-.14Z"/><path class="cls-23" d="M3160.25,1931.58l0,.05,0,0Z"/><path class="cls-23" d="M3160.31,1931.66h0Z"/><path class="cls-23" d="M3162.45,1933.38c-.43-.77-.9-1.51-1.4-2.24a27.28,27.28,0,0,0-3.27-3.85,31.66,31.66,0,0,0-4-3.31,40.41,40.41,0,0,0-4.63-2.8,50.67,50.67,0,0,0-5-2.24,51.92,51.92,0,0,0-5.3-1.71,55.66,55.66,0,0,0-10.73-1.78c-1.1-.08-2.19-.12-3.29-.12a42.48,42.48,0,0,0-4.37.22,38.53,38.53,0,0,0-4.43.7,13.89,13.89,0,0,0-2.34.76,8.34,8.34,0,0,0-1.94,1.22.56.56,0,0,0,0,.79.56.56,0,0,0,.79,0l.15-.11a7.59,7.59,0,0,1,1.49-.79,17.58,17.58,0,0,1,4.18-.94,54.12,54.12,0,0,1,6.85-.37,57,57,0,0,1,7,.53h0l.14,0h0a56.37,56.37,0,0,1,13.78,3.74h0a44.93,44.93,0,0,1,4.71,2.35,35.94,35.94,0,0,1,4.38,3l-.09-.08.11.1,0,0a31.13,31.13,0,0,1,2.71,2.43,25,25,0,0,1,2.32,2.72l.06.07v0h0a22.07,22.07,0,0,1,2.46,4.33.42.42,0,1,0,.74-.4C3163.19,1934.84,3162.84,1934.1,3162.45,1933.38Zm-48.27-15.25.11-.05Zm32,3,.09,0Z"/><path class="cls-23" d="M3155.13,1926.36l.09.08,0,0Z"/><path class="cls-23" d="M3160.28,1931.63l0,0h0Z"/><path class="cls-23" d="M3134.88,1901.89h0Z"/><path class="cls-23" d="M3157.17,1908.35a37.09,37.09,0,0,0-8-4.85,31.41,31.41,0,0,0-8.8-2.6,23.45,23.45,0,0,0-3-.21c-.44,0-.88,0-1.31,0a16.48,16.48,0,0,0-2,.25,18.18,18.18,0,0,0-1.93.49.49.49,0,0,0-.35.58.49.49,0,0,0,.58.35,15.32,15.32,0,0,1,2.51-.52h0a23.41,23.41,0,0,1,2.64-.11,24.94,24.94,0,0,1,2.85.26l-.14,0a34.36,34.36,0,0,1,8.3,2.42l-.14-.06a36.76,36.76,0,0,1,8.29,4.93,24.87,24.87,0,0,1,4.34,4.42c.29.39.55.8.8,1.21a.48.48,0,0,0,.66.19.49.49,0,0,0,.2-.65A24,24,0,0,0,3157.17,1908.35Z"/><polygon class="cls-23" points="3158.98 1892.67 3158.99 1892.68 3158.99 1892.68 3158.98 1892.67"/><path class="cls-23" d="M3161.15,1893.41a12.22,12.22,0,0,0-1.41-1.47,15.2,15.2,0,0,0-6.55-3.39,12.84,12.84,0,0,0-2-.25h-.48c-.52,0-1,0-1.55.09a.66.66,0,0,0-.42.17.57.57,0,0,0-.19.43.6.6,0,0,0,.6.6,15.3,15.3,0,0,1,2.7.16c.64.1,1.28.23,1.91.39a16.6,16.6,0,0,1,2.06.69c.53.24,1,.5,1.55.79a12.78,12.78,0,0,1,1.57,1.07h0a13.31,13.31,0,0,1,2.26,2.24l.07.09-.07-.09c.05.07.1.14.14.21a.46.46,0,0,0,.26.2.39.39,0,0,0,.32,0,.43.43,0,0,0,.17-.57C3161.82,1894.28,3161.49,1893.84,3161.15,1893.41Zm-5.22-2.56.05,0Zm3.1,1.86.06,0Z"/><path class="cls-23" d="M3210.28,1895.22a22.66,22.66,0,0,0-4.5-.44c-.43,0-.85,0-1.28,0a24.49,24.49,0,0,0-2.84.36,29.38,29.38,0,0,0-2.95.69,34.13,34.13,0,0,0-5.69,2.28,48.89,48.89,0,0,0-5.54,3.28,67.17,67.17,0,0,0-9.83,8.3,75.9,75.9,0,0,0-7.72,9.16c-.87,1.21-1.68,2.44-2.46,3.71a33.59,33.59,0,0,0-2.13,4.08,25.88,25.88,0,0,0-1.43,4.16,15.06,15.06,0,0,0-.48,4.45.56.56,0,0,0,1.12-.06c0-.35,0-.7,0-1a18.16,18.16,0,0,1,.85-4c.22-.62.45-1.23.71-1.83s.66-1.38,1-2.06c.67-1.22,1.4-2.4,2.17-3.56a89.43,89.43,0,0,1,6.66-8.61,82.57,82.57,0,0,1,7.78-7.87l-.16.15a52.58,52.58,0,0,1,11.25-7.74l0,0a31.69,31.69,0,0,1,7.64-2.63h0l.1,0-.06,0a21.55,21.55,0,0,1,5.26-.31h0a17,17,0,0,1,2.35.32.44.44,0,0,0,.51-.33A.43.43,0,0,0,3210.28,1895.22Zm-44.85,34.94a.06.06,0,0,0,0,0A.06.06,0,0,1,3165.43,1930.16Zm42.36-34.43h0Z"/><path class="cls-23" d="M3165.22,1907.84a.69.69,0,0,1,.05-.13v0Z"/><path class="cls-23" d="M3181,1890.78l.06,0,.06,0Z"/><path class="cls-23" d="M3168.15,1901.92h0a.22.22,0,0,0,0-.08A.41.41,0,0,1,3168.15,1901.92Z"/><path class="cls-23" d="M3188.4,1887.54h-.05a28,28,0,0,0-4.35,1,31.07,31.07,0,0,0-4.55,1.87,34.87,34.87,0,0,0-8.18,5.82,29.06,29.06,0,0,0-6,8,24.06,24.06,0,0,0-1.74,4.6,19.47,19.47,0,0,0-.63,4.81.63.63,0,0,0,.66.59.62.62,0,0,0,.44-.21.62.62,0,0,0,.16-.45c0-.27,0-.53,0-.8a21.89,21.89,0,0,1,.37-2.54,19.62,19.62,0,0,1,.67-2.47.69.69,0,0,0-.05.13l.06-.15v0a27.28,27.28,0,0,1,2.88-5.8h0l0,.06,0-.06a.41.41,0,0,0,0-.09.22.22,0,0,1,0,.08,33.3,33.3,0,0,1,5.49-6.24l-.12.1a38.89,38.89,0,0,1,3.54-2.74,33.9,33.9,0,0,1,4-2.27l-.06,0,.12,0-.06,0a27.38,27.38,0,0,1,6.55-2.23h-.07l.11,0h0c.27-.06.54-.1.81-.14a.44.44,0,0,0,.41-.45A.43.43,0,0,0,3188.4,1887.54Z"/><path class="cls-23" d="M3187.51,1888.54h.11Z"/><path class="cls-23" d="M3175.06,1882.58l-.15,0c-.71.26-1.42.53-2.11.85s-1.38.68-2,1.06a23.83,23.83,0,0,0-4.08,3,14.12,14.12,0,0,0-3,4,11.82,11.82,0,0,0-.82,2.17,12.59,12.59,0,0,0-.39,2.52.57.57,0,0,0,.12.35.67.67,0,0,0,.45.3.78.78,0,0,0,.54-.09.72.72,0,0,0,.3-.46,10.73,10.73,0,0,1,.43-2.16,15.28,15.28,0,0,1,1.58-3.22,20.45,20.45,0,0,1,3.34-3.85h0a21.34,21.34,0,0,1,4.46-2.93c.52-.25,1-.47,1.58-.67a.49.49,0,0,0-.16-1Zm-10.79,11.58a.42.42,0,0,1,0-.1A.42.42,0,0,0,3164.27,1894.16Zm1.57-3.17a1.1,1.1,0,0,0,.09-.14A1.1,1.1,0,0,1,3165.84,1891Z"/><path class="cls-23" d="M3210.23,1894l.05.06-.06-.07,0,0s0,0,0,0a26.38,26.38,0,0,1-2.08-2.89,28.3,28.3,0,0,1-1.53-2.67h0a43.6,43.6,0,0,1-3.58-10.25.43.43,0,0,0,0,0,.43.43,0,0,1,0,0,1,1,0,0,0,0-.14.35.35,0,0,1,0,.11,61.29,61.29,0,0,1-1.17-15.93.86.86,0,0,0,0,.16,56.08,56.08,0,0,1,2.67-14.46l0,.13a39,39,0,0,1,1.82-4.51.49.49,0,0,0-.23-.65.5.5,0,0,0-.21,0,.47.47,0,0,0-.43.27,47.45,47.45,0,0,0-3.48,10.29,64.73,64.73,0,0,0-1.45,11.86,56.82,56.82,0,0,0,.85,12.15,40.6,40.6,0,0,0,3.48,11,30.36,30.36,0,0,0,2.21,3.72,21.34,21.34,0,0,0,1.58,2,19.8,19.8,0,0,0,2.08,1.92.56.56,0,0,0,.77-.06.55.55,0,0,0-.05-.76A11.53,11.53,0,0,1,3210.23,1894Z"/><path class="cls-23" d="M3186.87,1878.89v0a.83.83,0,0,1,0-.15Z"/><path class="cls-23" d="M3191,1887.45h0a17.3,17.3,0,0,1-2.42-3.54,21.33,21.33,0,0,1-1.06-2.52,22.19,22.19,0,0,1-.7-2.54v0l0-.18a.83.83,0,0,0,0,.15,30.94,30.94,0,0,1-.54-7.92h0a53.3,53.3,0,0,1,1-7.22,68,68,0,0,1,1.79-6.87.45.45,0,0,0-.35-.51h-.08a.47.47,0,0,0-.43.35c-.8,2.58-1.52,5.17-2.09,7.8a48.65,48.65,0,0,0-1.09,8.59,26.32,26.32,0,0,0,1,8.37,18.12,18.12,0,0,0,1.63,3.75,16.45,16.45,0,0,0,2.54,3.31.67.67,0,0,0,.94-.06.62.62,0,0,0,.16-.49.73.73,0,0,0-.23-.45Z"/><path class="cls-23" d="M3174.65,1877.54s0,0,0-.07v0A.08.08,0,0,1,3174.65,1877.54Z"/><path class="cls-23" d="M3175.28,1869.33s0,0,0-.08v0S3175.28,1869.31,3175.28,1869.33Z"/><polygon class="cls-23" points="3174.4 1873.89 3174.4 1873.89 3174.4 1873.88 3174.4 1873.89"/><path class="cls-23" d="M3175.56,1880.16a12.14,12.14,0,0,1-.91-2.62v0a.64.64,0,0,1,0-.07l0-.08,0,0a15.3,15.3,0,0,1-.24-3.58h0v0h0a18.68,18.68,0,0,1,.88-4.56l0,0,0-.08s0,0,0-.06v0c.09-.25.18-.5.28-.75a.63.63,0,0,0,0-.43.57.57,0,0,0-.52-.37.53.53,0,0,0-.5.31,23.17,23.17,0,0,0-1.08,3.74,18.13,18.13,0,0,0-.31,4,12.55,12.55,0,0,0,.76,3.88,9.66,9.66,0,0,0,.8,1.61,8.56,8.56,0,0,0,1.28,1.6.57.57,0,0,0,.71.05.6.6,0,0,0,.24-.38.56.56,0,0,0-.08-.44A10.73,10.73,0,0,1,3175.56,1880.16Zm-1.15-6.42s0,.06,0,.09S3174.41,1873.77,3174.41,1873.74Zm1.16,6.44.06.11Z"/><path class="cls-23" d="M3164.88,1973.44c0-1,0-2.07,0-3.11,0-1.94,0-3.88,0-5.82,0-2.17-.09-4.35-.11-6.51s0-4-.06-6.06q-.09-6.12-.16-12.23c0-4.43-.07-8.86-.11-13.29-.05-4.75-.13-9.52-.21-14.27q-.11-6.87-.26-13.72-.3-13.9-.61-27.8c-.23-10-.52-20-.78-30.06q-.18-6.87-.37-13.73c-.15-5-.25-10-.44-15-.12-3.22-.25-6.43-.42-9.64-.07-1.43-.15-2.85-.22-4.27-.08-1.77-.12-3.54-.16-5.32a.76.76,0,0,0-1.52,0c0,2.12.07,4.24.06,6.35,0,1.84,0,3.68,0,5.52,0,4.55,0,9.11.09,13.67q.21,14.19.48,28.4c.17,9.85.33,19.71.54,29.58q.29,13.9.62,27.82c.24,9.21.45,18.41.81,27.62.17,4.36.3,8.72.44,13.08.12,3.92.22,7.85.37,11.77.12,3.48.19,7,.31,10.46,0,1.52.12,3,.18,4.55,0,.81.05,1.63.08,2.44,0,.57,0,1.13.05,1.7a.78.78,0,0,0,.76.75.76.76,0,0,0,.76-.75c0-.32,0-.64,0-1S3164.88,1973.85,3164.88,1973.44Z"/><path class="cls-23" d="M3249.68,1909.88c-.29-.13-.59-.23-.89-.34l-1.12-.44-2.89-1.16c-1.8-.73-3.61-1.44-5.41-2.15-2-.79-4.07-1.54-6.08-2.35l-5.64-2.21c-3.8-1.48-7.6-3-11.39-4.45-4.12-1.62-8.24-3.26-12.35-4.89-4.43-1.74-8.88-3.46-13.31-5.17l-12.81-4.92q-13-4.93-26-9.87c-9.37-3.56-18.76-7-28.14-10.57l-12.87-4.82c-4.68-1.74-9.34-3.52-14-5.22q-4.55-1.65-9.1-3.23l-4-1.4q-2.51-.9-5-1.85a.76.76,0,1,0-.57,1.41c2,.75,4,1.53,5.91,2.33l5.09,2.11q6.33,2.6,12.71,5,13.23,5.13,26.49,10.23,13.8,5.33,27.62,10.62c8.67,3.29,17.34,6.6,26,9.87s17.23,6.51,25.89,9.63c4.11,1.48,8.2,3,12.3,4.5,3.68,1.37,7.35,2.75,11,4.09,3.28,1.19,6.54,2.44,9.81,3.64,1.42.53,2.85,1,4.28,1.55l2.3.84c.53.19,1.05.41,1.59.58a.76.76,0,0,0,.57-1.41Z"/><path class="cls-23" d="M3229.85,1822.38c-.26.18-.5.39-.75.59l-.95.75c-.81.64-1.63,1.27-2.46,1.91-1.54,1.18-3.06,2.38-4.58,3.58-1.71,1.35-3.39,2.73-5.1,4.06s-3.18,2.49-4.76,3.74c-3.2,2.54-6.39,5.06-9.6,7.58-3.48,2.74-7,5.46-10.46,8.19-3.74,2.94-7.47,5.91-11.19,8.87s-7.15,5.7-10.72,8.57l-21.66,17.44c-7.81,6.28-15.56,12.63-23.35,18.94l-10.66,8.67c-3.87,3.16-7.75,6.28-11.59,9.46-2.47,2.06-4.94,4.13-7.38,6.21-1.09.93-2.17,1.87-3.26,2.78-1.35,1.15-2.73,2.26-4.11,3.37a.77.77,0,0,0-.13,1.07.76.76,0,0,0,1.06.14c1.65-1.33,3.31-2.64,5-3.92,1.46-1.12,2.93-2.22,4.39-3.33,3.63-2.76,7.21-5.57,10.78-8.41q11.13-8.84,22.22-17.69,11.57-9.23,23.12-18.47,10.83-8.7,21.66-17.45c7.16-5.8,14.33-11.58,21.4-17.48,3.35-2.8,6.73-5.56,10.1-8.33,3-2.49,6.09-5,9.11-7.46,2.69-2.23,5.41-4.42,8.11-6.63,1.17-1,2.32-1.94,3.49-2.92l1.89-1.55c.43-.36.89-.7,1.31-1.08a.77.77,0,0,0,.13-1.06A.75.75,0,0,0,3229.85,1822.38Z"/><path class="cls-4" d="M3475.65,2055.44c-4-4.54-10.82-2.59-13.84,1.79-18.76,27-.95,89.73,1.83,119.52,7.89,84.54,12.53,169.74,15.47,254.59,2.58,74.61-3.76,150.12,13.9,223.31,9.69,40.14,33.11,87.14,69.23,109.28l.23.16h32.28a11.5,11.5,0,0,0-.08-1.18c-.8-3.57-2.17-3.3-1.83-8,.27-3.57,1.24-7.23,1.81-10.77,2.06-12.78,4.22-25.6,5.71-38.46,3.89-33.75,2.69-68.16,3.62-102.09,1.85-66.57,2.88-131.35-6.38-197.48C3581.86,2293.66,3553.48,2143.9,3475.65,2055.44Z"/><path class="cls-5" d="M3554.47,2424.39c-6.91-106.6-42.87-222-73.94-323.9-1-3.25-5.82-1.91-5.07,1.39,29.25,129.21,72.15,258.83,69.17,392.54-1.31,59.12-7.39,119.48,1.44,178.33,3.68,24.65,5.49,64.78,20,91.34h15.65c-26.7-45.26-25.73-116.54-26.67-163.77C3553.85,2541.59,3558.27,2483.12,3554.47,2424.39Z"/><path class="cls-5" d="M3634.13,1958.35c-2.18-3-6-5.47-9.88-4-36.35,13.46-31.13,91.81-32.72,122-4.45,83.93-7.87,166.86-15.25,250.68-7.67,87.1-9.88,174.76-18.33,261.74-6.18,63.48-3.51,119,19.15,175.3h31.42c4-11,6.47-23,9.78-33.84,11.08-36.5,25.32-72.58,38.16-108.53,26.66-74.64,55.66-150.4,64.58-229.74,8.67-77.29-1-150.71-14.89-226.71C3694,2098.38,3675.09,2014.4,3634.13,1958.35Z"/><path class="cls-4" d="M3628.29,2032c39.58,127-1,265.07-27.5,391-12.72,60.54-26.73,120.85-30.67,182.71-1.9,29.76.51,59.64,3.11,89.29,2,22.91,8.95,46.09,11.52,69.14h13.16c-.5-12.45-2.87-24.28-5-38.45-6-40.11-9.11-79.43-7.95-120,2.16-77.86,25.57-156.86,41.35-232.89,13.54-65.34,27.64-131.85,31.72-198.59,3-48.3,4.75-103.06-21.67-145.65C3633.78,2024.35,3626.74,2027,3628.29,2032Z"/><path class="cls-6" d="M3995.25,2201.79c-15-3.79-35.29,5.38-48.28,11.32-29.55,13.55-59.52,26.1-89.06,39.7-63.13,29.07-119.12,67.38-164.36,120.42-42.94,50.35-62.77,110.49-79.22,173.42-18.87,72.13-30.58,143.58-26.3,217.44h37.41c12.11-16.27,22.57-34.63,34-50.15A1222.33,1222.33,0,0,1,3742,2613.86c52-56.43,106.66-110.18,156.9-168.3C3922.73,2418,4079.69,2223.12,3995.25,2201.79Z"/><path class="cls-5" d="M4003.81,2223.41c-52.56,49.09-104,87.05-166.93,122.57-45.76,25.84-94.29,47.6-128.52,88.79s-52,104.56-68.44,154.58c-19,57.74-29.34,116.38-44,174.74H3609c40.25-112.62,45.68-246.34,130.21-338.47,37.6-41,100-64.53,147.18-92.8,48-28.76,87.73-60.53,123.7-103.12C4013.74,2225.36,4008.05,2219.47,4003.81,2223.41Z"/><path class="cls-6" d="M3309,2218.64c-28.65,19.59-28.44,67.2-22.66,97.66,12.67,66.75,38.4,132.81,61.7,196.51,20,54.75,36.41,121.35,72.94,168.1,30.64,39.24,69.45,60.78,115.24,76.4a9.31,9.31,0,0,0,8.53,2.91l.61.21c4.1,1.32,6.55-2.27,6.12-5.55a4.62,4.62,0,0,0,.28-.48C3579.12,2677.52,3376.17,2172.64,3309,2218.64Z"/><path class="cls-5" d="M3482.63,2650.46c-23.35-35-40.71-72.38-54.8-112-28.5-80.18-55.94-161.15-95.3-236.9-2.38-4.62-10-1.41-8.37,3.53,27.94,85,65.28,167.64,95.35,252.1,25.33,71.12,69.5,139.21,121.11,194.12,4.87,5.18,13.12-1.46,9.69-7.47C3531.11,2710.4,3504,2682.5,3482.63,2650.46Z"/><path class="cls-44" d="M2989.35,2677.5a911,911,0,0,0-99.27,5.2c-28.78-2.33-59.95-3.62-92.53-3.62-144.88,0-262.32,25.25-262.32,56.41,0,21.93,58.2,40.91,143.14,50.25a12,12,0,0,0-2.11,6.16c0,25.79,97.24,46.71,217.19,46.71s217.18-20.92,217.18-46.71c0-9.19-12.52-17.74-33.83-25,76.36-7.22,129.73-23.63,129.73-42.72C3206.53,2698.42,3109.3,2677.5,2989.35,2677.5Z"/><rect class="cls-45" x="2878.52" y="2671.09" width="23.78" height="163.69" transform="translate(-344.81 5090.98) rotate(-79.46)"/><rect class="cls-46" x="2884.26" y="2678" width="9.72" height="163.69" transform="translate(-352.66 5095.36) rotate(-79.46)"/><path class="cls-45" d="M2808.41,2665.19l-75.76,38.93c-12.9,6.63-16.65,26.78-7,37.61l56.68,63.58c10.36,11.61,28.12,3.9,31.38-13.62l19.07-102.51C2836.05,2671.66,2822.25,2658.08,2808.41,2665.19Zm-15.84,47.45a9.4,9.4,0,1,1,2.43-13.07A9.4,9.4,0,0,1,2792.57,2712.64Z"/><path class="cls-46" d="M2785.17,2790.07l-56.68-63.58a22.08,22.08,0,0,1-5.28-12.55c-4.47,8.8-4.11,20.44,2.45,27.79l56.68,63.58c10.36,11.61,28.12,3.9,31.38-13.62l2.83-15.24C2813.29,2794,2795.53,2801.68,2785.17,2790.07Z"/><path class="cls-45" d="M2866.39,2692.56a11,11,0,0,0-12.86,8.83L2836.67,2792a11,11,0,1,0,21.69,4l16.86-90.63A11,11,0,0,0,2866.39,2692.56Z"/><path class="cls-45" d="M2866.39,2692.56a11,11,0,0,0-12.86,8.83L2836.67,2792a11,11,0,1,0,21.69,4l16.86-90.63A11,11,0,0,0,2866.39,2692.56Z"/><path class="cls-45" d="M2896.42,2705.93a11,11,0,0,0-12.86,8.83l-14.07,75.59a11,11,0,0,0,21.69,4l14.07-75.6A11,11,0,0,0,2896.42,2705.93Z"/><path class="cls-45" d="M2925.79,2722.81a11,11,0,0,0-12.86,8.82l-10,53.54a11,11,0,1,0,21.69,4l10-53.54A11,11,0,0,0,2925.79,2722.81Z"/><path class="cls-46" d="M2846.81,2797.83A11,11,0,0,1,2838,2785l-1.31,7.06a11,11,0,1,0,21.69,4l1.31-7A11,11,0,0,1,2846.81,2797.83Z"/><path class="cls-46" d="M2879.63,2796.16a11,11,0,0,1-8.83-12.86l-1.31,7a11,11,0,0,0,21.69,4l1.31-7.06A11,11,0,0,1,2879.63,2796.16Z"/><path class="cls-46" d="M2913.11,2791a11,11,0,0,1-8.83-12.86l-1.31,7.05a11,11,0,1,0,21.69,4l1.31-7.06A11,11,0,0,1,2913.11,2791Z"/><path class="cls-45" d="M2991,2736.68l-43.74,17.45a10.91,10.91,0,0,0-3.37,18.15l34.53,32a10.93,10.93,0,0,0,18.16-6l9.2-49.46A10.91,10.91,0,0,0,2991,2736.68Z"/><path class="cls-46" d="M2979.29,2799.6l-34.53-32c-2.28-2.11-2.42-2.79-4.37-3.15-1.7,4-.11,4.49,3.5,7.84l34.53,32a10.93,10.93,0,0,0,18.16-6l.87-4.69A10.92,10.92,0,0,1,2979.29,2799.6Z"/><polygon class="cls-46" points="3002.6 2765.93 3004.36 2756.42 2972.29 2760.29 3002.6 2765.93"/><polygon class="cls-46" points="2998.34 2788.82 2999.95 2780.13 2973.85 2770.67 2998.34 2788.82"/><path class="cls-47" d="M951,1337.83c-44.37,13.55-123.26,72.68-151.56,97.05,1.15,1.83,24.86,61.33,41.07,130.77,22.07,8.74,115.15-9.67,170-26.75,69.43-21.61,126-55.53,153.37-80.29-23-48.41-43.05-126.84-43.05-126.84S1035.73,1312,951,1337.83Z"/><g class="cls-48"><path class="cls-47" d="M954.12,1359.84a206.34,206.34,0,0,0-59.74,31.61,179.45,179.45,0,0,0-25.17,23.41c-7.61,8.71-14.65,18.07-20,28.8l1.16.68c14.76-17.95,32-31.94,50.11-43.73a246,246,0,0,1,28.27-15.5,231,231,0,0,1,29.84-11.84c5.14-1.79,10-3.29,15.08-4.54s10.25-2.13,15.49-2.85c10.43-1.81,21.18-2,32.05-2.27,21.78.13,44.09,2.61,66.93,6.78l.42-1.3a228.11,228.11,0,0,0-67.24-16.56C998.57,1350.57,975.51,1352.4,954.12,1359.84Z"/><path class="cls-47" d="M1043.53,1407.17a468.62,468.62,0,0,0-69.28,16.31,627,627,0,0,0-66.36,25.65c-21.49,10.08-42.71,21-61.91,35.57l.82,1.14c21.66-10.1,43.57-18.33,65.45-26.51,11.1-3.72,21.9-8,33.07-11.5,11-3.75,22.06-7.55,33.25-10.87,11-3.74,22.08-7,33.31-10,11.11-3.41,22.5-5.76,33.79-8.83,22.74-5.4,45.69-10.49,69.13-15.74l-.07-1.41A481.92,481.92,0,0,0,1043.53,1407.17Z"/><path class="cls-47" d="M1057.66,1473.93a254.32,254.32,0,0,1-28.71,15.62,237.44,237.44,0,0,1-30.27,12c-5.21,1.81-10.12,3.34-15.3,4.61s-10.4,2.17-15.7,2.92c-10.58,1.86-21.48,2.13-32.49,2.41a392,392,0,0,1-67.79-6.52l-.42,1.29a231.83,231.83,0,0,0,68.16,16.32c23,1.86,46.36-.09,68-7.6a212.07,212.07,0,0,0,60.57-31.83,184.86,184.86,0,0,0,25.62-23.53c7.76-8.76,15-18.18,20.43-29l-1.16-.7C1093.6,1448,1076.06,1462.05,1057.66,1473.93Z"/></g><path class="cls-47" d="M865.24,1552.51c-.71.38-71.33,37.75-113.08,17.68-13.45-6.46-22.22-18-26.83-35.15-4.91-18.29-3-34.61,5.61-48.52,24.22-39,93.25-48.24,93.95-48.33a4.74,4.74,0,0,0,3.93-5.55,5,5,0,0,0-5.43-4.36c-3,.38-73.9,9.82-100.43,52.53-10.16,16.37-12.43,35.4-6.75,56.59.34,1.26.69,2.49,1.07,3.7,5.69,18.09,16.18,30.92,31.23,38.15,45.91,22.06,118.23-16.16,121.28-17.8a5,5,0,0,0,1.88-6.7A4.75,4.75,0,0,0,865.24,1552.51Z"/><path class="cls-47" d="M1254.43,1357.15C1246.22,1336.81,1233,1323,1215,1316c-46.89-18.17-109.2,16.94-111.83,18.44a5,5,0,0,0-1.72,6.75,4.74,4.74,0,0,0,6.48,2.07c.61-.35,61.3-34.51,104.12-17.89,15.26,5.92,26.59,17.82,33.67,35.37,6.67,16.52,6.57,31-.29,44.23-21.28,41.14-100.17,53.77-101,53.89a4.75,4.75,0,0,0-3.79,5.66,5,5,0,0,0,5.52,4.22c3.43-.53,84.2-13.49,107.61-58.73,7.67-14.83,8.34-31.39,2-49.26C1255.37,1359.55,1254.92,1358.35,1254.43,1357.15Z"/><path class="cls-44" d="M2400.84,1448.41a51.92,51.92,0,0,0-71.54-56.15,84.05,84.05,0,0,0-158-51.28,76.11,76.11,0,0,0-115.06,40.94,110.17,110.17,0,0,0-62.76,205.23,84.14,84.14,0,0,0,1.3,14.07,52,52,0,1,0,65.83,67.48c1.14.24,2.25.54,3.42.72a84,84,0,0,0,93.91-59,111.23,111.23,0,0,0,149.21-16.61,84,84,0,0,0,91.2-136.13A51.26,51.26,0,0,0,2400.84,1448.41Z"/><path class="cls-44" d="M2073.53,1692.56A29.46,29.46,0,1,0,2103,1722,29.45,29.45,0,0,0,2073.53,1692.56Z"/><path class="cls-23" d="M2108,1404.49c-24.4,0-37,12.33-37,33.92v70.16c0,21.59,12.65,33.92,37,33.92s37.06-12.33,37.06-33.92v-17.93h-23.5v19.28c0,9.64-5,13.11-12.88,13.11s-12.88-3.47-12.88-13.11v-72.86c0-9.64,5-13.3,12.88-13.3s12.88,3.66,12.88,13.3v14.46H2145v-13.11C2145,1416.82,2132.36,1404.49,2108,1404.49Z"/><path class="cls-23" d="M2195.84,1404.49c-24.4,0-37.73,12.33-37.73,33.92v70.16c0,21.59,13.33,33.92,37.73,33.92s37.73-12.33,37.73-33.92v-70.16C2233.57,1416.82,2220.24,1404.49,2195.84,1404.49Zm12.88,105.43c0,9.64-5,13.3-12.88,13.3s-12.88-3.66-12.88-13.3v-72.86c0-9.64,5-13.3,12.88-13.3s12.88,3.66,12.88,13.3Z"/><path class="cls-23" d="M2290.36,1509.11c0-12.18-7.14-19.14-20.91-19.14s-20.9,7-20.9,19.14v7.39h13.26v-8.15c0-5.44,2.8-7.51,7.26-7.51s7.27,1.85,7.27,8.7c0,22-27.79,25.66-27.79,48.06V1567h40.53v-10.87h-26.51a6.94,6.94,0,0,1-.13-1.63C2262.44,1541.94,2290.36,1533,2290.36,1509.11Z"/><path class="cls-49" d="M2087.85,417.17c-124.69,0-225.76,73.63-225.76,164.46,0,52.66,34,99.53,86.82,129.63-3.74,31.86-7.71,84-7.71,84l59.8-61.83a299.06,299.06,0,0,0,86.85,12.62c124.69,0,225.77-73.63,225.77-164.46S2212.54,417.17,2087.85,417.17Z"/><path class="cls-23" d="M2063.37,469.79c-22.31-2.91-71.4.32-59.15,35.18a54.16,54.16,0,0,0,2.16,5.19c-11.62,2.6-20.52,8.92-22.78,21.4-3.36,18.59,14.14,37.14,30.41,50.67-17.07,12.93-5.21,31.78,10.91,46.53a20.47,20.47,0,0,0-2.12,3.68c-7.36,17,8.4,38.15,20,48.64,4.76,4.3,11.76-2.85,7-7.18-7-6.29-16.25-16-17.43-25.88-.58-4.91.38-8.53,2.36-11.12,8,6.07,15.9,10.76,20.94,13,8.58,3.74,26.73,11.48,30.82-2.45,4-13.76-17.53-22.3-27.32-25.16-8.72-2.55-19.78-3.47-27.82.85-5.92-5.6-12.24-13.23-13.27-20.35-1-6.69,1.44-10.69,5.45-13,2.46,1.87,4.77,3.57,6.82,5.09,22,16.22,54.85,39,84,35,2.74-.38,4-3.72,3.49-6.06-6.12-28.1-64.36-55.89-94.78-46.21-12.32-9.81-23.81-21.47-27.88-34.18-5-15.63,3.33-22.16,16.76-23.77,15.64,22.59,45.62,39.89,66.92,52.1,24.7,14.15,61.14,35.32,91,29.23,2.68-.54,4-3.52,3.44-6-7.74-36.73-64.84-62.34-96.15-74.85-11.87-4.74-38.4-12.47-60.28-11.34-4-6-6.85-13-3.66-19.31,8.67-17.14,44.28-12,58.68-9.39,51.24,9.19,93.55,38.86,126,78.91.39.48,1.21-.17.86-.69C2167.07,510.43,2121,477.29,2063.37,469.79Zm2.45,165.87c18,9.12,1.9,8.75-7.59,4.45a129.06,129.06,0,0,1-15.28-8.05C2050.06,630.47,2059.23,632.33,2065.82,635.66Zm-15.62-46.81c17.28,4,47,13.58,56,31.73-20.39-.26-43.28-15.64-59-25.94-3.42-2.24-7.23-4.75-11.19-7.5A65.44,65.44,0,0,1,2050.2,588.85Zm35.21-54.46c24.14,11.76,66.63,30.48,76.91,57.83-22.68,1.8-49.75-13.43-68.24-23.19-24.46-12.91-50.19-28.65-68.75-49.63C2048.16,520.86,2076.45,530,2085.41,534.39Z"/></g></g></svg>