<svg xmlns="http://www.w3.org/2000/svg" xmlns:xlink="http://www.w3.org/1999/xlink" viewBox="0 0 4680 3120"><defs><style>.cls-1{fill:none;}.cls-2{isolation:isolate;}.cls-20,.cls-3{fill:#fff;}.cls-3{opacity:0;}.cls-4{fill:#fff0d5;}.cls-5{fill:#fdc238;}.cls-6{fill:#c95d1d;}.cls-7{fill:#b3481d;}.cls-8{fill:#52a9a0;}.cls-9{fill:#9bcda8;}.cls-10{fill:#418a83;}.cls-11{fill:#4fb29f;}.cls-12{fill:#88c1ba;}.cls-13{fill:#8c293d;}.cls-14{fill:#ffb9b9;}.cls-15{fill:#7e8bdf;}.cls-16{fill:#5e6ed7;}.cls-17{fill:#4052b2;}.cls-18{fill:#db2321;}.cls-19{fill:#aa2321;}.cls-21{opacity:0.4;}.cls-21,.cls-51{mix-blend-mode:multiply;}.cls-22{fill:#5c8951;}.cls-23{fill:#d1d1d1;}.cls-24{opacity:0.2;}.cls-25{fill:#fffdfe;}.cls-26{fill:#326c92;}.cls-27{fill:#f68c9a;}.cls-28{fill:#00275c;}.cls-29{fill:#345885;}.cls-30{fill:#de6277;}.cls-31{fill:#0f1231;}.cls-32{fill:#0e0d0b;}.cls-33{fill:#fcbe21;}.cls-34{fill:#f0952e;}.cls-35{fill:#fcd86a;}.cls-36{fill:#ca3f14;}.cls-37{fill:#ff7a00;}.cls-38{clip-path:url(#clip-path);}.cls-39{fill:#fce097;}.cls-40{fill:#f99b21;}.cls-41{fill:#b3e84d;}.cls-42{fill:#0f8630;}.cls-43{fill:#29a529;}.cls-44{fill:#d23d1e;}.cls-45{fill:#f5927e;}.cls-46{fill:#22393e;}.cls-47{fill:#3b525f;}.cls-48{fill:#6faeb7;}.cls-49{fill:#73acff;}.cls-50{fill:#8ebeff;}.cls-51{opacity:0.42;}.cls-52{fill:#7ad117;}.cls-53{fill:#a4dc36;}</style><clipPath id="clip-path"><path class="cls-1" d="M2949,1477.69q9.65-10.25,18.76-21.07c.24-.29.51-.56.75-.85,5.84-6.93,11.47-14.08,17-21.35.46-.6,1-1.16,1.41-1.77,5.21-7,10.2-14.1,15.09-21.35.67-1,1.4-1.92,2.07-2.92,4.59-6.9,8.94-14,13.24-21.17.85-1.43,1.79-2.79,2.64-4.23,4.12-7,8-14.27,11.82-21.54.88-1.67,1.85-3.27,2.72-5,3.88-7.6,7.51-15.38,11.07-23.23.66-1.46,1.41-2.86,2.06-4.33q6.21-14.06,11.67-28.61,4.47-11.88,8.31-23.84c.82-2.54,1.48-5.09,2.26-7.63,1.66-5.45,3.36-10.89,4.84-16.35.74-2.72,1.32-5.45,2-8.17,1.35-5.29,2.73-10.58,3.9-15.88.65-2.94,1.14-5.87,1.74-8.8,1-5.11,2.13-10.21,3-15.32.5-2.88.85-5.76,1.3-8.64.8-5.17,1.65-10.34,2.3-15.51.34-2.72.54-5.44.84-8.16.59-5.33,1.21-10.65,1.63-16,.22-2.71.29-5.41.47-8.11.34-5.33.71-10.67.89-16,.09-2.63,0-5.25.09-7.89.1-5.22.25-10.45.19-15.67,1.69-38.48-3.36-76.78-13.55-114.15-.55-2-.94-4.08-1.52-6.1,0-.17-.1-.34-.14-.51s-.07-.3-.11-.44c-.48-1.94-1.11-3.83-1.6-5.75-2.14-8.26-4.34-16.51-6.87-24.65-.53-1.72-1.2-3.41-1.75-5.13-2.68-8.33-5.44-16.64-8.53-24.83-.6-1.6-1.33-3.15-1.95-4.75-3.19-8.24-6.48-16.44-10.08-24.51-.71-1.59-1.53-3.12-2.25-4.7-3.67-8-7.43-16-11.49-23.81-.79-1.52-1.69-3-2.5-4.5-4.14-7.8-8.38-15.56-12.91-23.15-.92-1.54-2-3-2.9-4.56-4.56-7.47-9.2-14.9-14.13-22.15-1.14-1.67-2.41-3.26-3.56-4.92-4.9-7-9.85-14-15.09-20.79-1.31-1.71-2.76-3.32-4.1-5-5.24-6.62-10.52-13.21-16.09-19.59-1.72-2-3.59-3.83-5.34-5.77-5.36-6-10.73-11.93-16.38-17.67-2.12-2.16-4.41-4.17-6.57-6.29-5.47-5.36-10.91-10.75-16.63-15.88-2.66-2.4-5.5-4.61-8.22-6.95-5.42-4.68-10.8-9.42-16.44-13.89-3.24-2.58-6.69-5-10-7.45-5.33-4-10.57-8.13-16.07-12-3.75-2.61-7.69-5-11.52-7.52-5.29-3.49-10.5-7.08-15.94-10.4-4.74-2.88-9.68-5.49-14.53-8.24s-9.39-5.52-14.25-8.07c-6.51-3.43-13.26-6.55-20-9.72-3.4-1.62-6.69-3.39-10.15-4.94q-15.36-6.9-31.37-12.91t-32.12-10.9c-3.62-1.11-7.26-1.93-10.89-3-7.14-2-14.27-4.11-21.43-5.8-5.34-1.27-10.7-2.19-16.05-3.29s-10.9-2.4-16.36-3.34c-6.28-1.09-12.57-1.8-18.85-2.65-4.54-.62-9.08-1.42-13.62-1.91-6.66-.73-13.32-1.09-20-1.56-4.14-.29-8.29-.76-12.43-1-7.19-.33-14.35-.3-21.52-.34-3.59,0-7.18-.22-10.76-.17-7.69.11-15.33.58-23,1-3,.18-6.08.19-9.09.42-8,.6-16,1.57-24,2.54-2.6.31-5.23.48-7.82.83-8.39,1.15-16.7,2.64-25,4.18-2.12.4-4.27.66-6.39,1.08-8.41,1.67-16.73,3.68-25,5.75-2,.49-4,.85-5.92,1.36-8.48,2.22-16.86,4.77-25.21,7.4-1.72.54-3.48,1-5.19,1.52-8.5,2.78-16.88,5.87-25.23,9.06-1.5.58-3.05,1.05-4.56,1.64-8.22,3.23-16.31,6.78-24.36,10.41-1.57.71-3.18,1.31-4.74,2-8,3.72-15.88,7.74-23.71,11.84-1.52.8-3.08,1.49-4.59,2.31-7.71,4.13-15.25,8.58-22.75,13.09-1.55.94-3.16,1.77-4.7,2.72-7.26,4.47-14.33,9.23-21.37,14.05-1.65,1.12-3.36,2.14-5,3.28l-.38.26-.44.29c-1.77,1.14-3.41,2.43-5.15,3.59-32.25,21.46-61.25,47-85.28,77.1-3.47,3.89-6.8,7.93-10.16,11.93-1.69,2-3.45,4-5.12,6-3.36,4.13-6.59,8.4-9.83,12.64-1.65,2.15-3.37,4.23-5,6.41-3.18,4.29-6.21,8.71-9.27,13.11-1.57,2.24-3.2,4.42-4.73,6.69-3,4.48-5.88,9.1-8.77,13.69-1.45,2.3-3,4.54-4.4,6.87-2.76,4.54-5.36,9.22-8,13.87-1.41,2.49-2.91,4.91-4.28,7.43-2.61,4.76-5,9.66-7.51,14.53-1.27,2.51-2.62,5-3.86,7.48-2.47,5.09-4.77,10.3-7.1,15.5-1.08,2.42-2.26,4.79-3.31,7.24q-5,11.54-9.42,23.42-5.46,14.55-10,29.22c-.47,1.54-.83,3.09-1.29,4.63-2.48,8.25-4.87,16.5-6.93,24.78-.46,1.83-.78,3.68-1.21,5.52-1.91,8-3.74,16-5.26,24-.29,1.54-.47,3.09-.75,4.63-1.5,8.32-2.9,16.64-4,25-.1.74-.13,1.48-.23,2.21-1.16,9.12-2.13,18.24-2.8,27.35-.06.75,0,1.5-.11,2.25-.63,9.09-1.09,18.18-1.25,27.25,0,.37,0,.75,0,1.13q-.22,14.14.28,28.21c0,.47.07.93.09,1.39.37,9.16.93,18.3,1.77,27.4.93,51.81,8.54,102.8,20.83,155.48,37.83,162.12,31.07,245.87-5.41,343.14-.36,1-.72,2-1.06,2.91-23.22,65,11.25,136.52,75.89,160.76h0l301.57,113.1h0c64.63,24.24,137.64-7,162.88-71.21.38-1,.75-1.92,1.11-2.89,36.48-97.27,86.47-164.82,221.56-262.08,43.91-31.61,83.16-65,117.94-103.44,6.61-6.3,13.05-12.82,19.35-19.48C2948.29,1478.34,2948.63,1478,2949,1477.69Z"/></clipPath></defs><title>06</title><g class="cls-2"><g id="_06" data-name="06"><rect id="_06-2" data-name="06" class="cls-3" width="4680" height="3120"/><path class="cls-4" d="M3950.75,1695c57.82-86.75,91.39-189.38,91.39-299.45,0-311.1-267.14-563.3-596.68-563.3a633.57,633.57,0,0,0-107.77,9.34c-106.25-228.13-311.41-382.73-547.16-382.73-137.32,0-264.19,52.56-367.27,141.42C2304.49,497.12,2160.6,436.68,2005.5,436.68c-242,0-456.72,147-591.26,374.1a536.56,536.56,0,0,0-116.78-12.86c-366.86,0-664.25,373.32-664.25,833.82,0,103.45,15,202.49,42.49,293.92C537,2013.9,444.24,2174.45,444.24,2357.91c0,130.82,47.17,250,124.51,339.61H4071.83c76.48-122.65,121-269.13,121-426.51C4192.81,2043,4099.53,1837.91,3950.75,1695Z"/><polygon class="cls-5" points="850.67 1674.51 848.73 2605.74 911.63 2605.74 868.23 1674.51 850.67 1674.51"/><path class="cls-5" d="M860.25,1661.32s124,92.59,262.07,49.24C1009.37,1620.06,860.25,1661.32,860.25,1661.32Z"/><path class="cls-5" d="M774.93,1409.2c-23.81,142.5,85.32,252.12,85.32,252.12S880.47,1508.23,774.93,1409.2Z"/><path class="cls-5" d="M689.24,1865.28c134.29-54,171-204,171-204S718.78,1723.88,689.24,1865.28Z"/><path class="cls-6" d="M859.45,1634.93A25.62,25.62,0,1,0,885,1660.55,25.58,25.58,0,0,0,859.45,1634.93Z"/><path class="cls-7" d="M859.45,1646.1a14.45,14.45,0,1,0,14.41,14.45A14.42,14.42,0,0,0,859.45,1646.1Z"/><polygon class="cls-5" points="3268.32 1112.66 3245.64 1537.89 3308.55 1537.89 3285.88 1112.66 3268.32 1112.66"/><path class="cls-5" d="M3277.9,1099.47s124,92.59,262.07,49.24C3427,1058.22,3277.9,1099.47,3277.9,1099.47Z"/><path class="cls-5" d="M3192.57,847.36c-23.8,142.5,85.33,252.11,85.33,252.11S3298.12,946.38,3192.57,847.36Z"/><path class="cls-5" d="M3106.89,1303.43c134.28-54,171-204,171-204S3136.42,1162,3106.89,1303.43Z"/><path class="cls-6" d="M3277.09,1073.08a25.62,25.62,0,1,0,25.56,25.62A25.58,25.58,0,0,0,3277.09,1073.08Z"/><path class="cls-7" d="M3277.09,1084.26a14.44,14.44,0,1,0,14.41,14.44A14.42,14.42,0,0,0,3277.09,1084.26Z"/><polygon class="cls-5" points="3613.4 1351.75 3590.73 1858.76 3653.63 1858.76 3630.96 1351.75 3613.4 1351.75"/><path class="cls-5" d="M3671.49,1599.46c45.24-137.48-45.6-262.73-45.6-262.73S3582.54,1485.27,3671.49,1599.46Z"/><path class="cls-5" d="M3625.89,1336.73s150.49-34.64,206.31-168.16C3690.38,1196.14,3625.89,1336.73,3625.89,1336.73Z"/><path class="cls-5" d="M3375,1247.92c97.56,106.9,250.91,88.81,250.91,88.81S3517.77,1226.1,3375,1247.92Z"/><path class="cls-6" d="M3622.17,1312.16a25.62,25.62,0,1,0,25.57,25.62A25.59,25.59,0,0,0,3622.17,1312.16Z"/><path class="cls-7" d="M3622.17,1323.34a14.44,14.44,0,1,0,14.42,14.44A14.41,14.41,0,0,0,3622.17,1323.34Z"/><path class="cls-8" d="M505.9,1994.48c-76,45.5-32.15,278.79,54.69,435.33,71.75,129.33,217.33,286.48,298.45,252.55,77.13-32.25,82.42-231.55,26.73-376.58C807.44,2101.79,585.93,1946.56,505.9,1994.48Z"/><path class="cls-9" d="M647.86,2189.74c-10-16.79-20.81-34.06-32.93-52.82-32-49.75-66.66-98.88-102.87-146l-3.87,3c36.14,47,70.67,96,102.64,145.68,12.09,18.72,22.83,35.94,32.85,52.68,21.6,35.76,42.81,73.37,63,111.78a2122.85,2122.85,0,0,1,154,377l4.66-1.41A2125.46,2125.46,0,0,0,711,2301.76C690.76,2263.25,669.5,2225.55,647.86,2189.74Z"/><polygon class="cls-9" points="464.97 2133.36 612.73 2140.65 612.98 2135.77 465.22 2128.48 464.97 2133.36"/><polygon class="cls-9" points="473.07 2179.8 645.68 2193.54 646.06 2188.68 473.45 2174.94 473.07 2179.8"/><polygon class="cls-9" points="694.47 2264.26 698.55 2266.94 779.56 2143.14 775.47 2140.47 694.47 2264.26"/><polygon class="cls-9" points="713.59 2315.69 717.59 2318.48 816.72 2176.51 812.72 2173.73 713.59 2315.69"/><path class="cls-9" d="M613.28,2461.22c-121.76-66.37-292.66-50.28-311.63,5.79-18,53.24,99.14,148,205.49,187.9,87.87,33,222.86,49.06,248.12-.7C779.27,2606.9,699.84,2508.4,613.28,2461.22Z"/><path class="cls-8" d="M450.86,2502.15c-11.57-3.92-23.89-7.85-37.67-12-35.93-10.86-72.88-20.37-109.84-28.26l-1,4.76c36.83,7.88,73.67,17.36,109.47,28.17,13.73,4.13,26,8,37.52,11.95,25.08,8.39,50.79,17.83,76.39,28.08A1344.49,1344.49,0,0,1,755,2653.63l2.65-4.1a1349.64,1349.64,0,0,0-230.13-119.22C501.82,2520,476,2510.55,450.86,2502.15Z"/><rect class="cls-8" x="328.31" y="2518.68" width="93.89" height="4.88" transform="translate(-1458.34 750.59) rotate(-37.54)"/><polygon class="cls-8" points="359.68 2566.86 362.53 2570.8 451.6 2506.44 448.74 2502.49 359.68 2566.86"/><polygon class="cls-8" points="502.59 2425.82 532.84 2531.87 538.24 2530.12 507.99 2424.07 502.59 2425.82"/><polygon class="cls-8" points="538.05 2432.99 567.73 2549.75 572.8 2548.27 543.13 2431.51 538.05 2432.99"/><path class="cls-10" d="M969.89,2452.2c-57,85.84-99.57,214.2-73.15,244.65,27.77,32,126.74-50.18,187.19-123.93,73.18-89.28,144.87-233.18,121.94-272C1181.72,2260.09,1050,2331.44,969.89,2452.2Z"/><path class="cls-8" d="M1125,2377.84c-9.57,10.54-18.17,20.24-26.28,29.66-17.46,20.14-35.24,41.6-52.84,63.77a1987.56,1987.56,0,0,0-152.48,222.52l4.19,2.47a1984.92,1984.92,0,0,1,152.12-222c17.54-22.11,35.27-43.51,52.7-63.61,8.09-9.39,16.66-19.07,26.2-29.57,25.12-27.73,51.23-54.74,77.61-80.29l-3.39-3.5C1176.36,2323,1150.16,2350,1125,2377.84Z"/><rect class="cls-8" x="1157.44" y="2352.69" width="4.87" height="67.63" transform="translate(-1415.74 3024.42) rotate(-77.99)"/><polygon class="cls-8" points="1100.07 2411.57 1178.53 2424.68 1179.33 2419.86 1100.87 2406.77 1100.07 2411.57"/><polygon class="cls-8" points="1030.05 2376.1 1047.15 2469.65 1052.79 2468.19 1035.68 2374.64 1030.05 2376.1"/><polygon class="cls-8" points="1007.66 2402.14 1021.24 2502.81 1026.03 2501.76 1012.47 2401.09 1007.66 2402.14"/><path class="cls-8" d="M655.93,2485.89a346.4,346.4,0,0,0-88.45-47.73l-1.68,4.59a341.09,341.09,0,0,1,182.68,156.92l4.27-2.36A347,347,0,0,0,655.93,2485.89Z"/><path class="cls-11" d="M3431.9,2369.84s-4.93-116.93-131.4-155.56-155.15,27.08-155.15,27.08,7.68-122.27-76.38-152.11-182.3,68.35-182.3,68.35-12.93-184.95-212-142.22-227.46,298.76-227.46,298.76-47.34-125.74-246.83-76.88c-171.47,42-246.44,280.51-264.85,358.32-3,12.72-4.5,21.14-4.66,23.72l1608,2.78s81.43-123.78,61.2-192.57S3431.9,2369.84,3431.9,2369.84Z"/><path class="cls-12" d="M3479.17,2554s18.9-50-57.6-86.34-103.48,17.14-103.48,17.14,19.38-57.87-15.19-71.86-127.76,27.43-127.76,27.43,2.39-201.54-433.15-163.56c-136.81,11.93-189.5,141.19-189.5,141.19s-68.66-78-298.44-57-166.51,246.9-166.51,246.9l1551.92,32.23s15.26-38-26.35-82.34C3577,2519.27,3479.17,2554,3479.17,2554Z"/><ellipse class="cls-13" cx="2317.11" cy="2705.9" rx="1776.11" ry="99.64"/><path class="cls-14" d="M1204.26,2517a28.72,28.72,0,0,0-29.4,21.35,535.41,535.41,0,0,0-16.28,143.07l165.61-13.15c2.31-2.1,4.69-4.18,7.13-6.21l-12.79-138.86Z"/><path class="cls-15" d="M1755.33,1885.5c-126.82-118.69-752.33,32.41-730.93,143.93,79.18,412.55,591.54,326.18,591.54,326.18L1289.71,2516c-7,131.94,48.62,193.12,48.62,193.12s869-78.57,841.92-228.93S1755.33,1885.5,1755.33,1885.5Z"/><path class="cls-16" d="M1755.33,1885.5c-126.82-118.69-752.33,32.41-730.93,143.93,79.18,412.55,591.54,326.18,591.54,326.18L1289.71,2516c-7,131.94,48.62,193.12,48.62,193.12s205.15-18.55,413-54.87c181.22-53,347.46-116.62,346.73-171.77-1.08-81.19-113.62-287.55-187.66-414.73C1826.36,1964.85,1755.33,1885.5,1755.33,1885.5Z"/><path class="cls-17" d="M1653.75,2057.65l-564.93,129.63c161.12,230,527.12,168.33,527.12,168.33L1289.71,2516c-2.62,49.49,3.57,89,12.32,119.12,152.88-24.36,476.1-86.78,558-189.33C1968.24,2310.15,1653.75,2057.65,1653.75,2057.65Z"/><path class="cls-18" d="M1863.67,1084.13l-98,409.67L2034,1737.62l378.9,87.78c128.24,47.42,190.7-200.15,190.7-200.15L2196,1528.07S1933.64,1078.9,1863.67,1084.13Z"/><path class="cls-19" d="M1807.49,1319l-41.82,174.81L2034,1737.62c-9.5-296.36-149-480.44-149-480.44Z"/><path class="cls-20" d="M1680,981.13l-306.19,2.58s-89.67,32.59-196,247.23-137.75,762.49-137.75,762.49c235.58-76.29,481.51-118.57,754.49-72,0,0,2.79-327.8,45.2-512.59s25-329.17,25-329.17Z"/><g class="cls-21"><path class="cls-22" d="M1137.11,1339.36c-73.88,250.06-97.06,654.07-97.06,654.07,235.58-76.29,481.52-118.57,754.49-72,0,0,.78-90.39,7.65-203l-415.66-339.34Z"/></g><path class="cls-23" d="M1542.76,982.29a142.12,142.12,0,0,0,9.56,88.41A139.84,139.84,0,0,0,1652.66,1150a209,209,0,0,0,20.88,2.94,255.61,255.61,0,0,0,43.86.07,56.85,56.85,0,0,0,46.95-32.67L1799.8,1045,1680,981.13Z"/><path class="cls-18" d="M1518.27,968.17C1205.68,934.4,1077.55,1208.6,1031.42,1549c-35.58,262.57-17.82,419.42-7,480.42a20.94,20.94,0,0,0,31,14.49c193.1-110,450.71-109.83,450.71-109.83s-33.39-303.91,38.5-588c53.35-210.86,24-315.51,5.25-355.45A39.46,39.46,0,0,0,1518.27,968.17Z"/><path class="cls-18" d="M1031.42,1549c-35.58,262.57-17.82,419.42-7,480.42a20.94,20.94,0,0,0,31,14.49c3.95-2.25,8-4.38,12-6.54l0-.05s-131-1107.55,450.86-1069.16C1205.68,934.4,1077.55,1208.6,1031.42,1549Z"/><path class="cls-19" d="M1211.2,1131.77c-175.79,708.85,294.92,802.32,294.92,802.32S1522,1484.23,1567.5,1230l-47.14-113.14Z"/><path class="cls-18" d="M1760.66,1019.11l-28.21-10.28c-15.59-5.68-27.24,9.59-24.13,25.89,11,57.85,20.83,178.55-9.25,351-42.9,245.94-16.7,516.9-16.7,516.9l164.56,59.25c-3.14-132.87,25.83-412.38,61.32-577.41s-16.84-289.65-16.84-289.65Z"/><path class="cls-19" d="M1760.66,1019.11l-28.21-10.28c-15.59-5.68-27.24,9.59-24.13,25.89,5.06,26.5,9.8,66.34,10.62,118.16,11.38-.92,90.48-8.73,174-54-1-2.63-1.58-4.07-1.58-4.07Z"/><path class="cls-19" d="M1691.19,1436.81c-31.5,230.9-8.81,465.81-8.81,465.81l164.55,59.25c-2-85,9.14-230.08,26.72-366.78C1850.76,1583.47,1777.14,1540.86,1691.19,1436.81Z"/><polygon class="cls-20" points="1727.66 1318.1 1863.22 1345.21 1864.3 1319.18 1728.74 1283.4 1727.66 1318.1"/><path class="cls-14" d="M1588.52,2538.24c-24.85,48.72-48.81,143.41-48.81,143.41,49.07,35,101.22,58.65,150.73,74.64,21.5-60.13,50.08-139,68.19-188.88l-4.15-3.79Z"/><path class="cls-16" d="M2048.8,1942.35C1955,1908.27,1793,1836,1505.67,1845.22c-257.62,8.28-489,127.64-489,127.64-1,66.2,36.87,281.87,232.71,315.08s423.39-151.29,423.39-151.29c-43.2,140.87-114.6,408-114.6,408,125,82.83,218.82,51.58,218.82,51.58s137.56-165.89,201.54-307.92S2142.57,1976.42,2048.8,1942.35Z"/><g class="cls-24"><path class="cls-25" d="M2063.29,1949.75l-5.25-.86s-94.16,407.36-339.72,657.27c37.72,1.15,58.67-9.88,58.67-9.88s137.56-165.89,201.55-307.92C2038.77,2154.67,2130.9,1996.3,2063.29,1949.75Z"/></g><g class="cls-21"><path class="cls-26" d="M2048.8,1942.35C1955,1908.27,1793,1836,1505.67,1845.22c-121.66,3.91-237.43,32.59-325.78,61.78,253.41-52.58,474.76-6.52,602.68,34.16,60.44,19.22,111.44,58.89,148.76,110.16,32.06,44,77.39,70.37,121.26,76.51C2090,2039.36,2107.94,1963.84,2048.8,1942.35Z"/></g><path class="cls-14" d="M1529.37,971.36c15.49,36.45,52.33,78.1,131.43,75.93,5.58-.15,14.69-1.85,24.11-5.63,14.44-5.79,29.58-16.47,33.69-34l.92-10.62,4-45.05,1.09-12.4,7.56-86.09-144.61-38.19Z"/><path class="cls-27" d="M1684.91,1041.66c14.44-5.79,29.58-16.47,33.69-34l.92-10.62L1731,951c-89.41-1.38-135.88-40.63-135.88-40.63S1597.87,1012,1684.91,1041.66Z"/><path class="cls-14" d="M1860.79,801.35c-8.16-1.49-17.47,4.47-17.9,12.75l-28,58.66c10,8.9,26.06,8.67,37.59,1.8s19-19.14,23-31.93c2.51-7.9,3.89-16.45,1.77-24.47S1869,802.84,1860.79,801.35Z"/><path class="cls-14" d="M1643.45,632.1C1603,657.86,1587.61,750.51,1588.37,793c.53,29,12.92,89.18,21.21,114s154,71.17,194,57.82,67.72-292.1,67.72-292.1C1854.83,623.34,1683.89,606.33,1643.45,632.1Z"/><path class="cls-28" d="M1859.27,581.72c-68.36-41.88-149.69-52.86-222-10.42-12.37,7.26-24.35,16.24-31.18,28.84-3.71,6.83-6,14.8-11.89,19.85-5.49,4.69-13.14,6-19.16,10-7.42,4.92-11.58,13.37-15.12,21.53-17.46,40.29-28.07,84.15-25.69,128,.9,16.71,3.67,33.26,6.44,49.77,1.48,8.81,3.32,18.32,9.95,24.31s19.63,5.19,22.24-3.36c10.31,32,18.21,61.46,42.37,89.58,22.33,26,99,70.15,132.82,75.56,83.11,13.3,110.1-61.4,111.87-91.11,1.58-26.38,1.86-62.61-13.23-85.33-5.47,9.32-7.77,41.64-26.29,41.32-22.15-.39-62-15.37-84-18.41-23.83-3.3-54.08-13.67-72.47-29.73-20-17.5-28-35.72-32.46-55.62-2.32-10.28-1.5-21-.77-31.48,1.59-22.77,2.94-46.38,13.53-66.6a10.63,10.63,0,0,1,2.61-3.56,10.51,10.51,0,0,1,3.83-1.66c37.57-10.4,68.2,8.67,100.79,24.41,37,17.84,76.74,29,116.27,40,22.6,6.32,52,10.34,64.92-9.24,5.2-7.88,6.09-17.83,5.67-27.26C1936.12,651.43,1901.63,607.67,1859.27,581.72Z"/><path class="cls-28" d="M1885.19,717.82c-5.41,5.17-12.86,7.41-20,9.1a106.74,106.74,0,0,1-24.93,2.81c-16.74,0-33.28-3.6-49.11-8.89s-30.72-12.33-45.64-19.5-29.88-14.44-45.45-20.16a201.21,201.21,0,0,0-23.78-7.25c-8.43-2-17.09-3.07-25.73-2a51.42,51.42,0,0,0-6.16,1.16c-.73.18-.42,1.25.3,1.11,8.86-1.72,17.92-.8,26.67,1.12a175.07,175.07,0,0,1,24.2,7.41c15.6,5.86,30.54,13.26,45.53,20.51s30.14,14.54,45.92,20.11,32.43,9.53,49.28,10.08a113.77,113.77,0,0,0,25.26-1.91c7.49-1.42,15.3-3.43,21.48-8.12a28.89,28.89,0,0,0,4-3.7A1.35,1.35,0,0,0,1885.19,717.82Z"/><path class="cls-28" d="M1836,984Z"/><path class="cls-28" d="M1855.8,855.69c-.77-1.14-1.56-2.26-2.37-3.37-.54-.72-1.74-.07-1.24.72a97.59,97.59,0,0,1,12.68,29.69,103.05,103.05,0,0,1,2.31,32.66,120.42,120.42,0,0,1-7.83,33.18,125.13,125.13,0,0,1-6.91,15q-1.68,3.11-3.62,6.06c-.66,1-1.36,2-2.07,3s-1.24,1.68-2,2.66a62.64,62.64,0,0,1-4.77,5.27c-.85.83-1.73,1.63-2.63,2.39q-.63.54-1.29,1.05l0,0h0l0,0a4.08,4.08,0,0,1-.33.25c-.24.19-.49.37-.74.55a41.93,41.93,0,0,1-5.94,3.54l-.74.34-.37.16-.09,0h0c-.2.08-.11.05,0,0-.53.22-1.06.42-1.59.61-1.09.38-2.2.72-3.31,1a31.21,31.21,0,0,1-3.32.74c-1.86.31-1.41,3.34.45,3.28a26.54,26.54,0,0,0,7.24-1.18,36.28,36.28,0,0,0,6.69-2.95,45.54,45.54,0,0,0,11.17-9.25c7.08-7.82,12-17.32,16-27a126.36,126.36,0,0,0,8.81-34,105.46,105.46,0,0,0-1.61-33.9A88.62,88.62,0,0,0,1855.8,855.69Z"/><path class="cls-28" d="M1827.77,988.9h0C1827.66,989,1827.57,989,1827.77,988.9Z"/><path class="cls-20" d="M1789.26,897.72l-56.66-12.57a2.36,2.36,0,0,0-3,2c-1,8.43-2.79,29.54,26.43,38.6,26.32,8.16,33.26-18.56,34.64-25.8A1.94,1.94,0,0,0,1789.26,897.72Z"/><path class="cls-14" d="M1580.08,749.89c-5.13,1.3-9.37,4.94-12.82,9-18,20.93-17.07,55.53,2,75.5,12.37,13,32.49,20.47,43.1,1.38a34.15,34.15,0,0,0,3.31-10.47C1614.3,792.82,1609.41,742.47,1580.08,749.89Z"/><path class="cls-14" d="M1587.81,803c-5-6.94,7.62-11.34,7.91-14.22.79-7.68-2-17.12-10-21.15s-12.6,13.9-12.6,13.9l14.73,50.54c9.69,4.84,13.56-7.76,11.3-14.54S1592.83,810,1587.81,803Z"/><path class="cls-28" d="M1535.3,832.12a.14.14,0,0,0,0-.06Z"/><path class="cls-28" d="M1547.14,848.66l-.09-.06Z"/><path class="cls-28" d="M1568.63,646.42A275,275,0,0,0,1539,701.8a230.74,230.74,0,0,0-14.94,60.6,197.67,197.67,0,0,0-.29,37.21c1.11,12.68,3.34,25.67,8.89,37.24a40.25,40.25,0,0,0,10.06,13.71,28.05,28.05,0,0,0,15.57,6.72c1.46.11,2.91,0,4.37,0a1.63,1.63,0,0,0,0-3.25,27.41,27.41,0,0,1-8.15-1.46,23.37,23.37,0,0,1-6.65-3.35c-.25-.17-.49-.35-.73-.53l-.09-.06.09.06-.53-.42c-.52-.43-1-.88-1.52-1.35a36.53,36.53,0,0,1-2.71-2.86,40.5,40.5,0,0,1-4.42-6.48c-.7-1.26-1.35-2.54-2-3.85-.15-.31-.29-.63-.43-1,0-.1-.26-.6-.3-.69a.14.14,0,0,1,0,.06l0-.06c-.29-.7-.57-1.41-.84-2.12a85.6,85.6,0,0,1-2.76-8.76c-.79-3-1.45-6.13-2-9.23-.58-3.27-.93-5.83-1.28-9a199.68,199.68,0,0,1-.76-33.79,220.89,220.89,0,0,1,12.53-59.84A310.53,310.53,0,0,1,1566.5,654q1.95-3.27,4-6.51C1571.23,646.32,1569.41,645.29,1568.63,646.42Z"/><path class="cls-29" d="M1713,661.94a.39.39,0,0,1-.08.1C1712.87,662.12,1712.84,662.17,1713,661.94Z"/><path class="cls-29" d="M1713.31,661.48a.47.47,0,0,1-.06.09S1713.28,661.54,1713.31,661.48Z"/><path class="cls-29" d="M1698,663.44h0Z"/><path class="cls-29" d="M1684.83,655.4Z"/><path class="cls-29" d="M1684.92,655.47l-.09-.07.13.1Z"/><path class="cls-29" d="M1709.39,665.09h0l-.09,0C1709,665.29,1709.72,665,1709.39,665.09Z"/><polygon class="cls-29" points="1697.95 663.44 1697.94 663.44 1697.95 663.44 1697.95 663.44"/><path class="cls-29" d="M1684.83,655.4Z"/><path class="cls-29" d="M1713.44,661.05a3.76,3.76,0,0,0-.17.39c0,.09,0,.13,0,.13a.47.47,0,0,0,.06-.09q0,.09-.06.09c-.09.13-.21.25-.29.38l0,.09a.39.39,0,0,0,.08-.1c-.15.23-.12.18-.08.1-.11.14-.24.28-.33.42s-.25.42-.37.62a1.17,1.17,0,0,1-.08.13c0-.07.13-.19,0,0s-.06.09,0,0l0,0a5.11,5.11,0,0,1-.45.48l-.25.23-.07.06h0c.06,0,.13-.11.14-.1l-.14.1h0l-.06.06.06-.06h0c-.17.12-.46.29-.5.32-.4.23-.82.45-1.23.66l-.22.11h0c.33-.1-.41.2-.1,0l.09,0c-.25.07-.49.17-.74.23a2.9,2.9,0,0,0-.65.14h0c.13,0,.49,0,.09,0H1708l-.23,0c-.32,0-.64,0-1,0a19.53,19.53,0,0,1-2-.11l-.43-.06h0c-.36-.06-.72-.12-1.08-.2a29,29,0,0,1-4.18-1.23l-1-.41-.1,0c.11,0,.2.08,0,0l-.16-.06.14.06-.59-.27c-.72-.32-1.43-.66-2.13-1-1.5-.76-3-1.6-4.38-2.49s-2.94-2-4.36-3l-1.07-.8-.47-.36h0l0,0-.13-.1h0l.09.07-.36-.28q-1.08-.84-2.13-1.71c-5.69-4.64-11-9.72-16.27-14.83-4.61-4.47-9.16-9-14.15-13a58.83,58.83,0,0,0-11.7-7.85,23.14,23.14,0,0,0-13.08-2,19.75,19.75,0,0,0-3.13.73.55.55,0,0,0,.29,1.07,20.21,20.21,0,0,1,12.49,2.43,65.64,65.64,0,0,1,11.42,7.54c5.15,4.23,9.87,8.91,14.62,13.57,5.3,5.22,10.65,10.4,16.38,15.16q4.37,3.63,9.06,6.84A51.1,51.1,0,0,0,1697,668a27,27,0,0,0,9.24,2.41,11.63,11.63,0,0,0,5.86-1.12,8.12,8.12,0,0,0,4.12-5.19,4.7,4.7,0,0,0-.7-3.3A1.16,1.16,0,0,0,1713.44,661.05Z"/><path class="cls-29" d="M1712.14,663.2c.12-.18,0-.06,0,0S1712,663.35,1712.14,663.2Z"/><path class="cls-29" d="M1704.45,665.34c.23,0,.55,0,0,0Z"/><polygon class="cls-29" points="1711.32 664.02 1711.33 664.01 1711.33 664.01 1711.32 664.02"/><path class="cls-29" d="M1708,665.48h0Z"/><path class="cls-29" d="M1714.2,647.88l0,0Z"/><path class="cls-29" d="M1724.22,651.74a37,37,0,0,1-4.81-1.8c-1.69-.75-3.45-1.33-5.17-2l0,0,0,0s-.29-.13-.34-.14l-.58-.26-1.24-.58c-.79-.38-1.57-.79-2.34-1.21q-2.38-1.31-4.7-2.72c-6.31-3.85-11.83-8.54-17.4-13.38s-11.52-9.86-18.12-13.56A59.38,59.38,0,0,0,1649,609a62.36,62.36,0,0,0-21.88.67c-.87.19-1.73.4-2.59.62-1.29.34-.74,2.26.55,2a60.81,60.81,0,0,1,21.1-.57,63.94,63.94,0,0,1,20.18,6.4c6.55,3.42,12.3,8.09,17.88,12.89s11.12,10,17.19,14.37a51.33,51.33,0,0,0,9.28,5.36,42.39,42.39,0,0,0,5.2,2,20.7,20.7,0,0,0,5.49.61c.87,0,1.74,0,2.61,0A.76.76,0,0,0,1724.22,651.74Z"/><path class="cls-29" d="M1877.52,637.64a53.89,53.89,0,0,0-5,2.19c-1.64.88-3.1,2.1-4.75,2.93a37.57,37.57,0,0,1-10.64,3.35c-1.84.31-3.66.72-5.52,1-.93.11-1.77.57-2.7.71a18.52,18.52,0,0,1-3,.08c-1.89,0-3.79-.11-5.67-.29a34.88,34.88,0,0,1-6.28-1.38c-4.19-1.22-8.48-2.06-12.67-3.33s-8.2-3.15-12.29-4.81c-8.17-3.3-16.19-6.95-24.2-10.63-2.07-.95-4-2.1-6.06-3.18s-4-2-6-2.9c-4-1.87-8-3.69-12-5.55-8-3.72-16.09-7.24-24.38-10.3a224.15,224.15,0,0,0-24.73-8,158.42,158.42,0,0,0-24.9-3.77c-8.22-.63-16.73-1.1-24.94,0a121.3,121.3,0,0,0-12.12,2.24,58.89,58.89,0,0,0-11.58,3.6c-1.87.88-3.79,1.65-5.65,2.53-.25.12-.08.54.18.45a117.09,117.09,0,0,1,11.89-3.6,87.51,87.51,0,0,1,12.55-2.34,143.08,143.08,0,0,1,24.92-.77c8.5.51,16.82,2.36,25.07,4.37,4.09,1,8.11,2.22,12.16,3.38,4.22,1.21,8.46,2.48,12.57,4,8.31,3.14,16.49,6.65,24.6,10.25s15.92,7.65,24.08,11.06c4.07,1.71,8,3.8,12,5.72s8.06,3.88,12.14,5.72a125.78,125.78,0,0,0,12.32,4.75c4.17,1.37,8.28,2.82,12.54,3.87a33.79,33.79,0,0,0,6.51.71c2,.09,4,.23,6,.34s3.92.12,5.88.05a11.43,11.43,0,0,1,2.55.15,10.64,10.64,0,0,0,2.93,0,48.75,48.75,0,0,0,11.24-2.57c1.78-.6,3.45-1.4,5.19-2.06a18.34,18.34,0,0,0,5.09-2.62,15.64,15.64,0,0,0,3.55-4.14C1878.81,638.29,1878.2,637.36,1877.52,637.64Z"/><path class="cls-29" d="M1769.61,640.79c-1.84-1.35-3.54-2.88-5.39-4.22-3.71-2.67-7.49-5.24-11.31-7.76A167.75,167.75,0,0,0,1730.29,616a145.28,145.28,0,0,0-24.44-8.68c-4.14-1.06-8.32-2-12.5-2.89s-8.44-1.65-12.71-2.17-8.49-.87-12.75-1.06a86.92,86.92,0,0,0-12.81.08l-3.18.36a.38.38,0,0,0,0,.76c2.12.1,4.23.31,6.35.34s4.31.09,6.46.2q6.36.33,12.67,1.14a147.81,147.81,0,0,1,24.91,5,195.42,195.42,0,0,1,23.64,9c3.89,1.77,7.77,3.58,11.52,5.61s7.48,4.23,11.1,6.55c3.81,2.44,7.47,5.13,11.3,7.54,2,1.23,3.93,2.36,6,3.42s4,2.22,6,3.1c1,.42,2,.84,3,1.24.36.14.5-.37.24-.57C1773.31,643.58,1771.48,642.16,1769.61,640.79Z"/><path class="cls-29" d="M1846.87,585.28c-.27.7-.67,1.36-.9,2.07s-.37,1.45-.61,2.16a17.73,17.73,0,0,1-2.07,4,19.73,19.73,0,0,1-2.91,3.41c-1.13,1.09-2.2,2.25-3.37,3.29-2.77,2.46-6.47,2.36-9.93,2.85a61.2,61.2,0,0,1-11.32.46c-15.19-.7-30.19-4.75-44.74-8.91-7.4-2.11-14.77-4.34-22.19-6.39s-14.85-3.72-22.36-5.22a126.75,126.75,0,0,0-22.82-2.45,171.22,171.22,0,0,0-25.18,1.73,154.24,154.24,0,0,0-21,3.81c-6,1.67-12.19,4.18-16.81,8.52a26.17,26.17,0,0,0-3,3.45c-.66.87.8,2,1.52,1.17,9.06-10.26,23.66-11.88,36.45-13.38a188.94,188.94,0,0,1,25.38-1.48,166.53,166.53,0,0,1,22.93,2.34c7.62,1.22,15.09,3.19,22.55,5.16s15,4.15,22.43,6.22c14.76,4.09,29.84,8.06,45.19,9.08a48,48,0,0,0,11.73-.4,21.55,21.55,0,0,0,5.27-1.66c1.59-.73,3-1.71,4.59-2.46s2.92-1.28,4.32-2a14.06,14.06,0,0,0,3.56-2.92,21.67,21.67,0,0,0,4.84-8,8.08,8.08,0,0,0,.15-4.44C1848.35,584.37,1847.14,584.56,1846.87,585.28Z"/><path class="cls-29" d="M1797.35,942.7c.14-.11.13-.1,0,0Z"/><path class="cls-29" d="M1788.86,950.85l-.11.15Z"/><path class="cls-29" d="M1786.09,955.45l0-.06a.14.14,0,0,1,0-.06C1786.25,955,1785.88,955.91,1786.09,955.45Z"/><path class="cls-29" d="M1813.86,925.92c-.24.32.22-.26,0,0Z"/><path class="cls-29" d="M1786.09,960.23s.05.08,0,0Z"/><path class="cls-29" d="M1824.13,904.57a27.71,27.71,0,0,1-2,5.8c-.5,1.16-1.05,2.29-1.61,3.42-.19.39-.35.79-.52,1.19.15-.36-.06.15-.08.18s-.13.31-.2.46c-.29.67-.6,1.34-.92,2a51.16,51.16,0,0,1-3.89,6.83c-.34.49-.69,1-1.05,1.45v0c.22-.26-.24.32,0,0l0,0-.26.33c-.17.21-.35.42-.53.62-.33.38-.69.75-1.06,1.1-.17.16-.34.32-.52.47a2.11,2.11,0,0,1-.23.19c.18-.09.39-.15,0,0l0,0-.07.05c-1.8,1.26-3.78,2.31-5.65,3.48-2.36,1.46-4.69,3-7,4.54a88.75,88.75,0,0,0-7.11,5.41,52,52,0,0,0-6,5.77,22.49,22.49,0,0,0-4.58,7.62,6.4,6.4,0,0,0,.46,5.45,6.06,6.06,0,0,0,2,2.07,3.18,3.18,0,0,0,3-.14,1.16,1.16,0,0,0,.23-1.79c.14.18-.06-.12-.07-.14l-.17-.33c.35.65-.16-.36-.18-.42-.13-.21-.53-.85-.24-.31-.07-.12-.14-.25-.22-.37v0c0,.27-.25-.43,0,0h0c0-.11-.08-.24-.1-.34l0-.2v.06c-.06-.38-.07-.43,0-.17a.52.52,0,0,1,0,.11c0-.11,0-.38,0-.41s0-.25,0-.37,0-.14,0-.29l0,.29c0,.08,0,.06,0-.11s0-.32,0-.48-.05-.55,0-.15,0,0,0-.13.07-.26.11-.39c.09-.31.19-.62.3-.92s.18-.44.26-.66l0,.06c-.21.46.16-.43.05-.12a.14.14,0,0,0,0,.06c.05-.11.09-.22.15-.33.26-.56.55-1.1.86-1.63s.61-1,.94-1.49c.18-.26.36-.51.55-.76l.19-.26,0-.07-.11.15.11-.15.09-.11a42.88,42.88,0,0,1,5.72-5.87c.5-.42,1-.84,1.51-1.25l.85-.67.28-.22,0,0,0,0c.17-.12.18-.13,0,0l.25-.19q1.71-1.31,3.46-2.53c2.17-1.52,4.39-3,6.62-4.38,1.85-1.17,3.82-2.22,5.58-3.51,3.87-2.83,6.35-7.42,8.33-11.67.68-1.47,1.32-3,1.9-4.48a26.92,26.92,0,0,0,1.06-4.06,29.71,29.71,0,0,0,.66-7.16C1825.19,904.13,1824.24,903.93,1824.13,904.57Z"/><path class="cls-29" d="M1785.4,958.23l0-.29C1785.38,958.09,1785.39,958.18,1785.4,958.23Z"/><path class="cls-29" d="M1785.62,959.54c-.23-.4,0,.3,0,0v0Z"/><path class="cls-29" d="M1785.48,959.07V959a.52.52,0,0,0,0-.11C1785.41,958.64,1785.42,958.69,1785.48,959.07Z"/><path class="cls-29" d="M1811.23,928.66l0,0C1811.62,928.51,1811.41,928.57,1811.23,928.66Z"/><path class="cls-29" d="M1831.93,917.2a1.06,1.06,0,0,0-1,1,37.82,37.82,0,0,1-3.64,12.16,40.73,40.73,0,0,1-7.36,10.52,59.13,59.13,0,0,1-11.16,8.36q-3.06,1.89-6.15,3.74a62.37,62.37,0,0,0-5.52,3.62,29.75,29.75,0,0,0-5.56,5.25,12,12,0,0,0-2.24,3.48,20.07,20.07,0,0,0-.81,3.61c-.09.65.73,1.4,1.27.74a24.8,24.8,0,0,1,2.21-2.26c.18-.17.39-.34.57-.53s.22-.27.34-.42l.14-.19c-.07.1-.07.1,0,0,.35-.44.7-.88,1.07-1.31a50.64,50.64,0,0,1,4.71-4.67,72.8,72.8,0,0,1,11.13-8,66.8,66.8,0,0,0,11.82-8.63,36.15,36.15,0,0,0,7.77-10.89,38.68,38.68,0,0,0,3.47-14.62A1,1,0,0,0,1831.93,917.2Z"/><path class="cls-29" d="M1759.09,973.77s0,0,0-.11C1759.06,973.7,1759.08,973.73,1759.09,973.77Z"/><path class="cls-29" d="M1752.68,959.75l.49.29-.19-.17Z"/><path class="cls-29" d="M1761.3,969.49c-.38-.74-.8-1.47-1.25-2.17a34.64,34.64,0,0,0-3-4.37c-.56-.63-1.2-1.21-1.82-1.78a7.17,7.17,0,0,0-2.23-1.3l.19.17-.49-.29.3.12a43.92,43.92,0,0,0-4.77-3.72c-.93-.63-1.77-1.47-2.66-2.17a13.66,13.66,0,0,0-1.49-1.14,14,14,0,0,0-1.72-.78c-2.25-1-4.57-1.72-6.84-2.62a59.61,59.61,0,0,0-6.86-2.34c-4.82-1.23-9.68-2.29-14.54-3.35-2.47-.54-4.81-1.53-7.27-2.1s-4.84-1.12-7.25-1.71c-4.89-1.18-9.72-2.66-14.55-4.07-2.41-.7-4.83-1.4-7.18-2.31s-4.55-1.9-6.84-2.81c-1.9-.76-3.49-1.44-5.43-2.34s-3.84-1.84-5.75-2.68a47.4,47.4,0,0,1-5.53-3.07,56.4,56.4,0,0,1-5.13-3.55,101,101,0,0,1-9.23-8.19,48.8,48.8,0,0,1-4.17-4.58c-.66-.83-1.29-1.67-1.89-2.53-.28-.39-.52-.81-.81-1.18s-.77-.81-1.1-1.25c-.62-.82-1.15-1.71-1.69-2.58a.24.24,0,0,0-.42.24c.52,1.15,1.13,2.25,1.6,3.41a16,16,0,0,0,1.67,3c1.34,2,2.8,4,4.31,5.84a46.43,46.43,0,0,0,4.84,5.26c1.82,1.67,3.73,3.24,5.7,4.73,3.85,2.92,7.9,5.57,11.92,8.25a52.92,52.92,0,0,0,6.42,3.36,77.39,77.39,0,0,0,7.42,3.09c2.72,1,5.45,1.89,8.18,2.82s5.57,1.83,8.4,2.59,5.61,1.42,8.4,2.15,5.67,1.55,8.53,2.2c1.38.3,2.8.46,4.19.68a41,41,0,0,1,4.34,1.07q4.17,1.11,8.32,2.31c2.66.77,5.3,1.57,8,2.32a36.05,36.05,0,0,1,3.94,1.25c1.2.5,2.39,1,3.56,1.6a31.73,31.73,0,0,0,4.07,1.85,15.28,15.28,0,0,1,3.47,1.43c1,.65,2,1.33,2.93,2.07.42.34.86.67,1.26,1s.6,1.11,1,1.61c1.43,1.92,3.17,3.38,4.44,5.39a18.56,18.56,0,0,1,1.71,3.08c.12.32.18.93.29,1.41a3.61,3.61,0,0,0,.26.69s.09.2.11.26,0-.07,0-.11c0,.13.06.14,0,.11.12.29.23.59.36.88a12.22,12.22,0,0,0,2,2.94.83.83,0,0,0,1.38-.37,6.46,6.46,0,0,0,.45-2.57,8.8,8.8,0,0,0-.54-2.64A20.82,20.82,0,0,0,1761.3,969.49Z"/><path class="cls-29" d="M1715.39,933.41c-.68-.28-1.35-.56-2-.81A19.32,19.32,0,0,0,1711,932c-1.41-.34-2.8-.81-4.23-1-3.07-.45-6.16-.62-9.24-.94-2.69-.27-5.08-.6-7.8-1.1-2.51-.45-5-1.1-7.45-1.7a137.66,137.66,0,0,1-14.7-4.5,56.27,56.27,0,0,1-7-3.06c-2.29-1.19-4.54-2.48-6.77-3.78q-3.71-2.17-7.22-4.64-1.78-1.26-3.53-2.6c-1.15-.89-2.4-1.62-3.61-2.42-.38-.25-.73.28-.46.59a25.69,25.69,0,0,0,2.71,2.9c1,.83,2,1.64,3,2.44,2.07,1.62,4.2,3.17,6.39,4.63a134.48,134.48,0,0,0,13.55,7.51,86.34,86.34,0,0,0,14.72,5.94,94.77,94.77,0,0,0,15.47,3.08c1.7.21,3.41.38,5.12.54s3.42.36,5.13.42c.81,0,1.63.09,2.44,0s1.78-.14,2.68-.15,1.62,0,2.43,0,1.78-.12,2.66-.17A.31.31,0,0,0,1715.39,933.41Z"/><path class="cls-29" d="M1693.44,957.19l-.06,0Z"/><path class="cls-29" d="M1729.86,980.72a12.65,12.65,0,0,0-.78-1.39,9.43,9.43,0,0,1-1.32-2.68,20.58,20.58,0,0,0-1.15-3.22,6.58,6.58,0,0,0-.84-1.26,18.77,18.77,0,0,0-1.33-1.62,22.45,22.45,0,0,0-2.48-2.19,77.28,77.28,0,0,0-11.74-7.48c-4-2.17-8.2-4.12-12.38-6-8.38-3.76-16.86-7.28-25.16-11.22-2-1-4-2.21-5.91-3.32s-3.94-2.35-5.86-3.61a85.66,85.66,0,0,1-11.28-8.94,136.58,136.58,0,0,1-10.14-10.28c-2.9-3.31-5.57-7.07-6.57-11.42a19.37,19.37,0,0,1-.5-3.11,1,1,0,0,0-1.94,0c-.26,4.54,1.62,8.8,4.06,12.53a84.76,84.76,0,0,0,9,10.91c6.48,7,13.72,13.65,22.19,18.16,2,1.06,4,2,6,3.09s4,2.05,6.13,3c4.27,1.89,8.59,3.66,12.9,5.46l1.46.61.77.32.33.14.06,0-.06,0,.27.11,3.2,1.37c2.06.9,4.11,1.82,6.13,2.79a119.41,119.41,0,0,1,12,6.53c1,.61,1.92,1.24,2.85,1.9.42.3.84.6,1.25.92s.77.6,1.16.94c.86.73,1.7,1.5,2.53,2.27.37.35.72.73,1.09,1.08s.91.72,1.34,1.1a6.23,6.23,0,0,1,2,2.43c.37,1,0,2.2.21,3.27a11.92,11.92,0,0,1-.4,5.78c-.16.48-.43.91-.59,1.4a9.06,9.06,0,0,0-.17,1.48.87.87,0,0,0,1.26,1,5.38,5.38,0,0,0,1.29-.86,5,5,0,0,0,.89-1.76,14,14,0,0,0,.61-6.32A6.1,6.1,0,0,0,1729.86,980.72Z"/><path class="cls-30" d="M1790.27,824.57c-5.12-1.46-10.16-2.45-13-3-3.38-23.16,5.43-58.67,5.53-59a3.34,3.34,0,1,0-6.48-1.63c-.41,1.61-9.87,39.72-5.24,64.2a3.34,3.34,0,0,0,2.79,2.68,135.28,135.28,0,0,1,14.65,3.19c10.41,3,12.88,5.79,12.93,6.53s-2.07,4.4-12.39,10.17a151.32,151.32,0,0,1-14.21,6.88,3.34,3.34,0,1,0,2.53,6.18,155.4,155.4,0,0,0,14.89-7.2c11.11-6.21,16.15-11.43,15.85-16.43C1807.77,832,1802.11,828,1790.27,824.57Z"/><path class="cls-31" d="M1730.26,772.76c-5.12.18-9.1,5.19-8.89,11.19s4.53,10.73,9.65,10.55,9.1-5.19,8.89-11.2S1735.38,772.58,1730.26,772.76Z"/><path class="cls-31" d="M1819.43,790.06c-5.12.18-9.1,5.19-8.89,11.19s4.53,10.73,9.65,10.55,9.1-5.19,8.89-11.19S1824.55,789.88,1819.43,790.06Z"/><path class="cls-32" d="M1748.12,720.5c-14-2.29-38.79,18.82-37.82,33.89,0,0,20.13-12,41.81-13.65S1762.1,722.79,1748.12,720.5Z"/><path class="cls-32" d="M1824.53,735.5c-14.29-6.42-38.78,8-17.71,12.79s34.91,21.59,34.91,21.59S1843,743.8,1824.53,735.5Z"/><path class="cls-27" d="M1706.83,792.76c-16.81-8.55-34.89-6.75-40.37,4s3.7,26.45,20.51,35,34.89,6.75,40.37-4S1723.64,801.32,1706.83,792.76Z"/><path class="cls-27" d="M1829.78,835.13c-1.88,8.51-.4,16.9,7.11,22.2,2.93-5.58,9.76-18.45,9.76-18.45s4-22.68,5.12-33.77C1838.22,810.51,1832.81,821.4,1829.78,835.13Z"/><path class="cls-33" d="M1880.67,584.62c-19-48.78-58.38-101.66-139.28-101.87-126.13-.33-194,66-197.92,204.22l12.3-.77,123.67-7.63,23.22-1.44,60-3.7,135.51-8.38c.06-1.74-.81-20.42-6.63-45.2A262.48,262.48,0,0,0,1880.67,584.62Z"/><path class="cls-34" d="M1662.94,544.47c-27.08-11.43-52.22-12.1-76.23-1.88-19,8.12-23.54,23.54-20.65,34.8,26.06-16.5,63.08-17.29,90.46-5.27,67.35,29.57,105.86,82.68,117.82,98.68C1758,597.4,1693.56,557.43,1662.94,544.47Z"/><path class="cls-34" d="M1756.41,468.39c-34.77-4.57-65,2.91-71.65,19.17,47.8-3.36,109.48,16.89,137,49.57s38.28,74,41.92,114.79C1875.16,609,1865,554.4,1838,515.13,1823.91,494.71,1783.66,472,1756.41,468.39Z"/><path class="cls-34" d="M1864.4,551.66c17.12,31.8,36.92,76.65,19.42,113.46,21.13-12.54,23.73-37.59,20.5-61.15C1902,586.71,1890.29,559.65,1864.4,551.66Z"/><path class="cls-35" d="M1923.54,635.54c-1.74-1.1-3.52-2.18-5.33-3.22-1.57-.91-3.18-1.82-4.8-2.68a148.76,148.76,0,0,0-21.87-9.79c-10.09-3.49-20-5.39-28.87-4.84-33,2.06-93.5,29.17-130.29,47.1-15,7.3-26,13.08-29.72,15l-1.33.71s34.46,2.07,78.47,3.86c43.09,1.75,95.32,3.22,133.38,2.23,32.09-.86,54.07-3.47,52-9.18C1961.44,664.76,1944.4,648.55,1923.54,635.54Z"/><path class="cls-36" d="M1869.89,2800.65l-349.58-59.87-4.2,24.54a8.87,8.87,0,0,0,7.34,10.16l354.34,60.68a35.48,35.48,0,0,0,27.1-6.39l1.13-.84a5.79,5.79,0,0,0,2.27-3.68l6.76-39.46h-2.88A45.83,45.83,0,0,1,1869.89,2800.65Z"/><path class="cls-37" d="M1905.6,2760.56l-175.21-115.93c-96.26,33.42-178.14-21.45-178.14-21.45l-31.94,117.6,366,62.68c11.53,2,26.78-6.11,29-18.94C1916.91,2774.91,1913.07,2765.39,1905.6,2760.56Z"/><path class="cls-20" d="M1761.25,2655.05a233.7,233.7,0,0,0-36.41,41.44,5.69,5.69,0,0,0,9.37,6.45,222.81,222.81,0,0,1,34.65-39.42,5.69,5.69,0,0,0-7.61-8.47Z"/><path class="cls-20" d="M1783.17,2673.9c-14.77,14.06-21.08,22.59-30.15,35.34a5.69,5.69,0,1,0,9.27,6.59c8.68-12.19,14.71-20.35,28.72-33.68a5.69,5.69,0,0,0-7.84-8.25Z"/><path class="cls-20" d="M1802.14,2688c-8.2,7.59-16.17,17.89-23.19,27-1.44,1.86-2.84,3.67-4.2,5.4a5.69,5.69,0,0,0,9,7L1788,2722c6.75-8.74,14.41-18.64,21.92-25.59a5.69,5.69,0,1,0-7.73-8.35Z"/><path class="cls-36" d="M1099.9,2450.42,948.12,2776.31a35.45,35.45,0,0,0-1,27.82l.51,1.32a5.82,5.82,0,0,0,3,3.16l36.3,16.9.74-2.78a45.84,45.84,0,0,1-3.2-44.7l149.74-321.51L1111.63,2446A8.87,8.87,0,0,0,1099.9,2450.42Z"/><path class="cls-37" d="M977.44,2793.11c-4.94,10.61-1.15,27.45,10.64,32.94,8.84,4.12,19,2.92,25.66-3l158-138.53c-6.92-101.66,67.56-166.22,67.56-166.22l-105-61.76Z"/><path class="cls-20" d="M1123.12,2665.5a5.69,5.69,0,1,0-8.69,7.35,222.28,222.28,0,0,1,28.91,43.79,5.69,5.69,0,0,0,10.17-5.11A233.87,233.87,0,0,0,1123.12,2665.5Z"/><path class="cls-20" d="M1103.4,2689.33a5.69,5.69,0,1,0-8.8,7.21c9.49,11.58,15.77,19.55,24.94,36.57a5.69,5.69,0,0,0,10-5.4C1119.89,2709.77,1113.32,2701.44,1103.4,2689.33Z"/><path class="cls-20" d="M1091,2712.81c-1.41-1.86-2.79-3.69-4.1-5.45a5.69,5.69,0,0,0-9.13,6.79l4.14,5.52c6.66,8.82,14.2,18.81,18.93,27.89a5.67,5.67,0,0,0,5.05,3.06,5.69,5.69,0,0,0,5-8.32C1105.78,2732.39,1097.93,2722,1091,2712.81Z"/><g class="cls-38"><path class="cls-5" d="M3079.45,994.24c-.55-2-.94-4.08-1.52-6.1,0-.17-.1-.34-.14-.51s-.07-.3-.11-.44c-.48-1.94-1.11-3.83-1.6-5.75-2.14-8.26-4.34-16.51-6.87-24.65-.53-1.72-1.2-3.41-1.75-5.13-2.68-8.33-5.44-16.64-8.53-24.83-.6-1.6-1.33-3.15-1.95-4.75-3.19-8.24-6.48-16.44-10.08-24.51-.71-1.59-1.53-3.12-2.25-4.7-3.67-8-7.43-16-11.49-23.81-.79-1.52-1.69-3-2.5-4.5-4.14-7.8-8.38-15.56-12.91-23.15-.92-1.54-2-3-2.9-4.56-4.56-7.47-9.2-14.9-14.13-22.15-1.14-1.67-2.41-3.26-3.56-4.92-4.9-7-9.85-14-15.09-20.79-1.31-1.71-2.76-3.32-4.1-5-5.24-6.62-10.52-13.21-16.09-19.59-1.72-2-3.59-3.83-5.34-5.77-5.36-6-10.73-11.93-16.38-17.67-2.12-2.16-4.41-4.17-6.57-6.29-5.47-5.36-10.91-10.75-16.63-15.88-2.66-2.4-5.5-4.61-8.22-6.95-5.42-4.68-10.8-9.42-16.44-13.89-3.24-2.58-6.69-5-10-7.45-5.33-4-10.57-8.13-16.07-12-3.75-2.61-7.69-5-11.52-7.52-5.29-3.49-10.5-7.08-15.94-10.4-4.74-2.88-9.68-5.49-14.53-8.24s-9.39-5.52-14.25-8.07c-6.51-3.43-13.26-6.55-20-9.72-3.4-1.62-6.69-3.39-10.15-4.94q-15.36-6.9-31.37-12.91t-32.12-10.9c-3.62-1.11-7.26-1.93-10.89-3-7.14-2-14.27-4.11-21.43-5.8-5.34-1.27-10.7-2.19-16.05-3.29s-10.9-2.4-16.36-3.34c-6.28-1.09-12.57-1.8-18.85-2.65-4.54-.62-9.08-1.42-13.62-1.91-6.66-.73-13.32-1.09-20-1.56-4.14-.29-8.29-.76-12.43-1-7.19-.33-14.35-.3-21.52-.34-3.59,0-7.18-.22-10.76-.17-7.69.11-15.33.58-23,1-3,.18-6.08.19-9.09.42-8,.6-16,1.57-24,2.54-2.6.31-5.23.48-7.82.83-8.39,1.15-16.7,2.64-25,4.18-2.12.4-4.27.66-6.39,1.08-8.41,1.67-16.73,3.68-25,5.75-2,.49-4,.85-5.92,1.36-8.48,2.22-16.86,4.77-25.21,7.4-1.72.54-3.48,1-5.19,1.52-8.5,2.78-16.88,5.87-25.23,9.06-1.5.58-3.05,1.05-4.56,1.64-8.22,3.23-16.31,6.78-24.36,10.41-1.57.71-3.18,1.31-4.74,2-8,3.72-15.88,7.74-23.71,11.84-1.52.8-3.08,1.49-4.59,2.31-7.71,4.13-15.25,8.58-22.75,13.09-1.55.94-3.16,1.77-4.7,2.72-7.25,4.47-14.33,9.23-21.37,14.05-1.65,1.12-3.36,2.14-5,3.28l-.38.26-.44.29c-1.77,1.14-3.41,2.43-5.15,3.59-32.25,21.46-61.25,47-85.28,77.1-3.47,3.89-6.8,7.93-10.16,11.93-1.69,2-3.45,4-5.12,6-3.36,4.13-6.59,8.4-9.84,12.64-1.64,2.15-3.36,4.23-5,6.41-3.18,4.29-6.21,8.71-9.27,13.11-1.57,2.24-3.2,4.42-4.73,6.69-3,4.48-5.88,9.1-8.77,13.69-1.45,2.3-3,4.54-4.4,6.87-2.76,4.54-5.36,9.22-8,13.87-1.41,2.49-2.91,4.91-4.28,7.43-2.61,4.76-5,9.66-7.51,14.53-1.27,2.51-2.62,5-3.86,7.48-2.47,5.09-4.77,10.3-7.1,15.5-1.08,2.42-2.26,4.79-3.31,7.24q-5,11.54-9.42,23.42-5.46,14.55-10,29.22c-.48,1.54-.83,3.09-1.29,4.63-2.48,8.25-4.87,16.5-6.94,24.78-.45,1.83-.77,3.68-1.2,5.52-1.91,8-3.74,16-5.26,24-.29,1.54-.47,3.09-.75,4.63-1.5,8.32-2.9,16.64-4,25-.1.74-.13,1.48-.23,2.21-1.16,9.12-2.13,18.24-2.8,27.35-.06.75,0,1.5-.11,2.25-.63,9.09-1.09,18.18-1.25,27.25,0,.37,0,.75,0,1.13q-.22,14.14.28,28.21c0,.47.07.93.09,1.39.37,9.16.93,18.3,1.77,27.4.94,51.81,8.54,102.8,20.83,155.48,37.83,162.12,31.07,245.87-5.41,343.14-.36,1-.72,2-1.06,2.91-23.22,65,11.25,136.52,75.89,160.76h0l301.57,113.1h0c64.63,24.24,137.64-7,162.88-71.21.38-1,.75-1.92,1.11-2.89,36.48-97.27,86.47-164.82,221.56-262.08,43.91-31.61,83.16-65,117.94-103.44,6.61-6.3,13.05-12.82,19.35-19.48.32-.34.66-.65,1-1q9.65-10.25,18.76-21.07c.24-.29.51-.56.75-.85,5.84-6.93,11.47-14.08,17-21.35.46-.6,1-1.16,1.41-1.77,5.21-7,10.2-14.1,15.09-21.35.67-1,1.4-1.92,2.07-2.92,4.59-6.9,8.94-14,13.24-21.17.85-1.43,1.79-2.79,2.64-4.23,4.12-7,8-14.27,11.82-21.54.88-1.67,1.85-3.27,2.72-5,3.88-7.6,7.51-15.38,11.07-23.23.66-1.46,1.41-2.86,2.06-4.34q6.21-14,11.67-28.6,4.47-11.88,8.31-23.84c.82-2.54,1.48-5.09,2.26-7.63,1.66-5.45,3.36-10.89,4.84-16.35.74-2.72,1.32-5.45,2-8.17,1.35-5.29,2.73-10.58,3.9-15.88.65-2.94,1.14-5.87,1.74-8.8,1-5.11,2.13-10.21,3-15.32.5-2.88.85-5.76,1.3-8.64.8-5.17,1.65-10.34,2.3-15.51.34-2.72.54-5.44.84-8.16.59-5.33,1.21-10.65,1.63-16,.22-2.71.29-5.41.47-8.11.34-5.33.71-10.67.89-16,.09-2.63,0-5.25.09-7.89.1-5.22.25-10.45.19-15.67C3094.69,1069.91,3089.64,1031.61,3079.45,994.24Z"/><path class="cls-39" d="M2713.54,594c-20.61-5.13-40.55-8.95-60.05-12l.19-.71c-13.14-1.79-320.21-63.06-508,198.39-5.5,7.24-8.83,12.13-9.72,13.48l.07,0a600.23,600.23,0,0,0-36.17,61.42,123.5,123.5,0,0,0,53.57,166.23,122,122,0,0,0,13.1,5.79,123.49,123.49,0,0,0,153.11-59.36,396.2,396.2,0,0,1,22.5-38.36l.1.06-.88,1.32C2352,915.15,2451,783.19,2653.9,833.7a123.51,123.51,0,0,0,145.4-76.33,124.91,124.91,0,0,0,4.25-13.68A123.5,123.5,0,0,0,2713.54,594Z"/><path class="cls-40" d="M2960.24,1266A123.33,123.33,0,0,0,2794,1319.51a396.37,396.37,0,0,1-22.49,38.37l-.11-.07.88-1.31c-10.61,15.21-109.6,147.17-312.53,96.67a123.51,123.51,0,0,0-145.4,76.33,122.12,122.12,0,0,0-4.25,13.68,123.5,123.5,0,0,0,90,149.66c20.61,5.12,40.55,9,60,12l-.18.71c13.13,1.79,320.2,63.06,508-198.4,5.51-7.24,8.83-12.13,9.72-13.48l-.06,0a601,601,0,0,0,36.17-61.42A123.49,123.49,0,0,0,2960.24,1266Z"/></g><path class="cls-6" d="M2500.58,1929.09,2072.35,1768.5a42.58,42.58,0,0,0-54.82,24.92l-2.52,6.73a42.57,42.57,0,0,0,24.91,54.81l428.23,160.6a42.59,42.59,0,0,0,54.82-24.92l2.52-6.73A42.58,42.58,0,0,0,2500.58,1929.09Z"/><path class="cls-6" d="M2441.13,2005.42,2066.94,1865.1a42.56,42.56,0,0,0-54.81,24.91l-2.53,6.73a42.59,42.59,0,0,0,24.92,54.82l374.19,140.32a42.57,42.57,0,0,0,54.82-24.91l2.52-6.73A42.58,42.58,0,0,0,2441.13,2005.42Z"/><path class="cls-6" d="M2373.58,2078.71l-303.94-114a42.57,42.57,0,0,0-54.81,24.92l-2.53,6.72a42.59,42.59,0,0,0,24.92,54.82l303.94,114a42.57,42.57,0,0,0,54.82-24.91l2.52-6.73A42.58,42.58,0,0,0,2373.58,2078.71Z"/><path class="cls-7" d="M2497.75,1928s-10.81,94.56-270.19-2.71l218.32,81.87s36.24,24.61,65-.94,11.85-54.94,11.85-54.94S2519.37,1936.14,2497.75,1928Z"/><path class="cls-7" d="M2443.71,2006.39s-10.81,94.57-270.19-2.71l218.32,81.88s36.24,24.6,65-.94,11.85-54.94,11.85-54.94S2465.33,2014.5,2443.71,2006.39Z"/><path class="cls-7" d="M2378.87,2080.69s-10.81,94.57-270.2-2.7L2327,2159.86s36.24,24.6,65-.94,11.85-54.94,11.85-54.94S2400.48,2088.8,2378.87,2080.69Z"/><path class="cls-40" d="M2246.81,1846.25l-165.48-62a21.28,21.28,0,0,0-27.41,12.45l-1.26,3.37a21.29,21.29,0,0,0,12.45,27.41l165.48,62A21.29,21.29,0,0,0,2258,1877l1.26-3.37A21.29,21.29,0,0,0,2246.81,1846.25Z"/><rect class="cls-40" x="2057.22" y="1866.69" width="46.17" height="80.8" rx="21.29" transform="translate(-435.82 3185.28) rotate(-69.44)"/><rect class="cls-40" x="2041.01" y="1976.54" width="46.17" height="46.17" rx="21.29" transform="translate(-533.07 3229.98) rotate(-69.44)"/><path class="cls-41" d="M2203.31,1152.56c-74.2,214.42,201.49,373.71,201.49,373.71s63.31-367.58,36.08-477.18S2277.51,938.13,2203.31,1152.56Z"/><path class="cls-42" d="M2768.35,1287.34c-232.93-106.13-403.19,409.37-403.19,409.37S3001.28,1393.47,2768.35,1287.34Z"/><path class="cls-43" d="M2575.63,1440.56c-5.9,4.89-111.29,92.66-180.17,175.82,22.61-97.51,27.8-207.89-9.81-316.8a11.6,11.6,0,1,0-21.93,7.57c43.6,126.25,27.12,255-6.49,361.77a195.66,195.66,0,0,0-13.7,26.5,11.57,11.57,0,0,0,1,10.73,963.45,963.45,0,0,1-65,140l21.9,8.22c24.87-44.5,54.31-105.17,76.73-175.41,55.29-89.9,210.54-219.16,212.26-220.59a11.6,11.6,0,0,0-14.81-17.86Z"/><path class="cls-14" d="M2112.24,2025.24c-38.6-23.93-54.2-76.35-54.2-76.35s46.86,45.08,63.89,26.24-33.06-84.61-62-102.56-129.63-32.26-129.63-32.26l-87.39,63.4c41.78,100.71,153.46,161.92,204.5,161.49S2150.85,2049.16,2112.24,2025.24Z"/><g class="cls-21"><path class="cls-44" d="M1842.9,1903.71a237.4,237.4,0,0,0,17.54,33.88c32.93,3.85,104.16,1,149.17-82.27-37.5-9-79.32-15-79.32-15Z"/></g><path class="cls-18" d="M1396.77,1011.31c-124.57-31.79-191.76,89.54-192.29,206.78-.34,72.28,61,333.88,95.86,476.86a190.83,190.83,0,0,0,113.52,131.5l388.79,158c144.84-22.45,158.69-177,158.69-177L1583,1552.18S1477.9,1032,1396.77,1011.31Z"/><path class="cls-14" d="M2764.67,1693.25c-27.44-9.84-67.17-30.11-95.54-33.83-26.44-3.47-40.68,11.93-38,22.92-44.33-14.17-68.52,11.17-64.58,24.51,4.32,7.41,19.6,14,26.49,16.43-36.71-7.29-56.36,26.34-45.67,37.21,5,5.08,32.16,21.26,40.49,24.78-1.09-.11-23.89-6.16-35.83-2.72-25.2,7.27-19.32,22.45-3.44,34.82,30.56,23.81,62.37,30.29,62.37,30.29,30.16.85,124.58-64.11,134.86-76.82C2780.85,1733.64,2777.53,1697.87,2764.67,1693.25Z"/><path class="cls-45" d="M2762.61,1734.28c-55.36-13.32-128.82-55-129.55-55.37a3.95,3.95,0,1,0-3.91,6.86c.74.42,75.16,42.6,131.61,56.19a3.69,3.69,0,0,0,.93.11,3.95,3.95,0,0,0,.92-7.79Z"/><path class="cls-45" d="M2717.17,1782.7c-68.4-17.1-124.26-63-124.82-63.49a3.94,3.94,0,1,0-5,6.07c.57.47,57.75,47.53,127.94,65.08a4,4,0,0,0,1,.12,3.95,3.95,0,0,0,1-7.78Z"/><path class="cls-45" d="M2654.07,1817.7c-31.66-5.56-63.22-35-63.53-35.3a3.95,3.95,0,1,0-5.42,5.74c1.35,1.28,33.57,31.36,67.58,37.34a4,4,0,0,0,.69.06,4,4,0,0,0,.68-7.84Z"/><path d="M3857.33,2637.56h-88.82V1969.65a26.93,26.93,0,1,0-53.85,0v667.91H3619.9a26.93,26.93,0,1,0,0,53.85h237.43a26.93,26.93,0,0,0,0-53.85Z"/><path class="cls-46" d="M3829.34,2637.56h-88.82V1969.65a26.93,26.93,0,1,0-53.85,0v667.91h-94.76a26.93,26.93,0,0,0,0,53.85h237.43a26.93,26.93,0,0,0,0-53.85Z"/><path d="M3140.85,2637.56H3052V1969.65a26.93,26.93,0,1,0-53.85,0v667.91h-94.77a26.93,26.93,0,0,0,0,53.85h237.43a26.93,26.93,0,0,0,0-53.85Z"/><path class="cls-46" d="M3112.87,2637.56h-88.82V1969.65a26.93,26.93,0,1,0-53.85,0v667.91h-94.76a26.93,26.93,0,1,0,0,53.85h237.43a26.93,26.93,0,0,0,0-53.85Z"/><path class="cls-46" d="M4446.51,1468.77l-1399.69,29.68c-26.27,0-55.08,15.91-64.21,35.55l-374.08,721s14.53,23.15,26.81,42.29c4.86,7.65,15.8,12,30,12H4061.52c26.24,0,55-15.91,64.21-35.51L4473.87,1534c4.64-9.85,2.75-18.08-2.1-25.18C4463.94,1497.44,4446.51,1468.77,4446.51,1468.77Z"/><path class="cls-46" d="M3046.82,1498.45c-26.27,0-55.08,15.91-64.21,35.55l-374.08,721s14.53,23.15,26.81,42.29c4.86,7.65,15.8,12,30,12H4061.52c13.66,0,28-4.34,40-11.3l-804.83-804.9Z"/><path class="cls-47" d="M4415.71,1455.51H3019.57c-26.27,0-55,15.91-64.28,35.55l-348.1,739.77c-9.21,19.61,4.6,35.52,30.91,35.52H4034.2c26.27,0,55-15.91,64.25-35.52l348.06-739.77C4455.75,1471.42,4442,1455.51,4415.71,1455.51Z"/><polygon class="cls-48" points="3633.34 1667.59 3951.58 1667.59 4034.71 1491.06 3716.39 1491.06 3633.34 1667.59"/><polygon class="cls-48" points="2921.91 1667.59 3240.19 1667.59 3323.28 1491.06 3004.97 1491.06 2921.91 1667.59"/><polygon class="cls-48" points="3277.62 1667.59 3595.83 1667.59 3678.99 1491.06 3360.68 1491.06 3277.62 1667.59"/><polygon class="cls-48" points="3544.95 1855.31 3863.3 1855.31 3946.32 1678.79 3628.01 1678.79 3544.95 1855.31"/><polygon class="cls-48" points="3100.93 2043.08 3419.21 2043.08 3502.3 1866.51 3183.99 1866.51 3100.93 2043.08"/><polygon class="cls-48" points="2833.6 1855.31 3151.88 1855.31 3234.97 1678.79 2916.59 1678.79 2833.6 1855.31"/><polygon class="cls-48" points="3189.28 1855.31 3507.55 1855.31 3590.61 1678.79 3272.37 1678.79 3189.28 1855.31"/><polygon class="cls-48" points="3456.57 2043.08 3774.95 2043.08 3857.93 1866.51 3539.7 1866.51 3456.57 2043.08"/><polygon class="cls-48" points="3900.66 1855.31 4218.97 1855.31 4302.03 1678.79 3983.72 1678.79 3900.66 1855.31"/><polygon class="cls-48" points="3812.35 2043.08 4130.59 2043.08 4213.68 1866.51 3895.34 1866.51 3812.35 2043.08"/><polygon class="cls-48" points="2745.18 2043.08 3063.53 2043.08 3146.59 1866.51 2828.28 1866.51 2745.18 2043.08"/><polygon class="cls-48" points="3989.01 1667.59 4307.25 1667.59 4390.34 1491.06 4072.1 1491.06 3989.01 1667.59"/><polygon class="cls-48" points="3723.96 2230.83 4042.28 2230.83 4125.34 2054.24 3807.06 2054.24 3723.96 2230.83"/><polygon class="cls-48" points="3368.26 2230.83 3686.57 2230.83 3769.59 2054.24 3451.38 2054.24 3368.26 2230.83"/><polygon class="cls-48" points="2656.98 2230.83 2975.18 2230.83 3058.2 2054.24 2739.93 2054.24 2656.98 2230.83"/><polygon class="cls-48" points="3012.58 2230.83 3330.86 2230.83 3413.91 2054.24 3095.71 2054.24 3012.58 2230.83"/><polygon class="cls-49" points="3289.33 1661.14 3590.36 1661.14 3667.29 1497.55 3366.26 1497.55 3289.33 1661.14"/><polygon class="cls-49" points="3645 1661.14 3946.03 1661.14 4023 1497.55 3721.97 1497.55 3645 1661.14"/><polygon class="cls-49" points="3556.66 1848.82 3857.68 1848.82 3934.61 1685.23 3633.59 1685.23 3556.66 1848.82"/><polygon class="cls-49" points="2933.62 1661.14 3234.61 1661.14 3311.47 1497.55 3010.62 1497.55 2933.62 1661.14"/><polygon class="cls-49" points="2845.3 1848.82 3146.3 1848.82 3223.3 1685.23 2922.24 1685.23 2845.3 1848.82"/><polygon class="cls-49" points="3112.63 2036.55 3413.59 2036.55 3490.63 1873.03 3189.57 1873.03 3112.63 2036.55"/><polygon class="cls-49" points="3200.94 1848.82 3501.97 1848.82 3578.94 1685.23 3277.95 1685.23 3200.94 1848.82"/><polygon class="cls-49" points="3468.27 2036.55 3769.3 2036.55 3846.27 1873.03 3545.28 1873.03 3468.27 2036.55"/><polygon class="cls-49" points="3912.33 1848.82 4213.36 1848.82 4290.32 1685.23 3989.33 1685.23 3912.33 1848.82"/><polygon class="cls-49" points="3824.02 2036.55 4125.01 2036.55 4202.02 1873.03 3900.99 1873.03 3824.02 2036.55"/><polygon class="cls-49" points="4000.64 1661.14 4301.7 1661.14 4378.64 1497.55 4077.68 1497.55 4000.64 1661.14"/><polygon class="cls-49" points="3735.7 2224.39 4036.66 2224.39 4113.67 2060.79 3812.71 2060.79 3735.7 2224.39"/><polygon class="cls-49" points="2668.54 2224.39 2969.49 2224.39 3046.53 2060.79 2745.54 2060.79 2668.54 2224.39"/><polygon class="cls-49" points="2756.92 2036.55 3057.95 2036.55 3134.84 1873.03 2833.85 1873.03 2756.92 2036.55"/><polygon class="cls-49" points="3024.32 2224.39 3325.28 2224.39 3402.24 2060.79 3101.18 2060.79 3024.32 2224.39"/><polygon class="cls-49" points="3380.07 2224.39 3681.03 2224.39 3757.92 2060.79 3456.97 2060.79 3380.07 2224.39"/><polygon class="cls-50" points="3078.68 2090.36 3143.87 2054.24 3095.71 2054.24 3078.68 2090.36"/><polygon class="cls-50" points="3145.39 1948.41 3100.93 2043.08 3164.17 2043.08 3483.42 1866.51 3293.53 1866.51 3145.39 1948.41"/><polygon class="cls-50" points="3063.53 2043.08 3094.91 1976.42 2974.24 2043.08 3063.53 2043.08"/><path class="cls-50" d="M3353.22,1506.89l-75.6,160.69h6.6q159.59-88.33,319.33-176.52H3382Z"/><polygon class="cls-50" points="3503.71 1855.31 3508.93 1852.48 3575.72 1710.49 3313.82 1855.31 3503.71 1855.31"/><polygon class="cls-50" points="3626.19 1682.55 3559.44 1824.47 3823 1678.79 3633.08 1678.79 3626.19 1682.55"/><polygon class="cls-50" points="3686.57 2230.83 3723.02 2153.32 3582.78 2230.83 3686.57 2230.83"/><polygon class="cls-50" points="3482.4 1988.39 3456.57 2043.08 3553.21 2043.08 3852.9 1877.34 3857.93 1866.51 3702.77 1866.51 3482.4 1988.39"/><path class="cls-50" d="M3863.3,1855.31l49.28-104.77q-94.8,52.31-189.56,104.77Z"/><polygon class="cls-50" points="3240.19 1667.59 3302.66 1534.84 3062.7 1667.59 3240.19 1667.59"/><polygon class="cls-50" points="3653.48 1667.59 3843.3 1667.59 3989.62 1586.63 4034.71 1491.06 3972.63 1491.06 3653.48 1667.59"/><path class="cls-50" d="M3773.65,2125.3,3724,2230.83h83.28Q3966,2143,4124.94,2055.1c.4-.86-222.79-.86-222.79-.86Z"/><polygon class="cls-50" points="3963.1 1722.56 3903.45 1849.37 4211.94 1678.79 4042.28 1678.79 3963.1 1722.56"/><polygon class="cls-50" points="4130.59 2043.08 4203.9 1887.49 3922.41 2043.08 4130.59 2043.08"/><polygon class="cls-50" points="3422.72 2115.26 3532.88 2054.24 3451.38 2054.24 3422.72 2115.26"/><path class="cls-50" d="M4062.6,1667.58h169.6l101.47-56.06,56.67-120.46h-8.59Q4222.27,1579.29,4062.6,1667.58Z"/><polygon class="cls-50" points="4040.28 1558.65 4162.52 1491.06 4072.1 1491.06 4040.28 1558.65"/><polygon class="cls-50" points="2794.47 1938.34 2924.38 1866.51 2828.28 1866.51 2794.47 1938.34"/><polygon class="cls-50" points="2664.7 2214.24 2656.98 2230.83 2824.62 2230.83 3028.16 2118.38 3058.2 2054.24 2953.98 2054.24 2664.7 2214.24"/><path class="cls-50" d="M2872.38,1772.76l-38.78,82.55h111.07l280-154.78,10.32-21.74h-192.6Q2957.35,1725.8,2872.38,1772.76Z"/><polygon class="cls-50" points="3419.21 2043.08 3431.89 2016.43 3383.55 2043.08 3419.21 2043.08"/><polygon class="cls-50" points="3043.93 2230.83 3213.59 2230.83 3372.09 2143.17 3413.91 2054.24 3363.15 2054.24 3043.93 2230.83"/><polygon class="cls-20" points="3645 1661.14 3729.62 1511.68 4023 1497.55 3721.97 1497.55 3645 1661.14"/><polygon class="cls-20" points="2845.3 1848.82 2931.19 1698.75 3223.3 1685.23 2922.24 1685.23 2845.3 1848.82"/><polygon class="cls-20" points="2933.62 1661.14 3021.49 1510.99 3311.47 1497.55 3010.62 1497.55 2933.62 1661.14"/><polygon class="cls-20" points="3289.33 1661.14 3375.94 1511.68 3667.29 1497.55 3366.26 1497.55 3289.33 1661.14"/><polygon class="cls-20" points="3556.66 1848.82 3641.78 1702.74 3927.44 1687.26 3633.59 1685.23 3556.66 1848.82"/><polygon class="cls-20" points="3112.63 2036.55 3200.44 1888.65 3490.63 1873.03 3189.57 1873.03 3112.63 2036.55"/><polygon class="cls-20" points="3468.27 2036.55 3556.66 1891.22 3846.27 1873.03 3545.28 1873.03 3468.27 2036.55"/><polygon class="cls-20" points="3200.94 1848.82 3288.13 1697.59 3578.94 1685.23 3277.95 1685.23 3200.94 1848.82"/><polygon class="cls-20" points="3735.7 2224.39 3822.53 2077.14 4113.67 2060.79 3812.71 2060.79 3735.7 2224.39"/><polygon class="cls-20" points="3912.33 1848.82 3998.11 1697.59 4290.32 1685.23 3989.33 1685.23 3912.33 1848.82"/><polygon class="cls-20" points="3824.02 2036.55 3910.3 1888.65 4202.02 1873.03 3900.99 1873.03 3824.02 2036.55"/><polygon class="cls-20" points="4000.64 1661.14 4088.48 1511.68 4378.64 1497.55 4077.68 1497.55 4000.64 1661.14"/><polygon class="cls-20" points="2756.92 2036.55 2844.15 1888.65 3134.84 1873.03 2833.85 1873.03 2756.92 2036.55"/><polygon class="cls-20" points="3380.07 2224.39 3466.32 2077.14 3757.92 2060.79 3456.97 2060.79 3380.07 2224.39"/><polygon class="cls-20" points="2668.54 2224.39 2756.34 2077.14 3046.53 2060.79 2745.54 2060.79 2668.54 2224.39"/><polygon class="cls-20" points="3024.32 2224.39 3112.67 2077.14 3402.24 2060.79 3101.18 2060.79 3024.32 2224.39"/><path class="cls-48" d="M3019.57,1455.51c-26.27,0-55,15.91-64.28,35.55l-348.1,739.77,355.74-730.06c9.17-19.6,38-35.48,64.29-35.48,0,0,1406-9.78,1388.49-9.78Z"/><path class="cls-40" d="M3650.12,771.43c-80.17,2.91-142.94,66.62-140.19,142.29s70,134.66,150.15,131.74,143-66.62,140.19-142.29S3730.3,768.52,3650.12,771.43Z"/><polygon class="cls-40" points="3816.76 902.58 3817.72 928.97 3876.97 900.38 3815.8 876.17 3816.76 902.58"/><polygon class="cls-40" points="3492.48 887.93 3433.23 916.51 3494.4 940.71 3493.44 914.32 3492.48 887.93"/><polygon class="cls-40" points="3802.78 842.44 3813.57 866.56 3857.8 817.86 3792.01 818.33 3802.78 842.44"/><polygon class="cls-40" points="3496.64 950.34 3452.41 999.03 3518.19 998.57 3507.42 974.45 3496.64 950.34"/><polygon class="cls-40" points="3767.31 791.92 3786.34 810.24 3809.1 748.52 3748.28 773.61 3767.31 791.92"/><polygon class="cls-40" points="3523.88 1006.65 3501.11 1068.37 3561.92 1043.29 3542.9 1024.97 3523.88 1006.65"/><polygon class="cls-40" points="3690.99 748.52 3715.49 758.37 3739.99 768.23 3737.98 702.48 3690.99 748.52"/><polygon class="cls-40" points="3570.21 1048.66 3572.23 1114.41 3619.22 1068.38 3594.72 1058.51 3570.21 1048.66"/><polygon class="cls-40" points="3628.46 746.72 3654.87 746.68 3681.28 746.64 3654.79 686.43 3628.46 746.72"/><polygon class="cls-40" points="3628.92 1070.24 3655.42 1130.46 3681.74 1070.17 3655.33 1070.21 3628.92 1070.24"/><polygon class="cls-40" points="3569.82 768.48 3594.29 758.55 3618.76 748.62 3571.64 702.72 3569.82 768.48"/><polygon class="cls-40" points="3691.44 1068.27 3738.56 1114.18 3740.38 1048.42 3715.91 1058.34 3691.44 1068.27"/><polygon class="cls-40" points="3523.6 810.62 3542.57 792.24 3561.54 773.87 3500.65 748.96 3523.6 810.62"/><polygon class="cls-40" points="3767.64 1024.65 3748.67 1043.02 3809.55 1067.93 3786.61 1006.27 3767.64 1024.65"/><polygon class="cls-40" points="3496.53 867 3507.23 842.86 3517.94 818.72 3452.15 818.43 3496.53 867"/><polygon class="cls-40" points="3802.97 974.03 3792.27 998.17 3858.05 998.46 3813.68 949.89 3802.97 974.03"/><path class="cls-41" d="M1308.75,695.71c-58.43,7.12-123.61-28.71-123.61-28.71,44.62,68.36-70,174.26,73,194.63,47.31,6.75,86.26,34.46,86.26,34.46C1442.19,747.45,1367.19,688.59,1308.75,695.71Z"/><g class="cls-51"><path class="cls-52" d="M1250.53,818.42c-26.8,4.28-48.27-3.33-67.07-17.08.55,28.91,15.66,51.89,74.65,60.29,47.31,6.75,86.26,34.46,86.26,34.46,46.06-70,53.79-120.08,43-152.74C1360.84,790,1303.27,817.21,1250.53,818.42Z"/></g><path class="cls-43" d="M1366.14,751.34c.37,1.27,14.21,49.78-25.8,97.31a300.06,300.06,0,0,0-16.24-45.78c21.38-54.37-6-84.46-7.42-86,.54.82,19.61,31,3.51,77.81-19.09-38.14-49-71.93-96-84.29,0,0,46.48,21.66,81.6,83-37.25.09-73.87-45.19-73.87-45.19,1.49,2.31,35.66,54.22,77.32,51.45a271.54,271.54,0,0,1,17.4,40.14c-36.88,7.28-84.14-26.85-85.48-27.82,2.31,2.13,47.41,42.4,87.58,34,5.21,16.36,11.23,45.29,16.12,75.07a4.85,4.85,0,0,0,9.57-1.55c-3.33-21.19-7.49-44.38-12.07-63.12C1388.86,804.58,1366.81,752.86,1366.14,751.34Z"/><path class="cls-53" d="M1175.63,881.27c-3.76-.47-6.35,1-8.78,2.52-13.43,8.24-26.53,16.94-37.41,27.74l-3,6.1c-2.46,2-1.64,7,1.85,11.34s9.26,7.48,13.12,7.18a9.38,9.38,0,0,0,4.2-1.56c16-9.43,27.7-23.26,39.29-37,1.8-2.13,3.6-4.83,1.64-8.77S1179.38,881.74,1175.63,881.27Z"/><path class="cls-53" d="M1124.28,796.64c-3-2.34-6.06-2.4-9-2.38-16.09.12-32.08.8-47.32,4.44l-5.85,3.68c-3.22.47-5.2,5.18-4.5,10.68s4,11.21,7.52,13a9.83,9.83,0,0,0,4.48.83c18.94.19,36.5-5.61,53.92-11.41,2.7-.89,5.71-2.27,6.13-6.67S1127.28,799,1124.28,796.64Z"/><path class="cls-53" d="M1142.81,687.28c-15-5.14-30.12-9.73-45.46-11.27l-6.64,1.57c-3.14-.61-6.51,3.19-7.63,8.63s.13,11.91,2.82,14.7a9.51,9.51,0,0,0,3.89,2.25c17.55,6.37,35.77,6.61,53.84,6.84,2.81,0,6.07-.3,7.87-4.31s.9-10-1.13-13.24S1145.51,688.21,1142.81,687.28Z"/><path class="cls-53" d="M1256.26,580.36c.11-3.19-4-6-9.31-6.27s-11.29,1.84-13.54,4.91a9.58,9.58,0,0,0-1.56,4.16c-3.45,18.25-1,36.26,1.46,54.13.38,2.77,1.18,5.93,5.24,7.14s9.67-.57,12.41-3,3.3-5.41,3.79-8.21c2.66-15.55,4.78-31.12,4-46.5Z"/><path class="cls-53" d="M1365,593.77c-4.87-2.66-11.43-3.34-14.9-1.54a9.63,9.63,0,0,0-3.3,3.12c-11.25,15.12-16.83,32.66-22.35,50.09-.87,2.7-1.51,5.94,1.81,8.85s9.35,3.78,13,2.74,5.48-3.46,7.16-5.81c9.33-13,18.16-26.31,24.15-40.7l.43-6.87C1372.49,600.78,1369.84,596.43,1365,593.77Z"/><path class="cls-53" d="M1465.39,673a10,10,0,0,0-4.62.59c-18.62,5.73-34.16,16.81-49.57,27.82-2.4,1.71-5,4-4.09,8.33s5.2,8.64,8.82,9.95,6.63.41,9.45-.51c15.73-5.14,31.23-10.81,45.12-19.07l4.67-5.37c3-1.45,3.6-6.59,1.33-11.66S1469.33,673.54,1465.39,673Z"/></g></g></svg>